<?xml version="1.0" encoding="UTF-8" standalone="no"?>
<!-- Created with Inkscape (http://www.inkscape.org/) -->

<svg
   width="55.148926mm"
   height="162.68555mm"
   viewBox="0 0 55.148926 162.68555"
   version="1.1"
   id="svg1"
   xml:space="preserve"
   xmlns="http://www.w3.org/2000/svg"
   xmlns:svg="http://www.w3.org/2000/svg"><defs
     id="defs1" /><g
     id="layer1"
     transform="translate(365.67146,-71.322592)"><path
       style="fill:#000000;fill-opacity:1"
       d="m -335.37492,233.59416 c 0.30926,-0.30926 0.34746,-0.48962 0.1319,-0.62285 -0.16689,-0.10314 0.25181,-0.26363 0.93044,-0.35665 0.88948,-0.12191 1.39133,-0.0588 1.79796,0.22598 0.97695,0.68428 1.95877,0.42586 1.21351,-0.3194 -0.21184,-0.21184 -0.11062,-0.28032 0.37148,-0.25136 0.36446,0.0219 0.60752,0.12911 0.54014,0.23825 -0.0674,0.10914 0.11413,0.19844 0.40336,0.19844 0.28924,0 0.68322,0.15549 0.87551,0.34553 0.6497,0.64209 1.23509,0.69854 1.85805,0.17917 0.43571,-0.36325 0.49567,-0.51074 0.21137,-0.51995 -0.33517,-0.0109 -0.3389,-0.0496 -0.024,-0.24891 0.20508,-0.12983 0.5325,-0.1748 0.7276,-0.0999 0.1951,0.0749 0.35472,0.004 0.35472,-0.15677 0,-0.16109 0.18563,-0.29289 0.41249,-0.29289 0.22687,0 0.33891,-0.11906 0.24897,-0.26458 -0.0971,-0.15716 0.24569,-0.27601 0.84428,-0.29271 1.68369,-0.047 1.9271,-0.0936 1.92531,-0.36875 -9.4e-4,-0.14552 -0.24122,-0.26459 -0.53395,-0.26459 -0.29273,0 -0.61784,-0.12316 -0.72248,-0.2737 -0.10463,-0.15054 -0.53372,-0.53749 -0.95353,-0.8599 -0.4198,-0.3224 -0.62816,-0.58619 -0.46302,-0.58619 0.16515,0 0.30027,-0.13295 0.30027,-0.29544 0,-0.16334 -0.23227,-0.2347 -0.51944,-0.15961 -0.56051,0.14658 -1.2125,-0.42011 -0.95769,-0.8324 0.24888,-0.40269 -0.10223,-1.02995 -0.65784,-1.17525 -0.60914,-0.15929 -0.69343,-1.18802 -0.11551,-1.40978 0.21745,-0.0834 0.32626,-0.26352 0.24181,-0.40017 -0.0845,-0.13664 -0.01,-0.42182 0.1662,-0.63373 0.17587,-0.21191 0.23107,-0.38528 0.12268,-0.38528 -0.1084,0 -0.0645,-0.15979 0.0976,-0.35508 0.16207,-0.19529 0.21634,-0.43341 0.12059,-0.52916 -0.0958,-0.0958 -0.0282,-0.1741 0.1502,-0.1741 0.17836,0 0.25735,-0.10832 0.17553,-0.2407 -0.2336,-0.37797 0.0993,-0.99402 0.53718,-0.99402 0.22947,0 0.33755,0.1546 0.25623,0.36652 -0.0774,0.20159 -0.036,0.30183 0.092,0.22276 0.30353,-0.18759 1.15436,1.1117 0.94734,1.44667 -0.0874,0.14141 -0.0527,0.25711 0.0772,0.25711 0.12985,0 0.24896,0.14882 0.26469,0.33072 0.0521,0.60214 0.20382,1.11975 0.43865,1.49609 0.17151,0.27486 0.13512,0.31642 -0.13973,0.15963 -0.29047,-0.1657 -0.30361,-0.13841 -0.0602,0.125 0.20869,0.22584 0.23267,0.54409 0.0727,0.96486 -0.17043,0.44828 -0.14599,0.63027 0.0855,0.63628 0.1798,0.005 0.10318,0.17576 -0.17203,0.38416 -0.27291,0.20666 -0.43104,0.54555 -0.3514,0.75309 0.0796,0.20754 0.005,0.5243 -0.16525,0.70391 -0.24362,0.25659 -0.16833,0.28435 0.3514,0.12956 0.3638,-0.10835 0.69552,-0.28344 0.73715,-0.38909 0.0416,-0.10565 0.24772,-0.41733 0.45799,-0.69263 0.32113,-0.42044 0.4221,-0.43996 0.63095,-0.12197 0.18683,0.28444 0.29425,0.13549 0.43205,-0.59904 0.10087,-0.53768 0.34769,-1.06955 0.5485,-1.18192 0.30611,-0.17131 0.29881,-0.29896 -0.0452,-0.79003 -0.22563,-0.32214 -0.63359,-0.58571 -0.90658,-0.58571 -0.61118,0 -0.95312,-0.94777 -0.52713,-1.46106 0.25468,-0.30687 0.13523,-0.48232 -0.6396,-0.93948 -0.52402,-0.30918 -0.96796,-0.63968 -0.98653,-0.73445 -0.0186,-0.0948 -0.0613,-0.42971 -0.095,-0.74433 -0.0337,-0.31462 -0.1403,-0.77794 -0.23687,-1.02961 -0.14937,-0.38925 -0.11396,-0.40643 0.23711,-0.11507 0.22698,0.18838 0.39459,0.53264 0.37246,0.76503 -0.10876,1.14213 -0.004,1.23387 1.47591,1.29581 0.80036,0.0335 1.45703,-0.0302 1.45926,-0.14162 0.01,-0.49162 0.47181,-0.86782 0.87548,-0.71291 0.24219,0.0929 0.37447,0.27556 0.29396,0.40583 -0.0805,0.13028 -0.0288,0.23686 0.115,0.23686 0.14377,0 0.25323,-0.38695 0.24325,-0.85989 -0.01,-0.47295 0.0732,-1.13286 0.18491,-1.46648 0.11167,-0.33362 0.0985,-0.58741 -0.0292,-0.56398 -0.69923,0.12826 -1.12934,-0.0522 -0.98997,-0.41542 0.0834,-0.21745 0.25008,-0.33457 0.37029,-0.26027 0.12022,0.0743 0.29055,0.0186 0.37852,-0.1237 0.10373,-0.16783 0.39693,-0.16868 0.83424,-0.002 0.88344,0.33588 1.19221,0.11377 1.03638,-0.74556 -0.0717,-0.39518 0.0138,-0.78669 0.19633,-0.89955 0.49163,-0.30397 -0.31174,-0.98532 -1.28775,-1.09216 -0.44399,-0.0486 -1.09659,-0.29539 -1.45023,-0.54839 l -0.64297,-0.46002 0.7276,0.17573 c 0.85968,0.20763 0.95737,-0.14003 0.17641,-0.62775 l -0.5512,-0.34423 0.55508,-0.48141 c 0.30529,-0.26478 0.51331,-0.64453 0.46227,-0.8439 -0.051,-0.19936 -0.0429,-0.27318 0.0182,-0.16404 0.23602,0.42203 0.86063,0.17114 0.86063,-0.34568 0,-0.53157 0.0182,-0.53338 0.78836,-0.0784 0.54903,0.32432 0.68959,0.52843 0.46302,0.67236 -0.1858,0.11803 -0.20518,0.20841 -0.0452,0.21072 0.5104,0.007 1.26205,-0.70619 1.34985,-1.28146 0.0579,-0.37908 -0.0537,-0.56657 -0.33706,-0.56657 -0.28398,0 -0.36861,-0.14309 -0.25687,-0.4343 0.13525,-0.35246 0.0952,-0.37496 -0.21272,-0.11944 -0.24594,0.20411 -0.43717,0.22134 -0.54369,0.049 -0.0904,-0.14623 -0.36887,-0.19553 -0.61887,-0.10955 -0.35911,0.12351 -0.34344,0.0655 0.0746,-0.27631 0.52702,-0.43089 0.52675,-0.4347 -0.0661,-0.9379 -0.64661,-0.54879 -0.78401,-1.58112 -0.27781,-2.08731 0.24694,-0.24695 0.19162,-0.3175 -0.24897,-0.3175 -0.31156,0 -0.64025,-0.11939 -0.73043,-0.2653 -0.10961,-0.17734 -0.32831,-0.17734 -0.65968,0 -0.66881,0.35793 -0.79509,0.33572 -0.79509,-0.13988 0,-0.22285 0.17406,-0.47197 0.3868,-0.55361 0.21275,-0.0816 0.4579,-0.37241 0.54478,-0.64617 0.11744,-0.37001 0.35766,-0.47449 0.93612,-0.40714 0.42797,0.0498 0.77814,-1e-4 0.77814,-0.11097 0,-0.25346 -0.68379,-0.52276 -1.32734,-0.52276 -0.26966,0 -0.81509,-0.12349 -1.21207,-0.27442 -1.19147,-0.453 -0.5245,-0.83276 1.8118,-1.03161 0.10914,-0.009 0.19844,-0.13595 0.19844,-0.28147 0,-0.14553 -0.32742,-0.26532 -0.72761,-0.26622 -0.40018,-8.9e-4 -1.05502,-0.17243 -1.4552,-0.38118 -0.40821,-0.21294 -0.72761,-0.26345 -0.72761,-0.11505 0,0.14548 -0.11662,0.19243 -0.25916,0.10434 -0.33351,-0.20612 0.26193,-1.19398 0.71968,-1.19398 0.18328,0 0.33323,-0.18399 0.33323,-0.40886 0,-0.32868 -0.19328,-0.3726 -0.98555,-0.22398 -0.96889,0.18177 -0.97704,0.17638 -0.48191,-0.31874 0.45549,-0.45548 0.46118,-0.5118 0.0595,-0.58917 -0.24427,-0.0471 -0.44413,-0.19588 -0.44413,-0.33073 0,-0.13485 -0.28443,-0.24518 -0.63206,-0.24518 -0.43957,0 -0.62087,-0.14101 -0.59531,-0.46302 0.0254,-0.32011 -0.14706,-0.45654 -0.55874,-0.442 -0.52403,0.0185 -0.55074,-0.0291 -0.22257,-0.39687 0.20511,-0.22985 0.41355,-0.70807 0.4632,-1.06271 0.0816,-0.58284 0.1296,-0.60527 0.49949,-0.23335 0.22506,0.22631 0.65702,0.49012 0.95989,0.58624 0.44085,0.13993 0.57569,0.044 0.67608,-0.48119 0.069,-0.36079 0.0537,-0.63209 -0.0339,-0.6029 -0.0876,0.0292 -0.15925,-0.066 -0.15925,-0.2115 0,-0.14552 0.37683,-0.26458 0.83739,-0.26458 1.28196,0 1.32244,-0.32307 0.0869,-0.69325 -0.6114,-0.18318 -1.16862,-0.48157 -1.23828,-0.66309 -0.0696,-0.18152 -0.29539,-0.26529 -0.50162,-0.18615 -0.20624,0.0791 -0.37498,0.005 -0.37498,-0.16461 0,-0.17638 -0.14164,-0.22341 -0.33073,-0.10981 -0.25928,0.15577 -0.26255,0.11435 -0.0151,-0.19169 0.17358,-0.21472 0.23311,-0.51415 0.1323,-0.66541 -0.26902,-0.4036 -1.0696,-0.64707 -1.23701,-0.37619 -0.0795,0.12869 0.097,0.31065 0.39224,0.40437 0.29527,0.0937 0.47008,0.27844 0.38846,0.4105 -0.0845,0.13677 -0.36349,0.1058 -0.64811,-0.072 -0.37805,-0.2361 -0.46163,-0.50245 -0.34331,-1.09406 0.11083,-0.55414 0.0673,-0.7269 -0.14948,-0.59293 -0.16824,0.10397 -0.30589,0.063 -0.30589,-0.0912 0,-0.1541 0.1786,-0.29508 0.39688,-0.31327 0.76234,-0.0635 0.88348,-0.10089 1.10243,-0.34007 0.1281,-0.13994 0.0819,-0.16111 -0.11025,-0.0505 -0.1819,0.10468 -0.33073,0.0642 -0.33073,-0.0899 0,-0.1541 0.23813,-0.28019 0.52917,-0.28019 0.29104,0 0.52917,-0.12609 0.52917,-0.2802 0,-0.15411 -0.10947,-0.21255 -0.24325,-0.12986 -0.13379,0.0827 -0.40168,4.1e-4 -0.59532,-0.18282 -0.19363,-0.18324 -0.69936,-0.3583 -1.12383,-0.38903 -0.42448,-0.0307 -0.85451,-0.18972 -0.95563,-0.35332 -0.10111,-0.16361 -0.2734,-0.26923 -0.38285,-0.23472 -0.10946,0.0345 -0.50623,-0.16368 -0.88172,-0.44042 -0.92069,-0.67858 -2.11644,-1.77811 -1.70438,-1.56724 0.1819,0.0931 0.33073,0.10575 0.33073,0.0281 0,-0.0776 -0.37859,-0.33689 -0.84131,-0.57617 l -0.8413,-0.43505 0.61594,-0.32964 c 0.52996,-0.28363 0.7047,-0.25246 1.25189,0.22331 0.47921,0.41667 0.59567,0.71759 0.4725,1.22093 -0.1584,0.64733 -0.15091,0.65162 0.24246,0.13879 0.33767,-0.44021 0.40732,-0.45652 0.41432,-0.097 0.005,0.23769 0.26612,0.49955 0.58109,0.58192 0.46816,0.12243 0.51411,0.22034 0.25174,0.53647 -0.21808,0.26276 -0.23202,0.44167 -0.0435,0.55817 0.15258,0.0943 0.27743,0.0484 0.27743,-0.10194 0,-0.15037 0.33446,-0.44636 0.74325,-0.65775 0.81217,-0.41999 1.42725,-0.21697 1.53338,0.50614 0.0357,0.24325 0.15235,0.52066 0.25921,0.61647 0.10687,0.0958 0.11445,-0.0474 0.0169,-0.31829 -0.13179,-0.36574 -0.0767,-0.45383 0.21395,-0.34228 0.21527,0.0826 0.46297,0.0344 0.55045,-0.10715 0.0875,-0.14154 0.25004,-0.20111 0.36125,-0.13238 0.11121,0.0687 0.2022,-0.0431 0.2022,-0.24863 0,-0.20547 -0.0857,-0.32061 -0.1905,-0.25585 -0.10478,0.0648 -0.33252,-0.0534 -0.50609,-0.26252 -0.26519,-0.31952 -0.19603,-0.35638 0.43304,-0.23082 0.41174,0.0822 0.90754,0.1554 1.10177,0.16268 0.22632,0.008 0.31032,0.23723 0.23392,0.63693 -0.0656,0.34302 -0.0127,0.68949 0.11742,0.76993 0.13016,0.0804 0.18306,0.5908 0.11757,1.13414 -0.10859,0.90091 -0.0489,1.01438 0.67809,1.28878 0.43844,0.16549 0.72418,0.41899 0.63498,0.56332 -0.0894,0.14471 0.0815,0.24407 0.38113,0.2215 0.6993,-0.0527 0.58097,-0.8254 -0.14235,-0.92957 -0.35049,-0.0505 -0.63488,-0.40803 -0.83624,-1.05137 -0.36503,-1.16626 -0.23103,-1.48382 0.46823,-1.10958 0.91758,0.49107 1.19308,-0.0426 0.3635,-0.70405 -0.8162,-0.65082 -0.78089,-0.93189 0.11424,-0.90916 0.30749,0.008 0.82329,0.0196 1.14623,0.0263 0.77128,0.0159 1.01646,0.45682 0.67307,1.21048 -0.17318,0.38009 -0.47683,0.58862 -0.80602,0.55353 -0.29049,-0.031 -0.5873,0.11151 -0.65958,0.3166 -0.0887,0.25167 0.002,0.32161 0.27966,0.21514 0.23291,-0.0894 0.47432,0.007 0.55697,0.22242 0.0802,0.2091 0.35798,0.36636 0.61721,0.34948 0.43025,-0.028 0.43176,-0.0411 0.0173,-0.14997 -0.38483,-0.10109 -0.33441,-0.23623 0.33073,-0.88643 0.43164,-0.42193 0.78479,-0.88221 0.78479,-1.02283 0,-0.14062 0.23813,-0.33125 0.52917,-0.42362 0.54308,-0.17237 0.75411,-1.19062 0.24675,-1.19062 -0.16201,0 -0.21081,-0.22561 -0.11446,-0.52917 0.16235,-0.51151 -0.27346,-0.72693 -1.05833,-0.52313 -0.39195,0.10177 -1.80537,-0.003 -1.94685,-0.14489 -0.0674,-0.0674 0.0823,-0.34881 0.33268,-0.62544 0.43367,-0.47919 0.42157,-0.53654 -0.2561,-1.21421 -0.44341,-0.44341 -0.89774,-0.6625 -1.20644,-0.58178 -0.27234,0.0712 -0.49517,0.0296 -0.49517,-0.0925 0,-0.12209 -0.2357,-0.29679 -0.52379,-0.38823 -0.28809,-0.0914 -0.51211,-0.24829 -0.49783,-0.34856 0.0706,-0.49553 -0.0858,-0.57153 -0.60459,-0.29389 -0.50403,0.26975 -0.55222,0.24406 -0.42865,-0.22848 0.11468,-0.43854 0.0244,-0.51981 -0.51182,-0.46094 -0.36349,0.0399 -0.71255,-0.0888 -0.79028,-0.29137 -0.0766,-0.19956 -0.41565,-0.36284 -0.75349,-0.36284 -0.33784,0 -0.79284,-0.17859 -1.01113,-0.39688 -0.21828,-0.21828 -0.52444,-0.39687 -0.68035,-0.39687 -0.15592,0 -0.28349,-0.17859 -0.28349,-0.39688 0,-0.44486 0.67341,-0.54106 0.92605,-0.13229 0.0899,0.14552 0.39462,0.26459 0.67707,0.26459 0.39103,0 0.51355,-0.18422 0.51355,-0.77211 0,-0.42467 0.0798,-0.97998 0.17726,-1.23403 0.12726,-0.33164 0.0825,-0.40336 -0.15869,-0.2543 -0.26514,0.16387 -0.27266,0.0894 -0.0357,-0.35347 0.16516,-0.3086 0.20238,-0.56109 0.0827,-0.56109 -0.38493,0 -0.31296,-1.08156 0.0821,-1.23314 0.20982,-0.0805 0.3815,-0.29241 0.3815,-0.47087 0,-0.17845 0.18951,-0.32447 0.42113,-0.32447 0.31993,0 0.38559,0.17768 0.27325,0.7394 -0.0813,0.40666 -0.0373,0.80775 0.0979,0.89131 0.15084,0.0932 0.1514,0.40025 10e-4,0.79464 -0.15437,0.40601 -0.14905,0.70163 0.0144,0.80267 0.14234,0.088 0.19538,0.26255 0.11787,0.38796 -0.0775,0.12541 -0.018,0.304 0.13229,0.39687 0.15027,0.0929 0.2192,0.25626 0.15318,0.36309 -0.066,0.10682 0.19967,0.18789 0.59043,0.18015 0.39076,-0.008 0.72561,0.13476 0.74411,0.31666 0.0721,0.70942 0.13536,0.70045 0.46601,-0.0661 0.33671,-0.78066 0.34561,-0.7837 0.53948,-0.18451 0.1541,0.47626 0.27547,0.54423 0.55602,0.31139 0.1974,-0.16382 0.29319,-0.4691 0.21288,-0.67839 -0.0992,-0.2585 -0.0179,-0.33136 0.25355,-0.2272 0.51831,0.1989 0.84625,-0.33506 0.47817,-0.77858 -0.15679,-0.18891 -0.20673,-0.42182 -0.11098,-0.51757 0.0958,-0.0958 0.0352,-0.1741 -0.13458,-0.1741 -0.16978,0 -0.30868,-0.18562 -0.30868,-0.41249 0,-0.22687 0.10561,-0.34721 0.23471,-0.26743 0.12909,0.0798 0.22939,-0.002 0.2229,-0.18282 -0.0435,-1.20689 0.0948,-1.51778 0.66686,-1.49991 0.56804,0.0177 0.57107,0.029 0.0662,0.24599 -0.29104,0.12506 -0.38034,0.23576 -0.19844,0.24598 0.1819,0.0102 0.33073,0.24399 0.33073,0.51946 0,0.72242 0.73495,0.90903 1.12435,0.2855 0.31171,-0.49912 0.79968,-0.73761 0.66159,-0.32334 -0.0364,0.10914 0.0393,0.19844 0.16813,0.19844 0.12885,0 0.33337,0.26789 0.45449,0.59531 0.12112,0.32742 0.37289,0.59349 0.55948,0.59126 0.24002,-0.003 0.22317,-0.0844 -0.0576,-0.27881 -0.32621,-0.22583 -0.30266,-0.25764 0.13229,-0.17867 0.29104,0.0529 0.50182,0.23059 0.4684,0.39498 -0.0334,0.16439 0.15069,0.36601 0.40915,0.44804 0.31085,0.0987 0.46024,0.39521 0.44131,0.87602 -0.0157,0.39978 0.0775,0.94511 0.20721,1.21184 0.21602,0.44422 0.27472,0.44978 0.69863,0.0661 0.49491,-0.44789 0.83776,-0.54394 0.78668,-0.22039 -0.0823,0.52128 0.0647,0.68786 0.29189,0.33073 0.20326,-0.31953 0.35161,-0.33545 0.76117,-0.0817 0.64121,0.39724 0.76628,0.26977 0.63223,-0.64438 -0.0988,-0.67364 -0.19588,-0.7275 -1.27637,-0.70796 -0.90811,0.0164 -1.24917,-0.10184 -1.52617,-0.52917 -0.45174,-0.6969 -0.28306,-1.21177 0.397,-1.21177 0.5061,0 0.50257,-0.0304 -0.0882,-0.75889 -0.33849,-0.41738 -0.66153,-0.71856 -0.71787,-0.66927 -0.24098,0.21082 -1.60882,-1.01987 -1.44937,-1.30405 0.12599,-0.22454 0.079,-0.22237 -0.16971,0.008 -0.23512,0.21763 -0.49513,0.23743 -0.82185,0.0626 -0.26285,-0.14068 -0.57203,-0.22653 -0.68707,-0.19078 -0.26102,0.0811 -1.39978,-0.88927 -1.39978,-1.19281 0,-0.12299 0.24384,-0.14623 0.54187,-0.0516 0.29802,0.0946 0.71474,0.0285 0.92604,-0.14685 0.2113,-0.17537 0.38418,-0.22809 0.38418,-0.11718 0,0.11092 -0.20836,0.37245 -0.46303,0.58119 -0.25466,0.20873 -0.32436,0.31041 -0.15489,0.22595 0.16948,-0.0845 0.36844,-0.004 0.44214,0.17882 0.0767,0.19036 0.14292,0.12245 0.15489,-0.15895 0.0138,-0.32415 0.15593,-0.43951 0.41776,-0.33903 0.24175,0.0928 0.39688,4.2e-4 0.39688,-0.23628 0,-0.21371 -0.0893,-0.36328 -0.19844,-0.33236 -0.10914,0.0309 -0.46633,-0.0923 -0.79375,-0.27389 -0.32742,-0.18156 -0.59531,-0.25936 -0.59531,-0.17289 0,0.0865 -0.12101,0.0824 -0.2689,-0.009 -0.1479,-0.0914 -0.18307,-0.30508 -0.0781,-0.47483 0.10491,-0.16975 0.17432,-0.72707 0.15424,-1.23849 -0.0201,-0.51142 0.0237,-0.72193 0.0974,-0.4678 0.10521,0.36311 0.24095,0.40474 0.63397,0.1944 0.27506,-0.14721 0.43689,-0.43238 0.35963,-0.63372 -0.0773,-0.20134 0.005,-0.45605 0.18302,-0.56601 0.20687,-0.12786 0.25544,-0.0898 0.13472,0.10553 -0.26906,0.43533 0.33611,0.37876 0.78859,-0.0737 0.32919,-0.32919 0.28309,-0.39024 -0.34963,-0.46303 -0.40085,-0.0461 -0.72881,-0.22753 -0.72881,-0.40317 0,-0.17564 -0.23813,-0.49456 -0.52917,-0.70871 -0.49023,-0.36072 -0.4951,-0.40257 -0.0661,-0.56886 0.5479,-0.2124 0.62352,-0.91663 0.0984,-0.91663 -0.20053,0 -0.55483,-0.26789 -0.78733,-0.59532 -0.39216,-0.55225 -0.44329,-0.56182 -0.70688,-0.13229 -0.38071,0.62038 -0.95758,0.58656 -1.12826,-0.0661 -0.0813,-0.31092 -0.008,-0.52917 0.17744,-0.52917 0.17371,0 0.34346,-0.36261 0.37723,-0.8058 0.0551,-0.72319 0.009,-0.77754 -0.45372,-0.53012 -0.28332,0.15163 -0.70234,0.20385 -0.93117,0.11604 -0.22882,-0.0878 -0.41604,-0.0278 -0.41604,0.13324 0,0.16109 -0.10255,0.29289 -0.22789,0.29289 -0.12534,0 -0.16761,-0.31535 -0.0939,-0.70078 0.0879,-0.45995 0.0361,-0.64028 -0.15088,-0.52474 -0.34541,0.21347 -1.15892,-0.87028 -0.93059,-1.23973 0.0892,-0.14429 0.0544,-0.19691 -0.0772,-0.11694 -0.13163,0.08 -0.38696,-0.0144 -0.56742,-0.20972 -0.21091,-0.22828 -0.23299,-0.41389 -0.0618,-0.51968 0.14645,-0.0905 0.19777,-0.27539 0.11405,-0.41086 -0.0837,-0.13546 0.0731,-0.2463 0.34846,-0.2463 0.27538,0 0.50068,-0.17859 0.50068,-0.39688 0,-0.37148 -0.93534,-0.55941 -2.01424,-0.4047 -0.28559,0.0409 -0.31098,-0.035 -0.10012,-0.29938 0.26978,-0.33828 0.26845,-1.18593 -0.002,-1.45668 -0.0703,-0.0703 -0.34717,-0.16939 -0.61517,-0.22009 -0.26799,-0.0507 -0.52514,-0.10131 -0.57143,-0.11244 -0.0463,-0.0111 0.16232,-0.3664 0.46357,-0.78947 0.42285,-0.59383 0.49111,-0.91054 0.29937,-1.38906 -0.13659,-0.34091 -0.2559,-0.47101 -0.26513,-0.28911 -0.01,0.18736 -0.36085,0.33073 -0.81052,0.33073 -0.61736,0 -0.79375,-0.1176 -0.79375,-0.52917 0,-0.29104 -0.13364,-0.52917 -0.29698,-0.52917 -0.19738,0 -0.17957,-0.14147 0.0531,-0.42182 0.29873,-0.35996 0.25498,-0.49671 -0.29834,-0.93239 -0.38905,-0.30634 -0.93924,-0.47347 -1.37548,-0.41783 -0.66166,0.0844 -0.69142,0.0533 -0.33073,-0.34521 0.21798,-0.24088 0.39634,-0.52886 0.39634,-0.63997 0,-0.41679 1.02232,-1.48385 1.1789,-1.2305 0.10651,0.17234 0.41093,0.17487 0.88099,0.007 0.59409,-0.21177 0.6468,-0.19859 0.30496,0.0763 -0.2273,0.18275 -0.48741,0.53008 -0.57802,0.77186 -0.13995,0.37345 -0.0508,0.40691 0.5926,0.22239 0.58416,-0.16754 0.79394,-0.12181 0.91742,0.19996 0.1302,0.3393 0.22019,0.35335 0.48213,0.0753 0.25322,-0.26882 0.25137,-0.36782 -0.009,-0.46317 -0.1819,-0.0667 -0.33073,-0.23891 -0.33073,-0.3827 0,-0.14379 -0.17969,-0.44112 -0.39931,-0.66074 -0.21961,-0.21962 -0.31907,-0.52912 -0.22101,-0.68779 0.10878,-0.17601 0.25724,-0.0751 0.38077,0.25884 0.29176,0.78871 0.89504,1.11311 0.70278,0.3779 -0.0916,-0.35018 -0.0456,-0.50681 0.11896,-0.40512 0.17012,0.10515 0.19912,-0.052 0.0793,-0.42964 -0.12874,-0.40563 -0.0956,-0.53772 0.10395,-0.41439 0.36702,0.22683 0.37293,-6e-5 0.0173,-0.66452 -0.19301,-0.36064 -0.47159,-0.4794 -0.92967,-0.39634 -0.62668,0.11364 -0.64954,0.07 -0.54564,-1.04226 0.0596,-0.63848 0.0162,-1.19644 -0.0965,-1.23991 -0.32914,-0.12695 -0.61348,-1.79883 -0.30592,-1.79883 0.1485,0 0.34478,0.121 0.43618,0.2689 0.0914,0.14789 0.27702,0.2004 0.41249,0.11668 0.13547,-0.0837 0.2463,-0.006 0.2463,0.17328 0,0.17903 0.20836,0.56064 0.46302,0.84802 0.33939,0.38299 0.37471,0.5534 0.13229,0.6382 -0.1819,0.0636 -0.33073,0.23185 -0.33073,0.37383 0,0.14199 0.11907,0.18457 0.26459,0.0946 0.15714,-0.0971 0.26458,0.21254 0.26458,0.76252 0,0.96948 0.35697,1.44995 0.68406,0.92071 0.12933,-0.20927 0.0709,-0.241 -0.18016,-0.0978 -0.30204,0.1723 -0.30916,0.14474 -0.038,-0.14722 0.27729,-0.29856 0.46714,-0.21301 1.12448,0.50668 0.43497,0.47624 0.79086,0.72674 0.79086,0.55667 0,-0.17008 0.1786,-0.24069 0.39688,-0.15693 0.24604,0.0944 0.39687,-0.001 0.39687,-0.25189 0,-0.2223 -0.0992,-0.34287 -0.22048,-0.26792 -0.12127,0.075 -0.22049,-0.0352 -0.22049,-0.24477 0,-0.28753 0.0866,-0.30919 0.35278,-0.0882 0.19403,0.16103 0.35278,0.46953 0.35278,0.68556 0,0.24044 0.15393,0.33372 0.39687,0.24049 0.29301,-0.11244 0.39688,0.0366 0.39688,0.56951 0,0.43525 0.21007,0.85299 0.52916,1.05227 0.29104,0.18176 0.52917,0.22093 0.52917,0.0871 0,-0.28115 0.50188,-0.24269 1.01524,0.0778 0.62152,0.38801 0.91459,-0.25021 0.71773,-1.56301 -0.10184,-0.67912 -0.24901,-1.17093 -0.32704,-1.0929 -0.078,0.078 -0.43191,-0.20282 -0.7864,-0.62411 -0.35449,-0.42129 -0.79745,-0.70729 -0.98436,-0.63557 -0.20961,0.0804 -0.50084,-0.27946 -0.75997,-0.93914 -0.23107,-0.58825 -0.31867,-1.06955 -0.19466,-1.06955 0.124,0 0.2928,0.21214 0.37509,0.47142 0.15892,0.50071 1.47354,0.77432 1.47354,0.30668 0,-0.33629 -1.29309,-1.50277 -1.89193,-1.70668 -0.37396,-0.12735 -0.52343,-0.42428 -0.8977,-1.7834 -0.0301,-0.10914 -0.0695,-0.24966 -0.0877,-0.31226 -0.0182,-0.0626 -0.3965,-0.01 -0.84069,0.1178 -0.62674,0.17975 -0.84178,0.14258 -0.96018,-0.16597 -0.0859,-0.22398 -0.32729,-0.33054 -0.55273,-0.24403 -0.31279,0.12003 -0.33472,0.0747 -0.10044,-0.20758 0.16484,-0.19862 0.21145,-0.4551 0.10357,-0.56995 -0.10788,-0.11486 0.0698,-0.0467 0.39489,0.15146 0.51365,0.31311 0.65099,0.30034 1.04889,-0.0976 0.32482,-0.32482 0.35628,-0.45785 0.10826,-0.45785 -0.20204,0 -0.28531,-0.1675 -0.19729,-0.39687 0.12842,-0.33468 -0.16246,-0.55072 -0.44531,-0.33073 -0.16715,0.13 -0.90665,-0.76228 -1.07726,-1.29983 -0.15318,-0.48261 -0.0867,-0.53086 0.56041,-0.40689 0.4038,0.0774 0.58536,0.19039 0.40345,0.2512 -0.1819,0.0608 -0.33072,0.23815 -0.33072,0.3941 0,0.15594 0.21828,0.086 0.48506,-0.15544 0.53671,-0.48571 0.64348,-1.12108 0.19844,-1.18082 -0.15765,-0.0212 -0.58429,-0.0854 -0.94809,-0.14262 -0.3638,-0.0573 -0.81255,-0.11934 -0.99723,-0.13791 -0.22271,-0.0224 -0.27987,-0.25649 -0.16975,-0.69523 0.12187,-0.48557 0.0604,-0.66146 -0.23124,-0.66146 -0.52668,0 -0.80321,-0.76968 -0.43565,-1.21257 0.16056,-0.19346 0.20726,-0.48874 0.10378,-0.65617 -0.13689,-0.22151 -0.24819,-0.20725 -0.40863,0.0524 -0.1842,0.29804 -0.27674,0.2963 -0.56224,-0.0106 -0.25538,-0.2745 -0.25817,-0.32015 -0.011,-0.18061 0.1819,0.10269 0.33073,0.0606 0.33073,-0.0935 0,-0.15411 -0.12708,-0.2802 -0.28241,-0.2802 -0.16863,0 -0.20963,-0.22933 -0.10176,-0.56919 0.14175,-0.44661 0.0915,-0.53498 -0.23328,-0.41035 -0.30324,0.11637 -0.37264,0.0386 -0.25952,-0.29069 0.14482,-0.42161 0.13165,-0.42177 -0.21191,-0.003 -0.30555,0.37282 -0.41934,0.38763 -0.68588,0.0893 -0.25127,-0.28125 -0.23961,-0.42405 0.0546,-0.66818 0.20576,-0.17077 0.52816,-0.23188 0.71643,-0.1358 0.18828,0.0961 0.1042,-0.0288 -0.18684,-0.2774 -0.47004,-0.40156 -0.47501,-0.43332 -0.0445,-0.28419 0.26656,0.0923 0.60101,0.16787 0.74322,0.16787 0.14221,0 0.1736,0.13746 0.0698,0.30547 -0.11432,0.18497 -0.0728,0.23381 0.10512,0.12381 0.40677,-0.25139 0.10859,-0.90495 -0.50117,-1.09848 -0.55274,-0.17544 -0.67051,-0.91125 -0.21824,-1.36352 0.20559,-0.20559 0.0799,-0.47802 -0.44505,-0.9648 -0.40234,-0.37308 -0.82892,-0.61813 -0.94794,-0.54457 -0.29326,0.18124 -0.26638,-0.20451 0.0482,-0.69124 0.21746,-0.33649 0.2571,-0.32406 0.26053,0.0818 0.002,0.29388 0.12196,0.40576 0.30952,0.28985 0.18231,-0.11268 0.23391,-0.073 0.12797,0.0984 -0.0976,0.15795 -0.0565,0.36196 0.0914,0.45337 0.14789,0.0914 0.26889,-0.003 0.26889,-0.20992 0,-0.24856 0.23463,-0.35035 0.69185,-0.30016 0.89151,0.0979 1.46934,-0.12721 1.24761,-0.48598 -0.1108,-0.17927 -0.006,-0.21745 0.28681,-0.10492 0.58949,0.2262 2.00707,-1.14 2.00707,-1.93432 0,-0.31083 -0.10659,-0.49926 -0.23686,-0.41875 -0.27574,0.17042 -0.62412,-0.58608 -0.42114,-0.9145 0.0756,-0.12233 7.8e-4,-0.3069 -0.16628,-0.41015 -0.16705,-0.10324 -0.41304,0.008 -0.54663,0.2463 -0.26357,0.47098 -1.92658,0.61341 -2.18978,0.18755 -0.0838,-0.13557 0.0961,-0.42052 0.39982,-0.63323 0.40316,-0.28238 0.4579,-0.42553 0.20287,-0.5305 -0.19211,-0.0791 -0.0648,-0.12154 0.283,-0.0944 0.70034,0.0547 0.93639,-0.28684 0.58361,-0.84441 -0.14517,-0.22945 -0.36428,-0.2814 -0.59101,-0.14013 -0.53423,0.33287 -1.5311,0.33296 -1.47092,1.3e-4 0.0288,-0.15902 0.26064,-0.37459 0.5153,-0.47904 0.25466,-0.10445 0.46302,-0.31281 0.46302,-0.46302 0,-0.43465 -0.85253,-0.31596 -1.77634,0.24732 -0.58972,0.35957 -0.9063,0.42782 -1.03306,0.22271 -0.11778,-0.19056 -0.0506,-0.22698 0.18883,-0.1024 0.20439,0.10633 0.10878,-0.0391 -0.21245,-0.32315 -0.32124,-0.28407 -0.49983,-0.61663 -0.39688,-0.73904 0.10296,-0.12241 0.009,-0.0939 -0.20969,0.0634 -0.21828,0.15727 -0.57546,0.28346 -0.79375,0.28042 -0.21828,-0.003 -0.64487,0.0744 -0.94798,0.17216 -0.41849,0.13492 -0.61922,0.0282 -0.83413,-0.44349 -0.22377,-0.49111 -0.20532,-0.62116 0.0881,-0.62116 0.20411,0 0.37111,0.15875 0.37111,0.35278 0,0.19403 0.14883,0.34882 0.33073,0.34397 0.44156,-0.0117 1.52135,-0.9276 1.52135,-1.29037 0,-0.15858 0.11906,-0.28832 0.26458,-0.28832 0.14553,0 0.26459,0.11906 0.26459,0.26458 0,0.14552 0.1389,0.26458 0.30868,0.26458 0.16977,0 0.22732,-0.0814 0.12788,-0.18079 -0.0994,-0.0994 0.17706,-0.33126 0.61444,-0.51516 0.5986,-0.2517 0.75308,-0.45232 0.62479,-0.8114 -0.27123,-0.75913 -0.65487,-1.14659 -0.9529,-0.96239 -0.15152,0.0936 -0.19824,0.0453 -0.10383,-0.10749 0.0944,-0.15275 -0.0138,-0.3489 -0.24048,-0.43588 -0.22667,-0.087 -0.33016,-0.29076 -0.22999,-0.45285 0.12788,-0.2069 0.2499,-0.18776 0.4096,0.0643 0.26512,0.41842 0.30652,0.19029 0.075,-0.41313 -0.0883,-0.23019 -0.27395,-0.41852 -0.41249,-0.41852 -0.13854,0 -0.16876,0.13451 -0.0672,0.29891 0.11153,0.18045 0.0411,0.25104 -0.17767,0.17811 -0.40964,-0.13655 -0.63652,-1.79993 -0.24551,-1.79993 0.13919,0 0.18604,-0.20836 0.10412,-0.46302 -0.12572,-0.39083 -0.10443,-0.40114 0.13655,-0.0662 0.24678,0.34306 0.28604,0.33409 0.28954,-0.0661 0.002,-0.25467 0.13014,-0.46302 0.28425,-0.46302 0.30217,0 0.13072,0.3968 -0.47865,1.1078 -0.47974,0.55975 -0.18765,1.08309 0.4853,0.8695 0.46464,-0.14747 0.63977,0.0916 0.53823,0.73467 -0.0172,0.10914 0.13089,0.19844 0.32916,0.19844 0.2275,0 0.33371,-0.24403 0.28788,-0.66146 -0.0793,-0.7222 0.2616,-0.90056 0.50565,-0.26458 0.21514,0.56065 0.63209,0.4924 0.83158,-0.13613 0.093,-0.29316 0.27966,-0.46473 0.4147,-0.38126 0.13504,0.0835 0.24553,-0.0211 0.24553,-0.23244 0,-0.2113 -0.20502,-0.46285 -0.4556,-0.55901 -0.35361,-0.13569 -0.37822,-0.22266 -0.10993,-0.38848 0.25242,-0.156 0.18514,-0.25562 -0.24936,-0.36925 -0.50356,-0.13168 -0.5427,-0.21868 -0.25455,-0.56587 0.22823,-0.275 0.24312,-0.41027 0.0452,-0.41027 -0.16275,0 -0.24551,-0.26724 -0.18435,-0.59531 0.061,-0.32742 0.11982,-0.6893 0.13063,-0.80418 0.0108,-0.11488 0.18466,-0.0554 0.38632,0.13229 0.20167,0.18764 0.31575,0.6237 0.25351,0.96903 -0.094,0.52159 -0.0329,0.59274 0.36094,0.42036 0.26076,-0.11414 0.74199,-0.20091 1.06941,-0.19284 0.68506,0.0169 0.70073,-0.026 0.29482,-0.80664 -0.27992,-0.53835 -0.25174,-0.53306 0.41157,0.0773 0.54453,0.50108 0.66902,0.5431 0.52915,0.17859 -0.12505,-0.32586 -0.0669,-0.46045 0.18375,-0.42545 0.75112,0.10488 0.91703,-0.0309 0.97551,-0.79835 0.0495,-0.6501 -0.0212,-0.75793 -0.40674,-0.62039 -0.25669,0.0916 -0.61032,0.2773 -0.78584,0.41276 -0.36316,0.28026 -0.95333,0.018 -0.7392,-0.32843 0.18874,-0.30539 -0.19599,-0.51847 -1.06614,-0.59049 -0.3941,-0.0326 -0.77178,-0.20324 -0.83928,-0.37916 -0.0675,-0.17592 -0.29048,-0.25549 -0.49549,-0.17682 -0.20501,0.0787 -0.44683,-0.05 -0.53738,-0.28598 -0.0905,-0.23595 -0.35944,-0.39713 -0.59754,-0.35818 -0.30902,0.0506 -0.40997,-0.0951 -0.35275,-0.50909 0.0602,-0.43515 -0.0482,-0.57026 -0.43395,-0.5412 -0.30573,0.023 -0.46034,0.17887 -0.38144,0.38449 0.0875,0.22809 -0.01,0.29118 -0.28529,0.18537 -0.22988,-0.0882 -0.4058,-0.23839 -0.39093,-0.33373 0.0575,-0.36853 -0.37906,-1.87137 -0.53779,-1.85146 -0.56801,0.0712 -0.76326,-0.10319 -0.6406,-0.57225 0.0763,-0.29181 0.007,-0.689721 -0.15477,-0.884236 -0.16143,-0.194515 -0.22411,-0.423072 -0.13927,-0.507905 0.21678,-0.216786 -0.48658,-0.08996 -0.88644,0.159838 -0.1819,0.113637 -0.33073,0.107599 -0.33073,-0.01342 0,-0.121017 0.42017,-0.446307 0.93371,-0.722866 0.67725,-0.364726 0.84076,-0.566181 0.59531,-0.733466 -0.23776,-0.162043 -0.18102,-0.209402 0.19077,-0.159248 0.29104,0.03926 0.678,-0.02197 0.8599,-0.136067 0.1819,-0.114097 0.33073,-0.101257 0.33073,0.02853 0,0.28051 0.79457,0.254075 1.27427,-0.04239 0.27501,-0.169968 0.27413,-0.288034 -0.005,-0.626105 -0.30409,-0.368747 -0.27715,-0.381246 0.23434,-0.108736 0.6977,0.37172 0.96123,0.393183 0.7563,0.0616 -0.0837,-0.135466 -0.0231,-0.326103 0.13471,-0.423638 0.15782,-0.09753 0.22303,-0.343887 0.14491,-0.547449 -0.0781,-0.203562 0.003,-0.370351 0.1804,-0.370643 0.17936,-2.95e-4 0.35171,-0.411208 0.38841,-0.926041 0.0426,-0.597388 -0.0512,-0.926948 -0.26458,-0.929563 -0.22017,-0.0027 -0.19803,-0.08971 0.0663,-0.260532 0.21829,-0.141064 0.29345,-0.258303 0.16704,-0.260532 -0.12641,-0.0022 0.0815,-0.412226 0.462,-0.911105 0.39896,-0.523059 0.62429,-1.083107 0.53226,-1.322917 -0.0889,-0.231565 -0.0229,-0.415863 0.14893,-0.415863 0.16968,0 0.25087,-0.09326 0.18042,-0.207242 -0.0704,-0.113983 0.14818,-0.752222 0.48583,-1.418308 0.34965,-0.689764 0.52591,-1.353447 0.40948,-1.541839 -0.11244,-0.181924 -0.14107,-0.573046 -0.0636,-0.869158 0.12155,-0.464792 0.0231,-0.433663 -0.72049,0.227726 -0.74969,0.66686 -1.62331,1.944699 -1.60719,2.350841 0.0221,0.556823 -0.0202,0.67968 -0.19639,0.570767 -0.11097,-0.06858 -0.49792,0.03924 -0.8599,0.239593 -0.36197,0.200357 -0.53907,0.370328 -0.39355,0.377713 0.14552,0.0074 0.10805,0.112684 -0.0832,0.233999 -0.50547,0.320532 -1.63655,0.03894 -1.63655,-0.407426 0,-0.209905 -0.11906,-0.308061 -0.26458,-0.218124 -0.14552,0.08994 -0.26458,0.01898 -0.26458,-0.157684 0,-0.200601 -0.19635,-0.143515 -0.52293,0.152038 -0.28761,0.260283 -0.44874,0.606158 -0.35806,0.768611 0.095,0.170147 0.0165,0.157824 -0.18515,-0.02906 -0.42541,-0.39431 -1.09101,0.04337 -0.88447,0.581599 0.16392,0.427176 -0.32735,0.78547 -0.56027,0.408609 -0.0914,-0.147895 -0.28525,-0.2689 -0.43077,-0.2689 -0.14552,0 -0.19184,0.117699 -0.10293,0.261553 0.0971,0.157125 -0.0287,0.190166 -0.31512,0.08275 -0.43401,-0.162768 -0.44118,-0.134219 -0.0799,0.318403 0.23089,0.289255 0.25856,0.4141 0.0661,0.298506 -0.2059,-0.123702 -0.33073,-0.0489 -0.33073,0.19818 0,0.218281 0.12619,0.474863 0.28042,0.570181 0.17721,0.109523 0.10418,0.306928 -0.19844,0.536367 -0.32967,0.249954 -0.367,0.365682 -0.11982,0.371475 0.20913,0.0049 0.29545,0.174124 0.20674,0.40529 -0.1351,0.352071 0.24073,0.528249 0.93096,0.436412 0.27384,-0.03643 0.0922,0.726346 -0.25587,1.074391 -0.22025,0.220245 -0.31482,0.226064 -0.31482,0.01937 0,-0.162498 0.14296,-0.343106 0.3177,-0.40135 0.24064,-0.08022 0.23632,-0.156189 -0.0178,-0.313253 -0.22059,-0.136329 -0.38503,-0.018 -0.48007,0.345458 -0.0795,0.304046 -0.25203,0.486393 -0.38339,0.405214 -0.13135,-0.08118 -0.15894,-0.27683 -0.0613,-0.43478 0.099,-0.160251 0.0557,-0.211929 -0.098,-0.116922 -0.41131,0.2542 -1.00221,-0.601591 -0.9086,-1.315907 0.0546,-0.416556 -0.0567,-0.635694 -0.33395,-0.657748 -0.81814,-0.06507 -0.92297,-0.103995 -1.26248,-0.468763 -0.18918,-0.20325 -0.20919,-0.294212 -0.0445,-0.202139 0.17151,0.09588 0.47983,-0.198425 0.72158,-0.688789 0.32713,-0.66355 0.42764,-0.737131 0.44672,-0.327028 0.0239,0.514704 0.0301,0.515184 0.22497,0.01756 0.13773,-0.351698 0.26084,-0.413722 0.39389,-0.198438 0.10645,0.172242 0.12505,0.424003 0.0413,0.559468 -0.0837,0.135466 -0.0397,0.315869 0.0979,0.400897 0.1428,0.08826 0.20803,-0.178125 0.15201,-0.62078 -0.0668,-0.528177 0.035,-0.82645 0.31936,-0.93558 0.3781,-0.145092 0.37861,-0.20336 0.005,-0.617708 -0.59031,-0.655428 -0.65389,-1.169438 -0.15512,-1.254128 0.31647,-0.05374 0.39323,0.07087 0.28905,0.469248 -0.0961,0.367676 -0.0432,0.481438 0.16441,0.353134 0.16845,-0.104104 0.30626,-0.06319 0.30626,0.09092 0,0.154109 0.14342,0.250433 0.31871,0.214052 0.17528,-0.03638 0.32411,0.07276 0.33073,0.242535 0.007,0.169774 0.12041,0.407899 0.25288,0.529167 0.13994,0.128101 0.16111,0.08191 0.0505,-0.110243 -0.11067,-0.192305 -0.0454,-0.334097 0.15602,-0.338775 0.21116,-0.0049 0.16345,-0.114523 -0.12224,-0.280845 -0.25772,-0.150039 -0.41386,-0.36135 -0.34697,-0.46958 0.0669,-0.10823 0.0251,-0.624601 -0.0928,-1.147493 -0.11794,-0.522891 -0.11245,-1.111632 0.0122,-1.308312 0.2212,-0.349061 0.26614,-0.300261 0.33393,0.362655 0.0182,0.177859 0.33073,0.318268 0.69453,0.312021 0.36449,-0.0063 0.63177,-0.151447 0.59532,-0.323379 -0.0364,-0.171612 0.0827,-0.313845 0.26458,-0.316073 0.24763,-0.003 0.24206,-0.06026 -0.0222,-0.227763 -0.28415,-0.18012 -0.27126,-0.255046 0.0661,-0.38452 0.2404,-0.09225 0.42079,-0.02334 0.42311,0.161618 0.003,0.210079 0.0888,0.18854 0.24713,-0.06182 0.13369,-0.211334 0.19123,-0.468121 0.12787,-0.570638 -0.0634,-0.102518 0.12309,-0.124082 0.41434,-0.04792 0.45504,0.118996 0.52953,0.0084 0.52953,-0.786028 0,-0.851545 -0.52359,-1.700435 -0.84844,-1.375579 -0.0761,0.07606 -0.38566,0.185932 -0.688,0.244157 -0.37025,0.0713 -0.50654,-0.0066 -0.41747,-0.238738 0.17961,-0.468054 -0.67078,-0.75981 -1.12234,-0.385055 -0.26593,0.22071 -0.36334,0.221933 -0.36334,0.0046 0,-0.163339 0.11907,-0.29698 0.26459,-0.29698 0.14552,0 0.26458,-0.135703 0.26458,-0.301561 0,-0.165859 0.15026,-0.433749 0.3339,-0.595313 0.18364,-0.161563 0.29002,-0.271143 0.23639,-0.24351 -0.18782,0.09678 -0.77821,-0.581255 -0.66671,-0.765678 0.19546,-0.323309 -0.21335,-1.536822 -0.46529,-1.381119 -0.13237,0.08181 -0.17217,0.259581 -0.0885,0.395046 0.0837,0.135466 0.04,0.246301 -0.0971,0.246301 -0.13713,0 -0.30608,-0.216999 -0.37544,-0.48222 -0.0889,-0.340096 0.0124,-0.472014 0.34394,-0.447591 0.70162,0.05169 1.29798,0.647934 1.11777,1.11755 -0.1073,0.279602 -0.0379,0.371606 0.21416,0.283936 0.20509,-0.07133 0.33516,-0.337653 0.28905,-0.591821 -0.0497,-0.274051 0.031,-0.391123 0.19844,-0.287665 0.15525,0.09595 0.28228,0.0016 0.28228,-0.209725 0,-0.2113 -0.18478,-0.455088 -0.41062,-0.541751 -0.23546,-0.09035 -0.34166,-0.046 -0.24897,0.103985 0.0889,0.143854 0.0426,0.261552 -0.10293,0.261552 -0.522,0 -0.5981,-0.564505 -0.16519,-1.225216 0.24245,-0.370029 0.37178,-0.741824 0.28739,-0.826212 -0.0844,-0.08439 -0.15343,-0.02841 -0.15343,0.124389 0,0.152802 -0.24154,0.340987 -0.53676,0.418188 -0.29522,0.0772 -0.51925,0.239916 -0.49784,0.361588 0.16357,0.929533 -0.40969,1.221558 -0.68641,0.349671 -0.0931,-0.293154 -0.28545,-0.461148 -0.42756,-0.373319 -0.16405,0.101394 -0.15241,0.28737 0.0319,0.509453 0.211,0.254237 0.20958,0.399639 -0.005,0.532374 -0.16251,0.100435 -0.22512,0.365934 -0.13914,0.589996 0.21403,0.557749 -0.0953,1.437847 -0.43213,1.229649 -0.17663,-0.10916 -0.14911,-0.246258 0.0775,-0.386331 0.19322,-0.119418 0.28251,-0.285932 0.19841,-0.37003 -0.23124,-0.231239 -1.04035,0.145611 -0.8777,0.408794 0.0779,0.126066 -0.27995,0.213361 -0.79527,0.193988 -0.86015,-0.03234 -1.36867,-0.45138 -0.6062,-0.499537 0.25297,-0.01598 0.25034,-0.05314 -0.0112,-0.158061 -0.23653,-0.0949 -0.12583,-0.322825 0.35923,-0.739631 0.44938,-0.38614 0.59589,-0.667497 0.40804,-0.783595 -0.1612,-0.09963 -0.3923,-0.119817 -0.51357,-0.04487 -0.12127,0.07495 -0.22049,-0.03066 -0.22049,-0.234677 0,-0.269521 0.12503,-0.30403 0.45729,-0.126213 0.31711,0.169714 0.55287,0.129562 0.7691,-0.130985 0.24605,-0.296462 0.18722,-0.544255 -0.27887,-1.174676 -0.32488,-0.439427 -0.70922,-0.725706 -0.85409,-0.636175 -0.15975,0.09874 -0.17866,0.0257 -0.0481,-0.185631 0.16681,-0.269906 0.31902,-0.220362 0.6755,0.219871 0.37838,0.467281 0.48734,0.497474 0.61305,0.169877 0.0841,-0.219126 0.5148,-0.470791 0.95713,-0.559258 0.64434,-0.128868 0.74435,-0.233009 0.50301,-0.523801 -0.16567,-0.199624 -0.43547,-0.36113 -0.59955,-0.358902 -0.16409,0.0022 -0.11974,0.119468 0.0985,0.260532 0.32342,0.209014 0.2867,0.263351 -0.19844,0.293605 -0.32742,0.02042 -0.74414,0.05973 -0.92604,0.08736 -0.53977,0.08199 -0.81111,-0.165834 -0.43564,-0.397885 0.27919,-0.172549 0.25839,-0.314876 -0.10463,-0.716002 -0.24919,-0.275355 -0.37344,-0.58028 -0.27611,-0.677612 0.0973,-0.09733 0.031,-0.176966 -0.14733,-0.176966 -0.17836,0 -0.25071,-0.119062 -0.16077,-0.264583 0.0899,-0.145521 -0.0221,-0.264583 -0.24897,-0.264583 -0.22687,0 -0.41249,-0.116116 -0.41249,-0.258035 0,-0.166194 0.24695,-0.164145 0.69382,0.0058 0.64081,0.243636 0.68152,0.217867 0.53278,-0.337278 -0.0886,-0.330587 -0.16267,-0.92849 -0.16465,-1.328672 -0.007,-1.347665 -1.33838,-0.633356 -1.53334,0.822474 -0.0514,0.383795 -0.25814,0.789974 -0.45943,0.90262 -0.20128,0.112646 -0.54956,0.388398 -0.77395,0.612783 -0.36359,0.363598 -0.36501,0.491037 -0.0131,1.171648 0.43871,0.848362 0.53148,1.41069 0.13033,0.789954 -0.18943,-0.293127 -0.25754,-0.305478 -0.26053,-0.04725 -0.002,0.192295 -0.17007,0.515641 -0.37297,0.718547 -0.25515,0.255148 -0.33476,0.800089 -0.25816,1.767039 0.0654,0.825868 0.0181,1.258893 -0.11554,1.057963 -0.26643,-0.400464 -0.9689,1.645235 -0.70923,2.06539 0.0881,0.142527 0.0568,0.259141 -0.0695,0.259141 -0.12629,0 -0.46074,0.187423 -0.74322,0.416496 -0.28247,0.229072 -0.34931,0.331562 -0.14853,0.227754 0.24428,-0.126298 0.32087,-0.06714 0.23151,0.178817 -0.0734,0.202157 -0.26749,0.337792 -0.4312,0.301412 -0.16371,-0.03638 -0.29766,0.112448 -0.29766,0.330729 0,0.218281 -0.13301,0.36711 -0.29558,0.330729 -0.16257,-0.03638 -0.33063,0.142214 -0.37347,0.396875 -0.0512,0.304408 0.0925,0.463021 0.41958,0.463021 0.35487,0 0.44912,0.125939 0.32883,0.439404 -0.13377,0.348611 -0.05,0.40838 0.40555,0.289258 0.31578,-0.08258 0.51372,-0.05236 0.43985,0.06717 -0.0739,0.119521 0.0153,0.285912 0.19807,0.369758 0.18281,0.08385 0.0347,0.0803 -0.32908,-0.0079 -1.0712,-0.259638 -1.19405,-0.248815 -1.12448,0.09906 0.0364,0.181901 -0.0529,0.330729 -0.19844,0.330729 -0.34314,0 -1.32291,0.979769 -1.32291,1.322917 0,0.145521 0.18562,0.264583 0.41249,0.264583 0.22687,0 0.3389,0.119063 0.24897,0.264583 -0.0902,0.145879 0.11057,0.272108 0.4474,0.281355 l 0.61093,0.01677 -0.61747,0.247483 c -0.81702,0.327461 -0.61057,0.840382 0.48382,1.202048 0.8123,0.268444 0.84324,0.316647 0.377,0.587267 -0.44792,0.259987 -0.40417,0.295769 0.37036,0.302864 0.75955,0.007 0.86602,0.08854 0.78747,0.603358 -0.0499,0.327422 -0.24568,0.562597 -0.43494,0.522611 -0.18926,-0.03999 -0.26871,0.04931 -0.17654,0.198438 0.0922,0.149126 0.0233,0.271139 -0.15311,0.271139 -0.17638,0 -0.0461,0.238125 0.28945,0.529166 0.33557,0.291042 0.45828,0.529167 0.27267,0.529167 -0.26335,0 -0.25771,0.09731 0.0257,0.443083 0.30563,0.372918 0.24433,0.365756 -0.38706,-0.04522 -0.62558,-0.407202 -0.78801,-0.427096 -0.97795,-0.11977 -0.18673,0.302144 -0.25927,0.286459 -0.4026,-0.08707 -0.0962,-0.250584 -0.28818,-0.455606 -0.42672,-0.455606 -0.13854,0 -0.17097,0.130941 -0.0721,0.29098 0.11803,0.190972 -0.0256,0.181043 -0.41785,-0.02889 -0.6895,-0.369009 -2.14261,-0.525669 -1.94749,-0.209959 0.0722,0.116848 -0.0543,0.212451 -0.28119,0.212451 -0.22687,0 -0.41249,0.126089 -0.41249,0.280198 0,0.154109 -0.10553,0.21498 -0.23451,0.135268 -0.12897,-0.07971 -0.29646,0.09202 -0.3722,0.381625 -0.0757,0.289606 -0.0297,0.459834 0.10222,0.378284 0.13195,-0.08155 0.2399,-0.0083 0.2399,0.162771 0,0.19302 0.26341,0.26069 0.69419,0.178341 0.52663,-0.100671 0.72602,-0.01097 0.82607,0.371606 0.11029,0.421746 0.19988,0.449251 0.54723,0.168004 0.33676,-0.272681 0.3767,-0.27203 0.21107,0.0034 -0.15126,0.251596 -0.0273,0.307657 0.47777,0.21607 0.552,-0.100097 0.71283,-9.35e-4 0.84362,0.520151 0.0889,0.354104 0.27477,0.643825 0.4131,0.643825 0.13834,0 0.18302,-0.110835 0.0993,-0.246301 -0.0837,-0.135465 -0.0437,-0.313375 0.089,-0.395355 0.25695,-0.158806 0.68675,0.600508 0.58364,1.031107 -0.0339,0.141437 0.17353,0.04438 0.46089,-0.215674 0.39094,-0.353798 0.57268,-0.391593 0.72191,-0.150132 0.1278,0.206786 0.0891,0.254473 -0.10789,0.132758 -0.17203,-0.106319 -0.37722,-0.0078 -0.46606,0.223703 -0.0873,0.227504 -0.33162,0.413644 -0.54292,0.413644 -0.2113,0 -0.31444,0.112839 -0.22921,0.250753 0.0852,0.137914 -0.0566,0.21396 -0.31511,0.168991 -0.25855,-0.04497 -0.82727,0.07495 -1.26384,0.266481 -0.43656,0.191533 -0.70026,0.353611 -0.586,0.360175 0.11426,0.0066 0.0928,0.226708 -0.0477,0.489211 -0.29478,0.550818 0.10286,1.430953 0.43526,0.963373 0.13044,-0.18349 0.35418,-0.11839 0.65302,0.19001 0.42974,0.44349 0.42974,0.48492 0,0.75752 -0.32735,0.20765 -0.36202,0.32727 -0.12386,0.42735 0.51476,0.21632 0.38887,0.62923 -0.13229,0.43392 -0.38825,-0.14551 -0.40998,-0.10819 -0.13459,0.23108 0.35321,0.43514 0.19602,0.7528 -0.37253,0.7528 -0.19403,0 -0.35278,-0.17859 -0.35278,-0.39687 0,-0.45589 -0.41563,-0.53005 -0.66939,-0.11945 -0.11787,0.19072 -0.28453,0.1836 -0.5332,-0.0228 -0.44193,-0.36677 -1.00254,-0.0731 -0.81137,0.4251 0.17021,0.44358 -0.26311,0.7612 -0.50485,0.37005 -0.12109,-0.19592 -0.28785,-0.18737 -0.54745,0.0281 -0.543,0.45065 -0.46742,0.62267 0.42088,0.95797 0.56091,0.21172 0.74707,0.42261 0.63374,0.71794 -0.0883,0.22999 -0.25689,0.35858 -0.37473,0.28575 -0.11785,-0.0728 -0.27456,0.0172 -0.34826,0.19996 -0.0796,0.19743 -0.14249,0.14102 -0.15489,-0.13893 -0.0163,-0.36797 -0.21773,-0.45806 -0.91861,-0.41086 -0.61767,0.0416 -0.85605,0.16905 -0.76415,0.40854 0.0735,0.19144 -0.004,0.51357 -0.17166,0.71585 -0.24409,0.29411 -0.15728,0.42174 0.43342,0.6372 0.40626,0.14818 0.58279,0.27882 0.3923,0.29031 -0.19048,0.0115 -0.27483,0.13659 -0.18744,0.278 0.0874,0.14141 -0.025,0.53787 -0.24989,0.88102 -0.44079,0.67273 -0.31603,1.02857 0.28038,0.79971 0.2268,-0.087 0.37101,0.029 0.37101,0.29843 0,0.24243 0.121,0.36601 0.2689,0.2746 0.14789,-0.0914 0.18903,-0.29542 0.0914,-0.45337 -0.11755,-0.1902 -0.052,-0.20887 0.19412,-0.0553 0.51636,0.32221 1.03307,0.37597 1.03307,0.1075 0,-0.1236 0.22987,-0.20741 0.51083,-0.18625 0.28096,0.0212 0.45762,0.1246 0.39256,0.22986 -0.065,0.10526 0.005,0.26736 0.15494,0.36024 0.15027,0.0929 0.19517,0.29513 0.0998,0.44948 -0.10075,0.16301 -0.0194,0.22465 0.19412,0.14708 0.20216,-0.0734 0.34441,-0.24765 0.31611,-0.3871 -0.0283,-0.13946 0.1153,-0.25356 0.31909,-0.25356 0.2038,0 0.3143,0.091 0.24557,0.2022 -0.0687,0.11121 -0.004,0.27699 0.14393,0.36839 0.1479,0.0914 0.2689,-0.007 0.2689,-0.21799 0,-0.42687 0.70208,-0.81322 1.34046,-0.73765 0.44056,0.0522 1.51557,-0.96446 1.32419,-1.25228 -0.0624,-0.0939 0.0864,-0.20915 0.33073,-0.2562 0.24431,-0.047 0.4442,0.0422 0.4442,0.19843 0,0.15619 0.20836,0.28216 0.46303,0.27994 0.39569,-0.004 0.40531,-0.0413 0.0661,-0.26054 -0.21828,-0.14106 -0.26262,-0.2583 -0.0985,-0.26053 0.68788,-0.009 0.78545,0.66313 0.1804,1.24327 -0.33607,0.32222 -0.61103,0.45647 -0.61103,0.29833 0,-0.17719 -0.17178,-0.14818 -0.44766,0.0756 -0.30418,0.24674 -0.38398,0.25712 -0.24897,0.0324 0.12449,-0.20721 0.0471,-0.33073 -0.20724,-0.33073 -0.32368,0 -0.35498,0.13404 -0.15446,0.66146 0.13832,0.3638 0.1949,0.67634 0.12574,0.69453 -0.0691,0.0182 -0.23138,0.048 -0.3605,0.0662 -0.12911,0.0182 -0.49537,0.33073 -0.8139,0.69453 -0.31854,0.3638 -0.50353,0.51263 -0.41109,0.33073 0.10039,-0.19756 -0.004,-0.33073 -0.26004,-0.33073 -0.23546,0 -0.35452,0.11906 -0.26458,0.26458 0.0899,0.14552 0.0502,0.26459 -0.0884,0.26459 -0.13854,0 -0.32807,-0.19851 -0.42117,-0.44112 -0.12329,-0.32129 -0.24847,-0.36192 -0.46083,-0.14955 -0.21237,0.21236 -0.46509,0.17786 -0.93035,-0.12699 -0.35133,-0.2302 -0.61884,-0.31173 -0.59447,-0.18117 0.11599,0.62135 -0.0438,1.44348 -0.25521,1.31284 -0.13028,-0.0805 -0.30751,0.0377 -0.39385,0.26271 -0.10568,0.2754 -0.0499,0.34723 0.17071,0.21978 0.18024,-0.10412 2.8e-4,0.12214 -0.3999,0.5028 -0.40018,0.38065 -0.72761,0.81684 -0.72761,0.96931 0,0.15247 -0.18415,0.27722 -0.40922,0.27722 -0.35077,0 -0.34133,0.0902 0.0661,0.63147 0.3207,0.426 0.66908,0.5965 1.07069,0.52399 0.45148,-0.0815 0.59531,0.0179 0.59531,0.41125 0,0.2853 0.11906,0.59231 0.26458,0.68225 0.14552,0.0899 0.26459,-0.0221 0.26459,-0.24897 0,-0.22687 0.0989,-0.41249 0.21987,-0.41249 0.12093,0 0.37542,-0.29064 0.56553,-0.64586 l 0.34566,-0.64587 0.45833,0.56602 0.45833,0.56601 0.18459,-0.58161 c 0.20431,-0.64373 0.56179,-0.76059 0.76746,-0.25088 0.0822,0.20364 0.14148,0.1588 0.15434,-0.11667 0.0115,-0.24608 0.13859,-0.52015 0.28244,-0.60906 0.14789,-0.0914 0.19553,0.0104 0.10964,0.23423 -0.10557,0.27511 0.008,0.38387 0.37084,0.35651 0.3102,-0.0234 0.46927,-0.17875 0.39122,-0.38214 -0.0724,-0.18852 0.007,-0.34276 0.17697,-0.34276 0.16968,0 0.23372,-0.12101 0.14232,-0.2689 -0.0914,-0.1479 -0.25922,-0.21141 -0.37292,-0.14113 -0.24462,0.15118 -0.1861,-0.79771 0.10097,-1.63752 0.11137,-0.32578 0.29452,-0.53545 0.40701,-0.46593 0.11249,0.0695 0.35165,-0.0509 0.53148,-0.26756 0.26969,-0.32496 0.24018,-0.39467 -0.16846,-0.39801 -0.40145,-0.003 -0.42303,-0.0499 -0.11377,-0.24552 0.26078,-0.165 0.49742,-0.10088 0.74723,0.20248 0.20107,0.24418 0.27882,0.27674 0.17278,0.0724 -0.12215,-0.23544 -0.087,-0.30624 0.0958,-0.19322 0.4431,0.27385 0.28745,1.19631 -0.1721,1.01997 -0.24879,-0.0955 -0.31811,-0.0381 -0.19485,0.16136 0.10522,0.17025 0.0652,0.30955 -0.0889,0.30955 -0.15411,0 -0.2802,0.29765 -0.2802,0.66145 0,0.36381 0.14556,0.66146 0.32346,0.66146 0.1779,0 0.0568,0.18674 -0.26901,0.41498 -0.32586,0.22824 -0.52985,0.5163 -0.45332,0.64013 0.0765,0.12383 -0.0375,0.40178 -0.25335,0.61766 -0.34696,0.34695 -0.34564,0.41049 0.0113,0.54746 0.2301,0.0883 0.33427,0.0424 0.24217,-0.10659 -0.0889,-0.14386 0.0495,-0.26155 0.30753,-0.26155 0.43253,0 0.43569,0.0335 0.0405,0.42867 -0.3867,0.3867 -0.50716,0.38952 -1.2301,0.0289 -0.648,-0.32327 -0.82694,-0.33328 -0.93476,-0.0523 -0.0733,0.19111 -0.40851,0.38687 -0.74483,0.435 -0.45568,0.0652 -0.59543,0.239 -0.54846,0.68198 0.0464,0.43803 -0.0754,0.59446 -0.46303,0.59446 -0.73411,0 -0.65675,0.48096 0.13542,0.84189 0.58829,0.26805 0.72557,0.52933 0.635,1.20863 -0.0146,0.10914 -0.13362,0.16867 -0.26459,0.13229 -0.13097,-0.0364 -0.23812,0.0365 -0.23812,0.16206 0,0.12551 -0.29227,0.19611 -0.64949,0.1569 -0.35722,-0.0392 -0.78852,0.0962 -0.95844,0.30097 -0.24669,0.29724 -0.20911,0.37388 0.18647,0.38031 0.46322,0.008 0.46532,0.0256 0.0324,0.27773 -0.61575,0.35864 -0.58868,0.77255 0.0505,0.77255 0.28245,0 0.59964,0.1393 0.70486,0.30955 0.12788,0.20692 0.0481,0.25461 -0.2405,0.14385 -0.23749,-0.0911 -0.50217,-0.0518 -0.58818,0.0873 -0.086,0.13916 -0.0118,0.25302 0.16482,0.25302 0.199,0 0.13845,0.20195 -0.15915,0.53079 -0.57907,0.63987 -0.38038,0.94431 0.35829,0.54898 0.66932,-0.35821 0.8338,-0.35936 0.8338,-0.006 0,0.15411 -0.11196,0.21101 -0.24881,0.12643 -0.24798,-0.15326 -1.33869,0.83679 -1.33869,1.21515 0,0.10949 0.12485,0.27624 0.27744,0.37055 0.18651,0.11527 0.16484,0.31044 -0.0662,0.59557 -0.25755,0.31792 -0.26077,0.37436 -0.0129,0.22541 0.40246,-0.24179 0.42063,-0.0361 0.0568,0.64368 -0.33317,0.62252 -0.20783,0.63455 0.88234,0.0847 0.90454,-0.45624 0.78063,-0.27654 -0.44569,0.6464 -0.41981,0.31595 -0.64728,0.57445 -0.50549,0.57445 0.47557,0 0.83723,1.16385 0.46864,1.50815 -0.18376,0.17166 -0.40345,0.24276 -0.4882,0.15801 -0.0847,-0.0847 -0.30579,-0.0456 -0.49121,0.087 -0.18542,0.13263 -0.71526,0.23476 -1.17742,0.22697 -0.46217,-0.008 -0.78765,0.071 -0.72329,0.17517 0.0644,0.10413 -0.0131,0.26974 -0.17214,0.36803 -0.40816,0.25226 -2.0807,0.30408 -1.92972,0.0598 0.0686,-0.11107 0.0133,-0.20194 -0.123,-0.20194 -0.36587,0 -0.86631,0.68101 -0.65542,0.8919 0.41495,0.41495 0.23793,0.85345 -0.36466,0.90332 -0.35447,0.0293 -0.58111,-0.0492 -0.50366,-0.17452 0.18341,-0.29677 -0.98619,-0.2363 -1.20382,0.0622 -0.28744,0.39431 0.0616,1.17305 0.58734,1.31055 0.5658,0.14795 0.67146,0.96726 0.18721,1.45152 -0.24695,0.24694 -0.19726,0.3175 0.22357,0.3175 0.2976,0 0.76261,0.24479 1.03336,0.54397 0.40545,0.44802 0.43602,0.63406 0.1733,1.05474 -0.39772,0.63685 -0.40725,0.86832 -0.026,0.63273 0.19955,-0.12333 0.23268,0.009 0.10394,0.41439 -0.14488,0.4565 -0.1052,0.54872 0.17009,0.39524 0.1975,-0.11011 0.0614,0.098 -0.30238,0.46238 -0.448,0.44876 -0.76287,0.58202 -0.97571,0.41293 -0.21917,-0.17412 -0.43872,-0.009 -0.72564,0.54588 -0.36477,0.70538 -0.36664,0.84029 -0.0165,1.19045 0.2172,0.2172 0.39491,0.53705 0.39491,0.71079 0,0.24386 0.0873,0.2434 0.38303,-0.002 0.27479,-0.22806 0.51776,-0.23949 0.85989,-0.0404 0.44551,0.2592 0.44642,0.27797 0.0139,0.28549 -0.25466,0.004 -0.46302,0.0973 -0.46302,0.20648 0,0.10914 -0.34544,0.19844 -0.76765,0.19844 -0.66052,0 -0.73168,-0.0673 -0.50981,-0.48181 0.24309,-0.45422 0.22101,-0.45766 -0.38568,-0.0601 -0.35395,0.23191 -0.82687,0.35131 -1.05094,0.26533 -0.22406,-0.086 -0.49385,-0.0164 -0.59952,0.15454 -0.14295,0.23129 -0.25726,0.21898 -0.44659,-0.0481 -0.18755,-0.26458 -0.22246,-0.21126 -0.13276,0.20279 0.0995,0.45907 0.019,0.53952 -0.44007,0.44007 -0.45727,-0.0991 -0.48795,-0.069 -0.16489,0.16178 0.34086,0.24348 0.32933,0.28406 -0.0818,0.28754 -0.31199,0.003 -0.40946,0.1192 -0.27994,0.33478 0.14894,0.24792 0.0925,0.2447 -0.22542,-0.0129 -0.31518,-0.25533 -0.47263,-0.26507 -0.61303,-0.0379 -0.13967,0.22601 -0.24332,0.21765 -0.39766,-0.0321 -0.27752,-0.44903 -1.57719,-0.49699 -1.57719,-0.0582 0,0.18671 -0.18233,0.33947 -0.40518,0.33947 -0.22285,0 -0.47371,0.17859 -0.55748,0.39687 -0.21591,0.56265 -1.09008,0.49206 -1.4716,-0.11884 -0.22598,-0.36186 -0.41695,-0.43696 -0.64014,-0.25173 -0.21272,0.17654 -0.37487,0.17209 -0.48954,-0.0135 -0.0943,-0.15258 -0.34303,-0.27743 -0.55272,-0.27743 -0.43061,0 -0.5227,0.93969 -0.11668,1.19063 0.14552,0.0899 0.26459,0.28258 0.26459,0.4281 0,0.14552 -0.0992,0.20327 -0.22049,0.12832 -0.12127,-0.075 -0.22048,0.032 -0.22048,0.23758 0,0.20562 0.18851,0.4549 0.41892,0.55395 0.332,0.14273 0.28168,0.22196 -0.24254,0.38189 -0.65088,0.19856 -0.65168,0.20221 -0.0505,0.22816 0.33601,0.0145 0.53734,0.14544 0.44741,0.29096 -0.0899,0.14552 -0.0374,0.26458 0.11667,0.26458 0.15411,0 0.2802,0.0935 0.2802,0.20789 0,0.1999 -0.51787,0.30235 -1.78593,0.35333 -0.33329,0.0134 -0.59532,0.19316 -0.59532,0.40843 0,0.21147 -0.10831,0.31755 -0.2407,0.23573 -0.34191,-0.21131 -1.10851,0.12552 -0.93279,0.40984 0.0805,0.13028 0.0203,0.23686 -0.13381,0.23686 -0.15411,0 -0.2802,0.23129 -0.2802,0.51398 0,0.36524 0.14769,0.48553 0.51036,0.41569 0.38667,-0.0745 0.4862,0.0271 0.4107,0.41913 -0.0548,0.28458 0.0132,0.44768 0.15111,0.36245 0.13791,-0.0852 0.25075,-0.0289 0.25075,0.12522 0,0.15411 0.18278,0.2802 0.40618,0.2802 0.22341,0 0.7055,0.19611 1.07132,0.43581 0.49204,0.3224 0.64453,0.34437 0.586,0.0844 -0.0506,-0.2248 0.23064,-0.38064 0.78077,-0.4326 0.6627,-0.0626 0.86694,0.0242 0.89059,0.3786 0.0284,0.42502 0.0397,0.42572 0.1493,0.009 0.0652,-0.24782 0.3508,-0.52428 0.6346,-0.61436 0.28381,-0.0901 0.45543,-0.26179 0.38139,-0.38158 -0.074,-0.1198 0.0446,-0.28656 0.26352,-0.37059 0.54299,-0.20836 0.66866,-0.20173 0.59102,0.0312 -0.0364,0.10914 -0.14323,0.17275 -0.23745,0.14134 -0.0942,-0.0314 -0.11297,0.16595 -0.0417,0.43856 0.12571,0.48074 0.1451,0.48017 0.64397,-0.0187 0.28289,-0.28289 0.43139,-0.65884 0.32999,-0.83543 -0.1014,-0.17659 -0.0869,-0.23281 0.0321,-0.12494 0.11909,0.10788 0.3692,0.0694 0.5558,-0.0854 0.27424,-0.2276 0.27891,-0.15147 0.0243,0.39711 -0.17322,0.37328 -0.49354,0.69343 -0.71182,0.71144 -0.28592,0.0236 -0.26755,0.0666 0.0657,0.15368 0.41098,0.10743 0.41836,0.16516 0.0661,0.51737 -0.21805,0.21805 -0.38705,0.59631 -0.37556,0.84058 0.0129,0.27523 0.0716,0.31835 0.15434,0.11339 0.22014,-0.54556 0.61852,-0.37354 0.61852,0.26709 0,0.32879 0.24953,0.75364 0.55451,0.94411 0.47398,0.29601 0.63728,0.27643 1.12448,-0.13479 0.31348,-0.2646 0.65744,-0.60016 0.76435,-0.74568 0.10691,-0.14552 0.19621,0.003 0.19844,0.33073 0.002,0.32742 0.11742,0.59531 0.25598,0.59531 0.13856,0 0.24816,-0.68461 0.24356,-1.52135 -0.0113,-2.05728 0.0628,-2.4474 0.46534,-2.4474 0.18891,0 0.47091,-0.23812 0.62667,-0.52916 0.15576,-0.29105 0.52416,-0.52917 0.81867,-0.52917 0.29451,0 0.46221,-0.11856 0.37265,-0.26346 -0.0896,-0.1449 0.13781,-0.40044 0.50526,-0.56785 0.37361,-0.17023 0.59104,-0.43312 0.49329,-0.59644 -0.0961,-0.16062 0.0116,-0.14116 0.23935,0.0433 0.22777,0.18441 0.60781,0.26097 0.84454,0.17013 0.23672,-0.0908 0.43041,-0.0371 0.43041,0.11943 0,0.15652 0.17782,0.21634 0.39517,0.13294 0.25045,-0.0961 0.47376,0.0608 0.60976,0.42844 0.1925,0.52038 0.25047,0.53684 0.56326,0.15995 0.44402,-0.53501 0.81306,-0.53848 0.81306,-0.008 0,0.25957 -0.12261,0.33883 -0.33073,0.21379 -0.26381,-0.15849 -0.26427,-0.11657 -0.002,0.20717 0.18064,0.22322 0.24703,0.48727 0.14752,0.58677 -0.0995,0.0995 -0.21498,0.40416 -0.25662,0.67701 -0.058,0.37981 0.0483,0.46367 0.45337,0.35774 0.39087,-0.10221 0.45674,-0.22551 0.25216,-0.47201 -0.20048,-0.24157 -0.16171,-0.37787 0.14046,-0.49382 0.28504,-0.10938 0.35496,-0.0563 0.22055,0.16754 -0.14874,0.24764 -0.095,0.24524 0.21994,-0.01 0.34304,-0.27778 0.44417,-0.26608 0.57165,0.0661 0.0863,0.225 0.0122,0.40542 -0.16754,0.40768 -0.22161,0.003 -0.20808,0.0765 0.0433,0.23566 0.28728,0.18194 0.24478,0.26998 -0.19824,0.41059 -0.46346,0.14709 -0.51502,0.27037 -0.28939,0.69195 0.31751,0.59328 -0.19304,2.70834 -0.59396,2.46056 -0.13225,-0.0817 -0.66137,0.28479 -1.17581,0.8145 -0.68632,0.70668 -1.02339,0.89005 -1.26596,0.68873 -0.18183,-0.1509 -0.41524,-0.18973 -0.51868,-0.0863 -0.10344,0.10344 -0.10912,-0.0177 -0.0126,-0.26915 0.14866,-0.38741 0.0801,-0.4219 -0.44904,-0.22585 -0.51821,0.192 -0.62449,0.41748 -0.62449,1.32486 0,1.07926 0.0766,1.16875 0.99626,1.16453 0.36573,-0.002 0.40176,0.0766 0.16604,0.36061 -0.16558,0.19951 -0.46507,0.36275 -0.66553,0.36275 -0.20046,0 -0.36448,0.16585 -0.36448,0.36856 0,0.48075 0.71652,0.75299 0.90583,0.34418 0.0804,-0.17373 0.0787,0.0711 -0.004,0.54403 -0.0953,0.54567 -0.0424,0.85989 0.14471,0.85989 0.21132,0 0.20606,0.16874 -0.0186,0.59532 -0.41138,0.78117 -0.74333,0.98323 -1.62334,0.98813 -0.54987,0.003 -0.72761,0.13332 -0.72761,0.53322 0,0.29104 -0.11906,0.52917 -0.26458,0.52917 -0.14552,0 -0.26458,0.16536 -0.26458,0.36747 0,0.39029 0.81533,0.44514 1.08777,0.0732 0.0889,-0.12144 0.22663,0.0274 0.30596,0.33073 0.0793,0.30334 0.0236,0.55153 -0.12389,0.55153 -0.14747,0 -0.1944,0.19212 -0.1043,0.42693 0.13987,0.3645 0.0183,0.39974 -0.83159,0.24099 -0.54747,-0.10227 -0.9103,-0.10014 -0.80628,0.005 0.10402,0.10487 0.0701,0.41315 -0.0755,0.68506 -0.179,0.33447 -0.17599,0.50507 0.009,0.52745 0.78947,0.0953 1.35194,0.16888 1.51744,0.19844 0.10186,0.0182 0.0416,0.17666 -0.13389,0.35216 -0.1755,0.1755 -0.82439,0.32433 -1.44198,0.33073 l -1.12288,0.0116 0.0776,0.99219 c 0.0503,0.6426 -0.0352,0.99218 -0.24253,0.99218 -0.17607,0 -0.25219,0.0679 -0.16914,0.151 0.0831,0.083 8.4e-4,0.44042 -0.18268,0.79416 -0.28918,0.55739 -0.32194,1.06268 -0.1746,2.69286 0.0537,0.59379 1.05219,0.34813 1.88198,-0.46302 0.74249,-0.7258 1.10439,-0.90739 1.45011,-0.7276 0.07,0.0364 0.31484,-0.20175 0.54417,-0.52917 0.41199,-0.5882 1.11533,-0.86707 0.76753,-0.30433 -0.13077,0.21158 -0.0315,0.21158 0.36387,0 0.73205,-0.39178 0.92858,-0.36628 0.75064,0.0974 -0.082,0.21362 -0.0273,0.46367 0.12159,0.55566 0.4392,0.27144 0.56529,-0.0631 0.24755,-0.65682 -0.22474,-0.41994 -0.21778,-0.55182 0.0291,-0.55182 0.17846,0 0.0934,-0.18743 -0.18912,-0.41652 -0.50074,-0.40608 -0.4987,-0.41333 0.0817,-0.28935 0.39544,0.0845 0.59531,0.002 0.59531,-0.24495 0,-0.20465 0.11906,-0.3721 0.26458,-0.3721 0.14552,0 0.26641,0.14883 0.26864,0.33073 0.003,0.22048 0.0895,0.19844 0.26053,-0.0661 0.20634,-0.31929 0.25727,-0.27744 0.26053,0.21406 0.002,0.33601 -0.10253,0.54505 -0.2328,0.46454 -0.28863,-0.17838 -0.60757,0.50156 -0.73663,1.57036 -0.17116,1.41744 -0.3603,2.00889 -0.59587,1.8633 -0.12701,-0.0785 -0.48976,0.29597 -0.80611,0.83214 -0.40251,0.68221 -0.63754,0.87397 -0.7829,0.63876 -0.15216,-0.24618 -0.35912,-0.14363 -0.77364,0.38335 -0.31125,0.39569 -0.56953,0.61409 -0.57396,0.48532 -0.004,-0.12877 -0.13429,-0.017 -0.2886,0.24832 -0.21013,0.36135 -0.18661,0.56057 0.0937,0.79375 0.30101,0.25037 0.31562,0.48092 0.0747,1.17777 -0.16478,0.47656 -0.38192,0.78413 -0.48255,0.68351 -0.10062,-0.10063 -0.18295,0.075 -0.18295,0.39031 0,0.59702 0.37658,0.76961 0.66412,0.30436 0.0914,-0.14789 0.28478,-0.1956 0.42973,-0.10602 0.15846,0.0979 0.0815,0.36403 -0.19305,0.6674 -0.25112,0.27748 -0.40771,0.53748 -0.34797,0.57776 0.0597,0.0403 0.33928,0.24792 0.62118,0.4614 0.46517,0.35226 0.49603,0.34407 0.33376,-0.0886 -0.10741,-0.28641 -0.0744,-0.41222 0.0828,-0.31511 0.40663,0.25131 0.31305,0.60808 -0.32751,1.24865 -0.66185,0.66184 -0.6642,1.7236 -0.005,2.2057 0.24904,0.18211 0.35455,0.51992 0.26698,0.8548 -0.1639,0.62677 0.56294,1.44624 1.1486,1.29497 0.20295,-0.0524 0.28194,-0.0461 0.17554,0.014 -0.10639,0.0601 -0.54885,0.63593 -0.98323,1.27956 -0.66481,0.98505 -0.71793,1.17354 -0.33572,1.19112 0.27521,0.0127 0.16746,0.12557 -0.27353,0.28664 -0.83678,0.30561 -0.9813,1.01539 -0.20674,1.01539 0.35428,0 0.47215,0.12693 0.36856,0.39688 -0.0964,0.25131 0.004,0.39687 0.27289,0.39687 0.23385,0 0.42518,-0.13209 0.42518,-0.29353 0,-0.17966 0.35923,-0.25159 0.92605,-0.18542 0.50932,0.0595 0.92604,0.013 0.92604,-0.10334 0,-0.1163 0.20836,-0.21328 0.46302,-0.21551 0.3957,-0.003 0.40531,-0.0413 0.0661,-0.26053 -0.32356,-0.2091 -0.29125,-0.25723 0.17492,-0.26053 0.31449,-0.002 0.86679,-0.35464 1.22735,-0.78313 0.64884,-0.77111 1.07461,-0.83631 0.80074,-0.12262 -0.078,0.20322 -0.24837,0.30362 -0.37865,0.2231 -0.13027,-0.0805 -0.23686,-0.004 -0.23686,0.17079 0,0.17445 -0.20836,0.47942 -0.46302,0.67772 -0.43491,0.33867 -0.43292,0.35 0.0329,0.18667 0.47731,-0.16735 0.47865,-0.14749 0.0357,0.52852 -0.25313,0.38632 -0.68467,0.7024 -0.95897,0.7024 -0.27431,0 -0.49874,0.17859 -0.49874,0.39687 0,0.21828 -0.10087,0.39688 -0.22415,0.39688 -0.12328,0 -0.34162,0.26325 -0.48519,0.585 -0.18099,0.40562 -0.49763,0.58817 -1.03262,0.59531 -0.66126,0.009 -0.77025,0.11223 -0.7623,0.72312 0.008,0.59182 -0.0558,0.65918 -0.37405,0.39687 -0.33089,-0.27271 -0.33691,-0.22884 -0.044,0.32069 0.30283,0.56816 0.27192,0.68846 -0.28741,1.1186 -0.3447,0.26508 -0.77556,0.48462 -0.95746,0.48786 -0.42845,0.008 -0.42845,0.45152 0,0.6244 0.19758,0.0797 0.14432,0.14186 -0.13229,0.15434 -0.25466,0.0115 -0.46302,0.19948 -0.46302,0.41776 0,0.47632 0.56395,0.52085 1.00542,0.0794 0.24694,-0.24695 0.3175,-0.24695 0.3175,0 0,0.45569 0.7816,0.39244 0.96207,-0.0779 0.24328,-0.63399 0.62579,-0.17742 0.62138,0.7417 -0.003,0.61458 -0.07,0.74006 -0.24641,0.46121 -0.19266,-0.30454 -0.31389,-0.22575 -0.59126,0.38429 -0.41262,0.9075 -1.53602,2.09828 -1.54758,1.6404 -0.004,-0.17528 -0.1308,-0.10784 -0.28084,0.14989 -0.15004,0.25772 -0.39335,0.39408 -0.5407,0.30301 -0.42729,-0.26408 -1.81625,-0.29569 -1.81625,-0.0413 0,0.12729 -0.24306,0.15429 -0.54013,0.06 -0.29708,-0.0943 -0.92216,-0.21874 -1.38907,-0.27656 -0.75245,-0.0932 -0.85337,-0.0289 -0.88804,0.56593 -0.0388,0.66624 -0.85132,1.82229 -1.10349,1.57011 -0.0724,-0.0724 -0.27167,-0.0154 -0.44285,0.12668 -0.17117,0.14206 -0.71791,0.31806 -1.21497,0.3911 -1.39272,0.20466 -1.67319,0.27174 -2.00601,0.47982 -0.16969,0.10609 -0.61618,0.0759 -0.99219,-0.067 -0.59215,-0.22514 -0.68366,-0.18997 -0.68366,0.26269 0,0.28744 -0.17486,0.52262 -0.38857,0.52262 -0.21511,0 -0.32814,0.15748 -0.2532,0.35277 0.1467,0.38231 0.90635,0.49319 0.90635,0.1323 0,-0.12127 0.1318,-0.22049 0.29289,-0.22049 0.16109,0 0.22137,0.18638 0.13396,0.41418 -0.12462,0.32474 -0.0365,0.3753 0.40825,0.23416 0.55848,-0.17726 0.5575,-0.16636 -0.0635,0.7103 l -0.63066,0.89032 0.7094,-0.46004 c 0.39018,-0.25302 0.92401,-0.39062 1.18629,-0.30577 0.39869,0.12897 0.4118,0.10745 0.08,-0.13122 -0.25551,-0.1838 -0.28238,-0.28694 -0.0755,-0.28955 0.17679,-0.002 0.44886,0.23408 0.60462,0.52512 0.36781,0.68725 0.89643,0.68578 0.71657,-0.002 -0.15969,-0.61066 0.85041,-1.51766 1.15012,-1.03273 0.11258,0.18217 0.32524,0.1279 0.60841,-0.15526 0.24336,-0.24337 0.43532,-0.30344 0.43532,-0.13623 0,0.1645 0.12708,0.22056 0.28239,0.12457 0.1565,-0.0967 0.34948,0.082 0.43287,0.40089 0.14379,0.54986 0.16664,0.54204 0.51454,-0.17631 0.33461,-0.69088 1.46004,-1.67252 1.38565,-1.20859 -0.12827,0.79984 0.08,0.95664 0.53943,0.40611 0.30271,-0.36274 0.83279,-0.60935 1.38026,-0.64214 0.48885,-0.0293 1.03765,-0.16581 1.21955,-0.30339 0.21676,-0.16395 0.49028,-0.12502 0.79375,0.11297 0.41423,0.32487 0.42682,0.31683 0.11944,-0.0763 -0.25647,-0.32806 -0.26574,-0.48757 -0.0366,-0.62921 0.16885,-0.10436 0.41094,-0.0257 0.53796,0.17488 0.12702,0.20054 0.23277,0.25257 0.235,0.11562 0.002,-0.13696 0.19148,-0.0179 0.42055,0.26458 0.22907,0.28248 0.34882,0.37724 0.2661,0.21059 -0.0827,-0.16666 0.0337,-0.37365 0.25871,-0.45999 0.23426,-0.0899 0.34001,-0.0452 0.24745,0.10456 -0.0889,0.14386 -0.0356,0.26156 0.11855,0.26156 0.52983,0 0.66823,-0.13327 0.59393,-0.57188 -0.071,-0.41899 0.30584,-0.81283 0.87689,-0.91647 0.14552,-0.0264 0.4531,-0.12418 0.68351,-0.21727 0.25151,-0.10161 0.42395,-0.0325 0.4315,0.17288 0.007,0.18816 0.10653,0.57 0.22135,0.84854 0.1584,0.38423 0.12403,0.45404 -0.14245,0.28935 -0.26346,-0.16282 -0.31394,-0.0745 -0.20203,0.35347 0.0821,0.3138 0.0413,0.57054 -0.0906,0.57054 -0.1319,0 -0.23981,0.35719 -0.23981,0.79375 0,0.43656 0.0893,0.79363 0.19843,0.79348 0.23826,-3.2e-4 1.51041,-2.24817 1.78972,-3.16239 0.10908,-0.35701 0.35552,-0.80631 0.54764,-0.99843 0.28937,-0.28937 0.3969,-0.26041 0.62656,0.1687 0.15247,0.28491 0.27723,0.72996 0.27723,0.98899 0,0.86854 0.84932,-0.28352 0.8869,-1.20304 0.0337,-0.824 0.26364,-1.04902 0.56831,-0.55606 0.0899,0.14552 0.0412,0.26459 -0.10837,0.26459 -0.14955,0 -0.20363,0.17791 -0.12019,0.39535 0.0834,0.21745 0.2583,0.32948 0.38858,0.24897 0.13027,-0.0805 0.23685,-0.0314 0.23685,0.10904 0,0.14049 0.23679,0.19351 0.5262,0.11783 0.2894,-0.0757 0.45914,-0.24608 0.3772,-0.37866 -0.0819,-0.13259 -0.0508,-0.22401 0.0691,-0.20317 0.67593,0.11742 1.12914,-0.0899 1.28753,-0.58891 0.14065,-0.44315 0.22871,-0.4857 0.41065,-0.19843 0.32755,0.51716 0.29982,0.66466 -0.22331,1.18778 -0.25466,0.25466 -0.48295,0.88825 -0.50731,1.40796 -0.0243,0.51972 -0.11144,1.30213 -0.19352,1.73869 -0.12093,0.64319 -0.11038,0.66879 0.0556,0.13496 0.12803,-0.41182 0.27529,-0.54475 0.39281,-0.3546 0.22219,0.3595 -0.0325,1.14569 -0.37119,1.14569 -0.12995,0 -0.23628,0.10715 -0.23628,0.23812 0,0.13097 -0.42975,0.66788 -0.95501,1.19314 -0.84693,0.84693 -0.93532,1.06003 -0.78096,1.88281 0.0957,0.51028 0.079,0.91177 -0.0372,0.89219 -0.49083,-0.0827 -0.87269,0.0449 -0.87269,0.29165 0,0.14552 0.19465,0.26459 0.43256,0.26459 0.65496,0 -0.68852,0.98414 -1.49967,1.09856 -0.43347,0.0611 -0.66174,0.26979 -0.67965,0.62123 -0.0148,0.29104 -0.0587,0.64823 -0.0975,0.79375 -0.0388,0.14552 -0.0564,0.35388 -0.0392,0.46302 0.0172,0.10914 -0.10231,0.19844 -0.26565,0.19844 -0.20519,0 -0.19518,0.12267 0.0324,0.39687 0.1893,0.22809 0.21528,0.39688 0.0611,0.39688 -0.55911,0 -0.9976,3.04336 -0.52417,3.63802 0.18439,0.23161 0.15447,0.33325 -0.0998,0.33914 -0.27833,0.006 -0.26507,0.0837 0.0568,0.33073 0.38279,0.29384 0.38119,0.39189 -0.0181,1.10993 -0.43153,0.77595 -0.47105,0.78771 -2.66885,0.79375 -1.96009,0.005 -2.22636,0.0623 -2.19408,0.46915 0.0202,0.25467 -0.0988,0.46665 -0.26458,0.47107 -0.16573,0.004 -0.0831,0.13494 0.18369,0.29004 0.38186,0.22202 0.61057,0.16404 1.07538,-0.27263 0.3247,-0.30504 0.82082,-0.54275 1.10249,-0.52825 0.40882,0.0211 0.38406,0.0622 -0.12276,0.20409 l -0.63487,0.17772 0.71787,0.32708 c 0.39483,0.1799 0.64881,0.21535 0.56441,0.0788 -0.0844,-0.13657 -0.0281,-0.32577 0.12506,-0.42045 0.33533,-0.20724 0.2172,1.41508 -0.14544,1.99737 -0.25532,0.40996 -0.3784,1.82996 -0.18947,2.18595 0.0617,0.11621 0.27125,0.0792 0.46573,-0.0822 0.29506,-0.24488 0.29516,-0.0719 5.8e-4,1.04479 -0.23416,0.88765 -0.26255,1.39416 -0.0843,1.50431 0.16834,0.10404 0.13462,0.25102 -0.0903,0.39352 -0.21896,0.13875 -0.24102,0.22904 -0.0566,0.23151 0.16633,0.002 0.37332,0.18883 0.45999,0.41467 0.0867,0.22584 0.051,0.34474 -0.0793,0.26422 -0.13028,-0.0805 -0.17457,0.0919 -0.0984,0.38313 0.20561,0.78628 1.04414,0.66335 1.25688,-0.18427 0.14048,-0.55976 0.23145,-0.63113 0.4215,-0.33073 0.18869,0.29825 0.24325,0.25126 0.24641,-0.21224 0.005,-0.67696 0.0799,-0.70384 0.88134,-0.31476 0.44493,0.21599 0.40237,0.12061 -0.18496,-0.41452 -0.53517,-0.4876 -0.67954,-0.7784 -0.48369,-0.97425 0.15354,-0.15355 0.22072,-0.47303 0.14928,-0.70996 -0.0714,-0.23693 0.0416,-0.14367 0.25128,0.20725 l 0.38117,0.63802 0.47805,-0.55832 c 0.63192,-0.73803 0.93747,-0.50791 0.58068,0.43734 -0.24009,0.63607 -0.19444,0.88354 0.288,1.56105 0.31532,0.44284 0.57331,0.95823 0.57331,1.14532 0,0.35403 -2.07067,2.35627 -2.4368,2.35627 -0.11497,0 -0.20903,0.10716 -0.20903,0.23813 0,0.13097 0.4321,0.23812 0.96022,0.23812 0.52812,0 1.03414,0.10121 1.12448,0.2249 0.3801,0.52041 1.29449,0.78502 2.34707,0.67922 0.61847,-0.0622 1.12448,-0.21959 1.12448,-0.34983 0,-0.13023 0.17859,-0.23679 0.39688,-0.23679 0.21828,0 0.39687,0.11533 0.39687,0.25628 0,0.14096 0.17791,0.18801 0.39536,0.10457 0.21744,-0.0834 0.32125,-0.27161 0.23068,-0.41815 -0.23365,-0.37806 0.48386,-0.75845 0.85291,-0.45216 0.36082,0.29945 1.23053,0.0327 1.01746,-0.31201 -0.0805,-0.13027 -0.0203,-0.23686 0.13381,-0.23686 0.44019,0 0.32774,0.47518 -0.18282,0.77256 -0.33222,0.1935 -0.35714,0.27195 -0.0882,0.27773 0.20616,0.004 0.29264,0.0902 0.19219,0.19068 -0.10045,0.10045 0.1476,0.3289 0.55122,0.50768 0.40362,0.17877 0.75511,0.33471 0.7811,0.34653 0.026,0.0118 0.24314,-0.17441 0.48257,-0.41384 z"
       id="path1" /></g></svg>
