<?xml version="1.0" encoding="UTF-8" standalone="no"?>
<!-- Created with Inkscape (http://www.inkscape.org/) -->

<svg
   width="86.566422mm"
   height="132.27151mm"
   viewBox="0 0 86.566422 132.27151"
   version="1.1"
   id="svg1"
   xml:space="preserve"
   xmlns="http://www.w3.org/2000/svg"
   xmlns:svg="http://www.w3.org/2000/svg"><defs
     id="defs1" /><g
     id="layer1"
     transform="translate(654.35817,-109.30368)"><path
       id="path40"
       style="fill:#000000;stroke-width:1"
       d="m -602.44591,109.306 c -0.0615,0.006 -0.11769,0.0272 -0.16488,0.0717 -0.67276,0.83252 -2.09334,0.44807 -3.13958,0.67404 -1.18297,0.2555 -2.36482,0.51621 -3.54797,0.77085 -0.97034,0.20884 -1.93,0.47815 -2.91225,0.62085 -1.6945,0.24616 -3.4093,0.4454 -5.12106,0.40277 -1.53357,-0.0382 -3.03198,-0.51641 -4.56432,-0.5888 -0.92554,-0.0437 -1.8577,-0.0125 -2.77811,0.0942 -1.13746,0.13179 -2.24719,0.44156 -3.36888,0.67173 -0.94685,0.19429 -1.97281,0.16627 -2.83725,0.59871 -0.61132,0.30581 -1.13056,0.80591 -1.54204,1.35172 -0.51502,0.68314 -0.73034,1.54737 -1.09532,2.32114 -0.38175,0.80934 -0.65399,1.68001 -1.14487,2.4282 -0.42756,0.65167 -1.05466,1.14938 -1.54303,1.75681 -0.43126,0.53639 -0.81445,1.10972 -1.22253,1.66395 -0.379,0.51474 -0.74501,1.03937 -1.1386,1.54303 -0.20698,0.26486 -0.69285,0.44476 -0.64265,0.77713 0.0809,0.53551 0.89334,0.6139 1.35898,0.89046 0.45357,0.26939 1.13426,0.28881 1.395,0.7474 0.44593,0.78425 -0.0687,1.80315 -0.12159,2.70376 -0.0552,0.94043 0.27849,2.00994 -0.20452,2.81875 -0.13131,0.21988 -0.41756,0.30118 -0.64827,0.41235 -0.51628,0.2488 -1.07149,0.41355 -1.62563,0.55972 -0.87789,0.23157 -1.77281,0.42449 -2.67766,0.49892 -1.36808,0.11254 -2.74551,-0.13322 -4.11727,-0.0826 -1.65746,0.0612 -3.35608,0.0213 -4.95388,0.46622 -1.07992,0.30071 -2.19846,0.70808 -3.02922,1.46075 -0.24602,0.22289 -0.57398,0.5228 -0.51875,0.85015 0.0373,0.22082 0.35084,0.27872 0.51875,0.42689 0.55841,0.49276 1.07126,1.03524 1.62332,1.5351 0.89126,0.80697 1.80628,1.58757 2.72557,2.36245 0.52383,0.44154 1.32952,0.66901 1.58962,1.30281 0.36286,0.88424 -0.0992,1.91737 -0.30167,2.85147 -0.2672,1.23254 -0.72894,2.418 -1.19577,3.58959 -0.28159,0.70674 -0.66131,1.37073 -0.96546,2.06805 -0.34308,0.7866 -0.58387,1.61825 -0.96877,2.38525 -0.27984,0.55765 -0.74506,1.01899 -0.96943,1.60118 -0.24124,0.62598 -0.40089,1.30526 -0.38262,1.97586 0.0388,1.42463 0.52457,2.81838 1.04014,4.14701 0.39067,1.00675 0.93357,1.9564 1.53774,2.85146 0.48183,0.71381 1.07734,1.34491 1.65041,1.98776 0.59798,0.6708 1.15463,1.39585 1.86353,1.94812 0.25723,0.20038 0.55313,0.34967 0.85081,0.48273 0.42118,0.18827 0.87451,0.29423 1.31174,0.44143 0.55325,0.18627 1.09742,0.40202 1.65966,0.55906 0.76867,0.21469 1.56743,0.30943 2.33668,0.52205 1.32077,0.36505 2.57526,0.95174 3.90283,1.29125 1.48357,0.3794 2.9885,0.77015 4.51872,0.82801 0.7734,0.0292 1.53671,-0.2967 2.30892,-0.24483 0.43542,0.0292 0.8512,0.1944 1.27176,0.31092 0.41017,0.11364 0.83395,0.19814 1.21955,0.37832 1.08293,0.50601 2.01019,1.29399 3.01237,1.94547 0.96944,0.63018 2.53739,0.80216 2.90267,1.89921 0.30595,0.91881 -1.06061,1.76454 -0.99222,2.73053 0.1007,1.42237 0.7437,3.12465 2.01287,3.77463 2.0896,1.07014 4.66519,-0.54935 6.97964,-0.943 0.77243,-0.13137 1.57351,-0.19395 2.34823,-0.33437 l 0.003,0.009 0.005,0.42193 -0.0506,0.41632 -0.0634,0.41434 -0.0651,0.415 0.0608,0.41566 -0.0833,0.41466 0.0876,0.415 0.11333,0.41302 0.0945,0.41698 -0.21411,0.38823 0.006,0.44243 -0.10606,0.41499 0.10606,0.41566 -0.0383,0.41533 0.0383,0.415 -0.007,0.41764 0.0651,0.41302 -0.1163,0.40904 0.0581,0.42161 0.0449,0.41996 -0.0998,0.41037 0.0644,0.41334 -0.01,0.41732 0.16323,0.39913 -10e-4,0.43152 -0.0839,0.41434 -0.078,0.41566 0.0442,0.42062 -0.10871,0.40904 0.0806,0.41137 -0.0162,0.41863 0.0182,0.42029 -0.0895,0.41103 0.0403,0.415 0.0311,0.41566 -10e-4,0.44241 0.21345,0.38791 -0.11135,0.41367 -0.10111,0.41699 0.19593,0.39186 -0.006,0.4388 -0.19693,0.39121 0.007,0.43878 -0.10804,0.41665 -0.11894,0.41301 0.0872,0.42261 0.13976,0.40805 0.0691,0.41368 -0.0555,0.41632 0.0149,0.41566 -0.0284,0.41433 -0.0132,0.41732 0.0618,0.41301 0.0614,0.42029 -0.11003,0.41037 0.0833,0.41301 -0.0582,0.41699 0.0875,0.41797 -0.11267,0.41269 -0.18668,0.3945 -0.005,0.43582 0.17644,0.39649 0.0152,0.43417 -0.03,0.43911 0.20089,0.39154 0.0274,0.43846 -0.19825,0.39187 -0.0842,0.41632 -0.0952,0.41368 -0.004,0.43614 0.18338,0.39451 0.0648,0.4259 0.14769,0.4041 -0.17445,0.39748 -0.038,0.43219 -0.0549,0.41499 -0.0519,0.41566 0.004,0.42128 0.1021,0.40938 -0.0459,0.41698 -0.0691,0.41301 -0.0178,0.42557 0.13282,0.40476 -0.0125,0.41764 0.0588,0.41302 0.0159,0.41764 -0.0621,0.41301 0.0595,0.42888 -0.16422,0.40112 0.0218,0.4193 0.0829,0.41103 -0.0773,0.41367 -0.0549,0.41699 0.16057,0.39979 -0.0284,0.4302 -0.0113,0.42723 0.14175,0.40277 -0.0301,0.42061 -0.10045,0.40971 0.0896,0.41137 0.0416,0.41929 -0.1662,0.39914 0.035,0.43086 -0.0419,0.41566 0.0473,0.41499 0.0614,0.41467 -0.0667,0.415 -0.10276,0.41269 -0.0753,0.41796 0.039,0.42591 0.13911,0.40475 0.008,0.41996 0.0938,0.41004 0.0354,0.42491 -0.13713,0.40476 0.0436,0.41697 -0.0697,0.41368 0.003,0.41566 0.0235,0.415 -0.007,0.42392 -0.11895,0.40673 0.0971,0.40972 0.0288,0.42061 -0.0803,0.42095 -0.12357,0.40971 0.16817,0.39848 0.0357,0.43152 -0.0192,0.42325 0.11895,0.40707 -0.1054,0.40872 0.006,0.42194 -0.0294,0.41565 -0.037,0.41501 -0.0518,0.42193 0.11828,0.40872 -0.0221,0.43714 -0.19329,0.39253 -0.007,0.44506 0.22236,0.3856 0.10243,0.40938 -0.0294,0.42127 -0.13415,0.40608 0.0611,0.42392 -0.13151,0.40707 0.0651,0.42325 -0.008,0.41897 0.0747,0.41169 0.32182,-0.041 0.29903,-0.12523 0.31653,0.0588 0.30365,0.10739 0.30828,-0.0459 0.31223,0.007 0.30596,0.0849 0.31422,-0.0459 0.30663,0.0634 0.31422,-0.0149 0.30926,-0.0327 0.31093,-0.0159 0.0294,-0.41764 0.0677,-0.41302 0.0139,-0.4226 -0.11101,-0.40773 0.0178,-0.41632 -0.0456,-0.41367 -0.0714,-0.41764 0.0991,-0.41236 0.0677,-0.42194 0.12457,-0.40872 -0.0102,-0.43515 -0.18206,-0.39517 0.0707,-0.41566 0.077,-0.41434 -0.12986,-0.40542 -0.0178,-0.42523 0.0509,-0.41764 -0.0803,-0.41302 0.13018,-0.41103 -0.10077,-0.4193 -0.002,-0.42326 0.11366,-0.40739 -0.0542,-0.41566 -0.0575,-0.415 0.12786,-0.40542 -0.0271,-0.42458 -0.01,-0.41995 -0.0912,-0.40972 0.10474,-0.41069 -0.0614,-0.41996 -0.0637,-0.41235 0.0205,-0.41765 -0.0198,-0.43911 0.20122,-0.39155 -0.0261,-0.42953 -0.15529,-0.40079 -0.16752,-0.40046 0.0601,-0.42954 -0.003,-0.42259 0.11069,-0.40806 0.0486,-0.41434 0.0254,-0.41599 -0.1087,-0.40938 0.0347,-0.42128 0.081,-0.41169 0.0334,-0.41896 -0.17215,-0.39947 0.0578,-0.43119 0.0697,-0.41665 0.0905,-0.41368 0.034,-0.4368 -0.19427,-0.39319 0.0132,-0.42326 -0.11565,-0.40674 0.12358,-0.40674 -0.0212,-0.42392 -0.12292,-0.41368 0.11069,-0.41665 0.0671,-0.41433 -0.0549,-0.41632 -0.13183,-0.40806 -0.073,-0.4226 0.0859,-0.41929 0.11895,-0.41136 0.14373,-0.40509 -0.0644,-0.42524 -0.0396,-0.41566 -0.0396,-0.415 -0.0271,-0.42458 -0.12953,-0.40541 0.0228,-0.42525 0.13382,-0.40475 -0.0582,-0.42359 0.13679,-0.40608 -0.0942,-0.41004 0.0155,-0.41995 -0.13117,-0.40972 0.0902,-0.42094 0.13051,-0.40971 -0.0895,-0.42095 0.0535,-0.41599 0.0691,-0.41367 -10e-4,-0.42458 -0.12126,-0.40608 -0.15299,-0.40145 -0.0109,-0.42921 0.0697,-0.41731 0.0942,-0.41301 0.0324,-0.415 0.0264,-0.41566 -0.11333,-0.40938 0.0545,-0.42128 0.0426,-0.43019 -0.16356,-0.3998 0.10342,-0.40905 0.0175,-0.42128 0.037,-0.41434 -0.006,-0.41631 0.003,-0.41566 -0.0337,-0.41434 -0.0833,-0.41103 -0.0109,-0.41897 -0.0608,-0.42755 0.15497,-0.40277 -0.15431,-0.40179 -0.0261,-0.42887 0.17214,-0.39716 0.008,-0.43284 0.006,-0.42193 0.1054,-0.40872 -0.0247,-0.4193 -0.0869,-0.41103 -0.17413,-0.39847 0.0512,-0.43219 0.14076,-0.40277 -0.0178,-0.42722 -0.003,-0.42822 -0.14836,-0.40244 -10e-4,-0.42953 0.15299,-0.4008 0.0198,-0.42259 0.11432,-0.4074 -0.12787,-0.40542 -0.006,-0.42458 0.10937,-0.40971 0.0582,-0.42095 -0.0518,-0.42127 -0.11564,-0.40839 0.0331,-0.42458 0.12853,-0.40608 -0.001,-0.43086 -0.16025,-0.39979 0.0172,-0.43351 0.1771,-0.39682 -0.19362,-0.39287 -6.4e-4,-0.43712 0.20783,-0.38956 0.005,-0.44045 -0.10176,-0.41697 -0.11102,-0.41368 0.01,-0.41863 0.0773,-0.41203 -0.078,-0.41103 -0.009,-0.41863 0.01,-0.41963 0.0849,-0.41103 -0.10606,-0.40872 0.0116,-0.42193 0.12324,-0.40609 -0.0116,-0.42424 -0.007,-0.42227 -0.10474,-0.40839 0.008,-0.14175 c 0.2723,-0.27854 0.54753,-0.55282 0.84189,-0.7996 1.82267,-1.52807 3.64938,-3.05453 5.54861,-4.48634 1.22933,-0.92677 2.40208,-1.9674 3.78025,-2.65354 0.80469,-0.40062 1.67961,-0.68183 2.56665,-0.82735 1.05683,-0.17338 2.1491,0.0833 3.2126,-0.043 1.19648,-0.14205 2.38949,-0.3968 3.52517,-0.79927 0.66279,-0.23487 1.49794,-0.35065 1.89194,-0.93308 0.27784,-0.41072 -0.0322,-1.00948 0.11432,-1.48322 0.36872,-1.19229 0.95573,-2.39398 1.86981,-3.24366 0.93042,-0.86487 2.1708,-1.50273 3.43166,-1.65735 1.09298,-0.13403 2.16968,0.3919 3.23375,0.67536 0.62522,0.16655 1.19884,0.61628 1.84568,0.60102 1.26425,-0.0298 2.37459,-0.87185 3.54797,-1.34346 1.10784,-0.44526 2.49896,-0.51349 3.29586,-1.40259 0.32112,-0.35827 0.28504,-0.91913 0.41699,-1.38179 0.14116,-0.49496 0.40214,-0.97647 0.40078,-1.49115 -10e-4,-0.51018 -0.24096,-0.9929 -0.40508,-1.47595 -0.18608,-0.54767 -0.21725,-1.22896 -0.65521,-1.6068 -0.35105,-0.30287 -0.88807,-0.30589 -1.35105,-0.33074 -0.92094,-0.0494 -1.83698,0.1911 -2.74243,0.36642 -0.61609,0.1193 -1.24404,0.7044 -1.8242,0.46523 -1.17058,-0.48258 -1.60106,-2.04267 -1.94977,-3.25985 -0.40375,-1.40928 -0.77701,-3.10552 -0.0836,-4.39713 0.60835,-1.13315 2.13844,-1.43362 3.25588,-2.07036 0.60872,-0.34687 1.18718,-0.81475 1.87443,-0.95093 0.52656,-0.10434 1.17709,0.44937 1.60548,0.12589 0.88963,-0.67179 0.67862,-2.16371 0.66115,-3.27836 -0.0193,-1.22997 -0.81503,-2.36309 -0.84255,-3.5929 -0.0139,-0.61999 0.20342,-1.22434 0.3433,-1.8285 0.10563,-0.45629 0.53546,-0.91472 0.37402,-1.35437 -0.0907,-0.24698 -0.40194,-0.36396 -0.65256,-0.44407 -1.1317,-0.36173 -2.37587,-0.10898 -3.5635,-0.0757 -0.97626,0.0274 -2.18474,0.86782 -2.92118,0.22634 -0.77185,-0.67232 -0.12229,-2.04356 -0.18502,-3.06524 -0.0695,-1.13228 -0.72976,-2.3872 -0.21213,-3.39664 0.15922,-0.3105 0.56588,-0.41902 0.88649,-0.55674 0.33982,-0.14597 0.76168,-0.0785 1.07484,-0.27524 0.0669,-0.042 0.10281,-0.12006 0.15265,-0.18139 0.39019,-0.48026 0.71938,-1.01211 1.14554,-1.46076 0.61585,-0.64835 1.27733,-1.26834 2.02311,-1.76176 0.30293,-0.20042 0.70944,-0.23411 0.98,-0.47645 0.0561,-0.0503 0.11713,-0.11601 0.1206,-0.19131 0.0182,-0.39358 -0.28151,-0.75255 -0.53559,-1.05368 -0.57565,-0.68225 -1.41966,-1.08322 -2.14901,-1.59788 -0.85286,-0.60181 -1.77313,-1.1077 -2.60265,-1.74127 -0.61928,-0.47299 -1.06517,-1.19053 -1.7654,-1.53246 -0.66663,-0.32552 -1.44339,-0.38545 -2.18402,-0.42821 -0.81561,-0.0471 -1.62867,0.25209 -2.44341,0.19164 -1.06185,-0.0788 -2.09746,-0.39635 -3.11281,-0.717 -1.0868,-0.34321 -2.13434,-0.80593 -3.16833,-1.2853 -1.01988,-0.47283 -1.9679,-1.09116 -2.98693,-1.56582 -1.39912,-0.65172 -2.81769,-1.27564 -4.28445,-1.75615 -1.14476,-0.37502 -2.32535,-0.63785 -3.50667,-0.87361 -0.79673,-0.159 -1.60201,-0.27909 -2.41003,-0.36378 -0.19348,-0.0203 -0.42737,-0.13607 -0.61192,-0.11763 z" /></g></svg>
