<?xml version="1.0" encoding="UTF-8" standalone="no"?>
<!-- Created with Inkscape (http://www.inkscape.org/) -->

<svg
   width="39.319885mm"
   height="177.98956mm"
   viewBox="0 0 39.319885 177.98956"
   version="1.1"
   id="svg1"
   xml:space="preserve"
   inkscape:version="1.3.1 (91b66b0783, 2023-11-16)"
   sodipodi:docname="tree_outlines.svg"
   xmlns:inkscape="http://www.inkscape.org/namespaces/inkscape"
   xmlns:sodipodi="http://sodipodi.sourceforge.net/DTD/sodipodi-0.dtd"
   xmlns="http://www.w3.org/2000/svg"
   xmlns:svg="http://www.w3.org/2000/svg"><sodipodi:namedview
     id="namedview1"
     pagecolor="#ffffff"
     bordercolor="#858585"
     borderopacity="1"
     inkscape:showpageshadow="0"
     inkscape:pageopacity="0"
     inkscape:pagecheckerboard="0"
     inkscape:deskcolor="#505050"
     inkscape:document-units="mm"
     inkscape:zoom="1.1447635"
     inkscape:cx="231.92562"
     inkscape:cy="701.89167"
     inkscape:window-width="1920"
     inkscape:window-height="1112"
     inkscape:window-x="-8"
     inkscape:window-y="-8"
     inkscape:window-maximized="1"
     inkscape:current-layer="layer1" /><defs
     id="defs1" /><g
     inkscape:label="Layer 1"
     inkscape:groupmode="layer"
     id="layer1"
     transform="translate(409.90901,-59.50519)"><path
       style="fill:#000000"
       d="m -394.44384,237.4918 c -0.15763,-0.0235 -1.41769,-0.12674 -2.80014,-0.22935 -1.38245,-0.1026 -3.19815,-0.12591 -4.0349,-0.0518 -1.36446,0.12085 -1.52098,0.0831 -1.51774,-0.36596 0.002,-0.27539 0.0754,-0.76861 0.16315,-1.09603 0.0938,-0.35016 0.36474,-0.59531 0.65785,-0.59531 0.27407,0 0.49831,-0.10933 0.49831,-0.24294 0,-0.13362 -0.0723,-0.43128 -0.1606,-0.66146 -0.0883,-0.23019 -0.36218,-0.41852 -0.60854,-0.41852 -0.24637,0 -0.56106,-0.11104 -0.6993,-0.24677 -0.1558,-0.15295 -0.41565,-0.1253 -0.68351,0.0727 -0.23768,0.17574 -0.47682,0.55467 -0.53143,0.84209 -0.0648,0.34099 -0.35131,0.55166 -0.82462,0.60629 -0.68554,0.0791 -0.72534,0.0247 -0.72534,-0.99219 0,-0.59175 -0.11906,-1.07591 -0.26458,-1.07591 -0.14552,0 -0.26458,-0.23812 -0.26458,-0.52916 0,-0.29105 -0.11907,-0.52917 -0.26459,-0.52917 -0.14552,0 -0.26458,-0.29205 -0.26458,-0.64901 0,-0.35695 0.13778,-0.9514 0.30618,-1.321 0.1684,-0.36959 0.76064,-0.88121 1.31609,-1.13693 0.55545,-0.25571 1.01298,-0.61376 1.01674,-0.79566 0.004,-0.20095 -0.34547,-0.33073 -0.89091,-0.33073 -0.57454,0 -0.95555,-0.15067 -1.05833,-0.41852 -0.0883,-0.23018 -0.1606,-0.71494 -0.1606,-1.07723 0,-0.36229 0.17009,-0.82881 0.37797,-1.03669 0.20789,-0.20789 0.44511,-0.37798 0.52716,-0.37798 0.0821,0 0.44774,-0.2596 0.81265,-0.57688 0.3649,-0.31728 0.66347,-0.72698 0.66347,-0.91043 0,-0.18345 -0.10642,-0.39931 -0.23648,-0.47969 -0.13006,-0.0804 -0.66202,0.0317 -1.18213,0.24896 -0.5201,0.21732 -1.24713,0.39512 -1.6156,0.39512 -0.4963,0 -0.66996,-0.13886 -0.66996,-0.53571 0,-0.31724 0.2509,-0.63111 0.61522,-0.76962 0.33837,-0.12865 0.80246,-0.51967 1.03131,-0.86894 0.24318,-0.37114 0.3594,-0.93154 0.27968,-1.34857 -0.0777,-0.40623 0.0195,-0.90233 0.22547,-1.15191 0.28237,-0.34209 0.28921,-0.46284 0.0311,-0.5497 -0.1819,-0.0612 -0.33073,-0.33951 -0.33073,-0.61843 0,-0.27891 0.17859,-0.50712 0.39687,-0.50712 0.22049,0 0.39688,-0.23518 0.39688,-0.52916 0,-0.29104 -0.11906,-0.52917 -0.26459,-0.52917 -0.14552,0 -0.26079,-0.20836 -0.25616,-0.46302 0.005,-0.25466 0.16658,-0.67138 0.35989,-0.92604 0.19332,-0.25466 0.54298,-0.46302 0.77704,-0.46302 0.29642,0 0.37176,-0.1405 0.24828,-0.46302 -0.0975,-0.25467 -0.40578,-0.64839 -0.68507,-0.87495 -0.44451,-0.36058 -0.48398,-0.61711 -0.31668,-2.05853 0.10511,-0.90563 0.36609,-1.82159 0.57997,-2.03547 0.21388,-0.21388 0.60575,-0.38887 0.87083,-0.38887 0.26507,0 0.55423,-0.18833 0.64256,-0.41851 0.0883,-0.23018 0.16059,-0.45714 0.16059,-0.50434 0,-0.0472 -0.60229,-0.16866 -1.33843,-0.26991 -0.99786,-0.13724 -1.45231,-0.0865 -1.78594,0.19953 -0.24612,0.21098 -1.02428,0.53939 -1.72923,0.72979 -1.08426,0.29286 -1.31803,0.28886 -1.5173,-0.0259 -0.12957,-0.20466 -0.2374,-0.52944 -0.23963,-0.72173 -0.002,-0.1923 0.15172,-0.5054 0.3421,-0.69578 0.19038,-0.19038 0.83816,-0.42928 1.43951,-0.53087 0.84939,-0.14351 1.11162,-0.31296 1.1752,-0.75943 0.0674,-0.47306 0.28438,-0.58928 1.22685,-0.65707 1.14499,-0.0824 1.14499,-0.0824 0.96096,-1.19063 -0.10121,-0.60954 -0.28904,-1.14795 -0.41739,-1.19646 -0.12835,-0.0485 -0.23336,-0.24298 -0.23336,-0.43216 0,-0.18918 -0.22549,-0.40293 -0.50109,-0.475 -0.30216,-0.079 -0.57599,-0.47203 -0.68974,-0.98996 -0.12678,-0.57721 -0.0809,-0.92553 0.14002,-1.06204 0.20908,-0.12922 0.26406,-0.46058 0.1511,-0.91065 -0.0977,-0.38913 -0.0272,-1.35441 0.15665,-2.14506 0.18382,-0.79066 0.42621,-1.43756 0.53864,-1.43756 0.11243,0 0.20442,-0.28491 0.20442,-0.63315 0,-0.34823 0.17859,-0.70168 0.39687,-0.78544 0.24911,-0.0956 0.39688,-0.50019 0.39688,-1.08664 0,-0.65414 -0.11902,-0.93435 -0.39688,-0.93435 -0.21828,0 -0.39687,-0.13501 -0.39687,-0.30003 0,-0.16502 0.14453,-0.7901 0.32118,-1.38906 0.17665,-0.59897 0.46581,-1.23786 0.64256,-1.41976 0.17676,-0.1819 0.41918,-0.33507 0.53871,-0.34037 0.11954,-0.005 0.54476,-0.4412 0.94494,-0.96865 0.40019,-0.52745 0.74556,-1.32679 0.76751,-1.7763 0.0219,-0.44951 0.0142,-1.14548 -0.0172,-1.54661 -0.0344,-0.44013 0.0975,-0.78864 0.33275,-0.87891 0.21439,-0.0823 0.53579,-0.50203 0.71423,-0.9328 0.17843,-0.43078 0.25453,-0.85311 0.16911,-0.93853 -0.0854,-0.0854 -0.34807,0.0375 -0.58368,0.27306 -0.2356,0.23561 -0.589,0.42838 -0.78532,0.42838 -0.19633,0 -0.43691,0.36403 -0.53463,0.80896 -0.13978,0.63638 -0.29948,0.7916 -0.74863,0.7276 -0.48782,-0.0695 -0.57095,-0.25396 -0.57095,-1.26677 0,-0.91802 -0.10445,-1.2059 -0.46302,-1.27618 -0.35731,-0.07 -0.46302,0.0884 -0.46302,0.6941 0,0.47159 -0.16704,0.84894 -0.41852,0.94544 -0.23018,0.0883 -0.58737,0.1606 -0.79375,0.1606 -0.27844,0 -0.37523,-0.37538 -0.37523,-1.45521 0,-1.37583 -0.0361,-1.45521 -0.66146,-1.45521 -0.47243,0 -0.66146,-0.14302 -0.66146,-0.50048 0,-0.31498 0.2485,-0.56286 0.67046,-0.66876 0.37736,-0.0947 0.80915,-0.48316 0.98773,-0.88858 0.1745,-0.39617 0.85506,-1.29754 1.51236,-2.00305 0.65729,-0.7055 1.5225,-1.4527 1.92268,-1.66044 0.40018,-0.20773 0.7276,-0.54904 0.7276,-0.75847 0,-0.20942 0.26758,-0.52397 0.59461,-0.69899 0.36646,-0.19613 0.46798,-0.36044 0.26459,-0.42823 -0.18152,-0.0605 -0.33003,-0.33822 -0.33003,-0.61713 0,-0.27892 -0.11906,-0.50712 -0.26458,-0.50712 -0.14552,0 -0.26459,-0.2311 -0.26459,-0.51355 0,-0.28245 0.11907,-0.58714 0.26459,-0.67707 0.14552,-0.0899 0.26458,-0.33509 0.26458,-0.54479 0,-0.20969 -0.15975,-0.38126 -0.35499,-0.38126 -0.19525,0 -0.48711,-0.44648 -0.64859,-0.99218 -0.16148,-0.54571 -0.22237,-1.52797 -0.13533,-2.18282 0.087,-0.65484 0.31938,-1.28583 0.51629,-1.4022 0.19692,-0.11638 0.35804,-0.4438 0.35804,-0.72761 0,-0.28381 -0.1786,-0.51602 -0.39688,-0.51602 -0.22462,0 -0.39687,0.23709 -0.39687,0.54627 0,0.30044 -0.25168,1.1313 -0.55929,1.84635 -0.36374,0.84555 -0.4984,1.54268 -0.38515,1.99392 0.0958,0.3816 0.0368,1.10995 -0.13105,1.61855 -0.25941,0.78604 -0.40305,0.90602 -0.95772,0.79999 -0.54394,-0.10399 -0.72628,0.0349 -1.0956,0.83457 -0.24369,0.52762 -0.53236,0.999 -0.64151,1.0475 -0.10914,0.0485 -0.19843,0.32325 -0.19843,0.61053 0,0.45088 -0.15382,0.5112 -1.12448,0.44097 -1.12448,-0.0814 -1.12448,-0.0814 -1.06815,-1.26871 0.031,-0.65305 0.17981,-1.22852 0.33073,-1.27882 0.15092,-0.0503 0.2744,-0.25739 0.2744,-0.46019 0,-0.2028 -0.32742,-0.57708 -0.72761,-0.83174 -0.40018,-0.25465 -0.81507,-0.58482 -0.92199,-0.7337 -0.10691,-0.14888 -0.19621,-0.53859 -0.19843,-0.86601 -0.002,-0.34025 0.15719,-0.59531 0.3723,-0.59531 0.207,0 0.51651,-0.42468 0.68781,-0.94372 0.18013,-0.5458 0.57925,-1.06574 0.94656,-1.2331 0.34931,-0.15915 0.63511,-0.45141 0.63511,-0.64945 0,-0.19804 0.29765,-0.4957 0.66146,-0.66146 0.43118,-0.19646 0.66145,-0.51687 0.66145,-0.92037 0,-0.34044 0.11907,-0.61899 0.26459,-0.61899 0.14552,0 0.26458,-0.17859 0.26458,-0.39687 0,-0.27382 0.2749,-0.39688 0.88656,-0.39688 0.48761,0 1.26151,-0.1307 1.71979,-0.29046 0.45828,-0.15976 0.83323,-0.39788 0.83323,-0.52917 0,-0.13128 0.17756,-0.2387 0.39458,-0.2387 0.21701,0 0.74832,-0.37016 1.18068,-0.82259 0.68979,-0.7218 0.7387,-0.87 0.39918,-1.20952 -0.21282,-0.21282 -0.38694,-0.54245 -0.38694,-0.73252 0,-0.19006 -0.17859,-0.49379 -0.39687,-0.67495 -0.21828,-0.18116 -0.39688,-0.55293 -0.39688,-0.82615 0,-0.27322 -0.12201,-0.49677 -0.27113,-0.49677 -0.14912,0 -0.3843,0.29766 -0.52262,0.66146 -0.15396,0.40496 -0.45922,0.66146 -0.7872,0.66146 -0.3923,0 -0.53571,-0.17375 -0.53571,-0.64901 0,-0.35696 0.14744,-0.98203 0.32764,-1.38906 0.1802,-0.40703 0.47396,-0.89349 0.6528,-1.08102 0.19293,-0.20231 0.26143,-0.65959 0.16845,-1.12448 -0.1477,-0.73847 -0.10774,-0.78351 0.69489,-0.78351 0.62908,0 0.88775,-0.13827 0.98997,-0.52917 0.0761,-0.29104 0.30309,-0.52917 0.5044,-0.52917 0.24191,0 0.36601,-0.31398 0.36601,-0.92604 0,-0.50932 0.11907,-0.92604 0.26459,-0.92604 0.14552,0 0.26458,-0.16569 0.26458,-0.36819 0,-0.20251 -0.29766,-0.4429 -0.66146,-0.53421 -0.5264,-0.13212 -0.66699,-0.34056 -0.68854,-1.02087 -0.0271,-0.85486 -0.0271,-0.85486 -0.25283,0.0712 -0.12416,0.50932 -0.16348,1.1344 -0.0874,1.38906 0.0761,0.25466 0.0628,0.70114 -0.0296,0.99219 -0.0924,0.29104 -0.38857,0.52916 -0.65823,0.52916 -0.40804,0 -0.52111,-0.28791 -0.6741,-1.71657 -0.10111,-0.94411 -0.28918,-1.65146 -0.41794,-1.57188 -0.12875,0.0796 -0.2341,0.37578 -0.2341,0.65823 0,0.33717 -0.18175,0.51356 -0.52917,0.51356 -0.29398,0 -0.52917,0.17638 -0.52917,0.39687 0,0.2264 -0.23793,0.39688 -0.55393,0.39688 -0.33142,0 -0.60953,0.21256 -0.69232,0.52916 -0.0761,0.29104 -0.3527,0.52917 -0.61464,0.52917 -0.26194,0 -0.53016,-0.14883 -0.59603,-0.33073 -0.0958,-0.26458 -0.2318,-0.26458 -0.67992,0 -0.30808,0.1819 -0.74035,0.33073 -0.96061,0.33073 -0.22025,0 -0.40046,-0.15711 -0.40046,-0.34913 0,-0.19202 -0.38695,-0.51944 -0.8599,-0.7276 -0.62312,-0.27427 -0.88295,-0.57883 -0.94361,-1.10608 -0.046,-0.40019 0.0294,-0.72761 0.16758,-0.72761 0.13821,0 0.31357,-0.23812 0.38967,-0.52916 0.11758,-0.44961 0.3609,-0.52917 1.61836,-0.52917 1.1272,0 1.60612,-0.12614 2.00915,-0.52917 0.29104,-0.29104 0.52916,-0.63334 0.52916,-0.76068 0,-0.12733 0.33288,-0.29808 0.73972,-0.37945 0.40685,-0.0814 0.88908,-0.42702 1.07163,-0.76812 0.18255,-0.34109 0.69328,-0.78013 1.13495,-0.97564 0.57492,-0.25448 0.96922,-0.27975 1.38798,-0.089 0.41763,0.19029 0.71386,0.17223 1.03574,-0.0631 0.24795,-0.18131 0.45082,-0.4465 0.45082,-0.58933 0,-0.14282 0.46072,-0.39771 1.02383,-0.56643 0.56311,-0.16871 1.39124,-0.23327 1.84028,-0.14346 0.52936,0.10588 0.94259,0.0362 1.17524,-0.19815 0.19734,-0.19879 0.52938,-0.74839 0.73786,-1.22134 0.20847,-0.47294 0.51811,-0.85989 0.68808,-0.85989 0.16996,0 0.3854,-0.50602 0.47874,-1.12448 0.0933,-0.61846 0.23233,-1.4519 0.30886,-1.85208 0.0868,-0.45405 0.0243,-0.72761 -0.16639,-0.72761 -0.16857,0 -0.28404,-0.32619 -0.25757,-0.7276 0.0264,-0.40018 0.0354,-0.87643 0.0199,-1.05834 -0.0154,-0.1819 -0.20663,-0.33072 -0.42491,-0.33072 -0.22049,0 -0.39688,0.23518 -0.39688,0.52916 0,0.34217 -0.17639,0.52917 -0.49914,0.52917 -0.3334,0 -0.54669,0.24159 -0.64235,0.7276 -0.0788,0.40019 -0.29825,1.26339 -0.48772,1.91823 -0.18947,0.65485 -0.57347,1.39899 -0.85333,1.65365 -0.27986,0.25466 -0.59058,0.46302 -0.69047,0.46302 -0.0999,0 -0.32302,0.3103 -0.49582,0.68956 -0.28302,0.62116 -0.41191,0.67146 -1.29924,0.50706 -0.54178,-0.10038 -1.02474,-0.29162 -1.07325,-0.42498 -0.0485,-0.13336 -0.25687,-0.24247 -0.46302,-0.24247 -0.20615,0 -0.37483,-0.12094 -0.37483,-0.26875 0,-0.14782 0.14806,-0.74313 0.32901,-1.32292 0.24215,-0.77588 0.47109,-1.05417 0.86724,-1.05417 0.29603,0 0.73575,-0.23068 0.97717,-0.51263 0.36734,-0.42903 0.38832,-0.64673 0.12859,-1.33482 -0.22105,-0.58565 -0.22796,-0.87585 -0.024,-1.00872 0.15749,-0.1026 0.36162,-0.49461 0.45362,-0.87114 0.092,-0.37653 0.43776,-0.81496 0.76835,-0.97428 0.59191,-0.28527 0.58985,-0.28995 -0.13507,-0.30758 -0.45584,-0.0111 -0.80844,-0.20207 -0.92604,-0.50157 -0.15921,-0.40548 -0.33297,-0.44597 -1.07496,-0.2505 -0.77035,0.20294 -0.86399,0.31704 -0.72256,0.88053 0.0894,0.35606 0.0878,0.94504 -0.004,1.30884 -0.0956,0.3809 -0.35024,0.65451 -0.60035,0.64508 -0.23889,-0.009 -0.8213,-0.54699 -1.29424,-1.19552 -0.47294,-0.64853 -0.85989,-1.29601 -0.85989,-1.43883 0,-0.14283 -0.15949,-0.25969 -0.35441,-0.25969 -0.19492,0 -0.49258,-0.30326 -0.66146,-0.67391 -0.16888,-0.37065 -0.30705,-0.96596 -0.30705,-1.32292 0,-0.4005 0.15196,-0.649 0.39687,-0.649 0.24695,0 0.39688,-0.24989 0.39688,-0.66146 0,-0.43663 0.14746,-0.66146 0.43385,-0.66146 0.23862,0 0.59202,0.20836 0.78534,0.46302 0.21465,0.28277 0.35476,0.33427 0.35989,0.13229 0.005,-0.1819 0.24654,-0.33073 0.53759,-0.33073 0.29104,0 0.52916,0.11907 0.52916,0.26459 0,0.14552 0.11907,0.26458 0.26459,0.26458 0.14552,0 0.26458,-0.23813 0.26458,-0.52917 0,-0.29398 0.17639,-0.52916 0.39687,-0.52916 0.22384,0 0.39688,-0.23672 0.39688,-0.54293 0,-0.36749 -0.26106,-0.63394 -0.80789,-0.82456 -0.72584,-0.25304 -0.79973,-0.37926 -0.7276,-1.24301 0.0639,-0.76564 0.20149,-0.97859 0.67559,-1.04593 0.40042,-0.0569 0.59532,0.0514 0.59532,0.33073 0,0.23889 0.22476,0.41528 0.52916,0.41528 0.29104,0 0.52917,-0.11906 0.52917,-0.26458 0,-0.14552 0.34916,-0.26459 0.77592,-0.26459 0.54355,0 0.82622,-0.15847 0.94387,-0.52916 0.0924,-0.29105 0.27899,-0.52917 0.41471,-0.52917 0.13571,0 0.24675,-0.16913 0.24675,-0.37585 0,-0.20672 0.35719,-0.45431 0.79375,-0.55019 0.43656,-0.0959 0.79375,-0.32859 0.79375,-0.51712 0,-0.18853 0.35719,-0.41422 0.79375,-0.50153 0.69744,-0.13949 0.79375,-0.26924 0.79375,-1.06936 0,-0.50083 0.14883,-0.97066 0.33073,-1.04406 0.19757,-0.0797 0.14431,-0.14186 -0.13229,-0.15434 -0.2936,-0.0132 -0.46302,0.17275 -0.46302,0.50828 0,0.35278 -0.17639,0.52917 -0.52917,0.52917 -0.29104,0 -0.52917,-0.15352 -0.52917,-0.34116 0,-0.19831 -0.30465,-0.33679 -0.7276,-0.33073 -0.6301,0.009 -0.73872,-0.1048 -0.81051,-0.84946 -0.0593,-0.61447 0.0271,-0.8599 0.30242,-0.8599 0.21193,0 0.4576,-0.18833 0.54593,-0.41852 0.0883,-0.23018 0.1606,-0.70643 0.1606,-1.05833 0,-0.39234 -0.15351,-0.63982 -0.39688,-0.63982 -0.21828,0 -0.39687,0.11907 -0.39687,0.26459 0,0.14552 -0.28278,0.26458 -0.62839,0.26458 -0.49212,0 -0.66424,-0.17929 -0.79375,-0.82682 -0.0909,-0.45476 -0.16536,-1.11215 -0.16536,-1.46088 0,-0.41958 0.22375,-0.73601 0.66145,-0.93544 0.43119,-0.19646 0.66146,-0.51687 0.66146,-0.92037 0,-0.34045 0.10814,-0.61899 0.2403,-0.61899 0.13217,0 0.77129,-0.50602 1.42027,-1.12448 0.64898,-0.61846 1.40405,-1.31583 1.67793,-1.5497 0.27388,-0.23387 0.68879,-0.66124 0.92202,-0.9497 0.23323,-0.28847 0.48885,-0.86348 0.56806,-1.2778 0.0792,-0.41433 0.084,-0.9097 0.0107,-1.10082 -0.0733,-0.19113 -0.2863,-0.3475 -0.47323,-0.3475 -0.18694,0 -0.41714,-0.30778 -0.51155,-0.68396 -0.0944,-0.37618 -0.0993,-0.91196 -0.0109,-1.19062 0.0884,-0.27867 0.36114,-0.51473 0.606,-0.52458 0.33549,-0.0135 0.2985,-0.0887 -0.15012,-0.30501 -0.46509,-0.2243 -0.60147,-0.524254 -0.62346,-1.371159 -0.0275,-1.058484 -0.0349,-1.06689 -0.31566,-0.356443 -0.16147,0.408639 -0.49133,0.727604 -0.75246,0.727604 -0.25572,0 -0.56015,0.156014 -0.67653,0.346698 -0.11637,0.190684 -0.50596,0.54787 -0.86576,0.79375 -0.35981,0.24588 -0.86355,0.44705 -1.11944,0.44705 -0.28503,0 -0.53485,-0.27728 -0.64491,-0.71581 -0.0988,-0.393692 -0.45827,-0.994416 -0.79879,-1.33494 -0.34053,-0.340524 -0.61914,-0.851847 -0.61914,-1.136274 0,-0.284427 0.1603,-0.51714 0.35623,-0.51714 0.19592,0 0.73922,0.191065 1.20733,0.42459 0.78797,0.39309 0.87541,0.391368 1.17856,-0.02322 0.20599,-0.281704 0.73902,-0.463735 1.437,-0.490737 0.61026,-0.02361 1.11023,-0.13222 1.11105,-0.24136 8.2e-4,-0.109141 0.15183,-0.198438 0.33557,-0.198438 0.18375,0 0.56937,-0.313311 0.85694,-0.696247 0.28757,-0.382936 0.48591,-0.978248 0.44074,-1.322917 -0.0624,-0.47658 0.0439,-0.626669 0.44393,-0.626669 0.28933,0 0.57531,-0.147765 0.63551,-0.328367 0.0602,-0.180602 -0.0279,-0.465762 -0.19587,-0.633689 -0.16792,-0.167928 -0.62398,-0.244407 -1.01345,-0.169956 -0.62184,0.118874 -0.70812,0.05102 -0.70812,-0.556935 0,-0.592837 0.11404,-0.692303 0.79375,-0.692303 0.60586,0 0.79375,-0.120043 0.79375,-0.507118 0,-0.278915 0.14883,-0.567172 0.33073,-0.64057 0.1819,-0.0734 0.003,-0.142852 -0.39688,-0.154341 -0.5334,-0.01531 -0.7276,-0.156239 -0.7276,-0.528006 0,-0.278915 0.14883,-0.567171 0.33073,-0.64057 0.1819,-0.0734 -0.17529,-0.142852 -0.79375,-0.15434 -0.65297,-0.01213 -1.12448,-0.147337 -1.12448,-0.322449 0,-0.165859 -0.20836,-0.459728 -0.46302,-0.653044 -0.25466,-0.193315 -0.71634,-0.355269 -1.02594,-0.359897 -0.3096,-0.0046 -0.70516,-0.179809 -0.87901,-0.38929 -0.17386,-0.209482 -0.27773,-0.714479 -0.23084,-1.122217 0.0545,-0.474257 0.26449,-0.775366 0.58273,-0.835783 0.2736,-0.05194 0.57126,0.01761 0.66146,0.15457 0.0902,0.136956 0.52679,0.319457 0.9702,0.405556 0.44342,0.0861 0.9792,0.04712 1.19063,-0.08663 0.26367,-0.1668 0.28053,-0.244453 0.0537,-0.247232 -0.1819,-0.0022 -0.33073,-0.242177 -0.33073,-0.533218 0,-0.352778 0.17639,-0.529167 0.52917,-0.529167 0.29104,0 0.52916,-0.10454 0.52916,-0.232311 0,-0.127772 -0.25309,-0.400358 -0.56242,-0.605748 -0.46018,-0.305545 -0.52851,-0.527871 -0.37585,-1.222897 0.13103,-0.596593 0.33783,-0.849461 0.69471,-0.849461 0.27948,0 0.50815,0.119063 0.50815,0.264584 0,0.145521 0.11906,0.264583 0.26458,0.264583 0.14552,0 0.26458,-0.225387 0.26458,-0.500859 0,-0.275473 -0.17859,-0.569392 -0.39687,-0.653154 -0.21828,-0.08376 -0.39688,-0.32074 -0.39688,-0.526616 0,-0.205876 -0.23812,-0.436591 -0.52916,-0.5127 -0.31661,-0.08279 -0.52917,-0.360896 -0.52917,-0.692317 0,-0.305917 0.17071,-0.553937 0.38126,-0.553937 0.20969,0 0.46126,-0.129437 0.55903,-0.287637 0.0978,-0.158201 0.0453,-0.420138 -0.11668,-0.582084 -0.16194,-0.161945 -0.29444,-0.498836 -0.29444,-0.748647 0,-0.249811 -0.10101,-0.493889 -0.22445,-0.542396 -0.12345,-0.04851 -0.30308,-0.772804 -0.39919,-1.609549 -0.17028,-1.482531 -0.15833,-1.521354 0.46801,-1.521354 0.49903,0 0.68173,0.177478 0.81708,0.79375 0.0959,0.436563 0.28394,0.79375 0.4179,0.79375 0.13396,0 0.24356,0.297657 0.24356,0.661459 0,0.411574 0.14993,0.661458 0.39688,0.661458 0.21828,0 0.39687,-0.178594 0.39687,-0.396875 0,-0.251288 0.25303,-0.396875 0.68977,-0.396875 0.52027,0 0.6503,-0.102839 0.52917,-0.418515 -0.0883,-0.230183 -0.1606,-0.527839 -0.1606,-0.661458 0,-0.133619 -0.1786,-0.242944 -0.39688,-0.242944 -0.22048,0 -0.39687,-0.235185 -0.39687,-0.529166 0,-0.291042 0.11906,-0.529167 0.26458,-0.529167 0.14552,0 0.26458,-0.238125 0.26458,-0.529167 0,-0.291041 0.16472,-0.529166 0.36603,-0.529166 0.20132,0 0.42747,-0.321396 0.50256,-0.714213 0.0751,-0.392816 0.0294,-0.99588 -0.10144,-1.34014 -0.13089,-0.344261 -0.23798,-0.796772 -0.23798,-1.00558 0,-0.228572 0.26322,-0.37965 0.66146,-0.37965 0.3638,0 0.66146,0.119062 0.66146,0.264583 0,0.145521 0.19248,0.264583 0.42773,0.264583 0.3237,0 0.38134,-0.14479 0.237,-0.595312 -0.10491,-0.327422 -0.25284,-0.99901 -0.32874,-1.492417 -0.12971,-0.843232 -0.0978,-0.889413 0.53197,-0.769033 0.55557,0.106205 0.69303,0.01091 0.80509,-0.558104 0.0743,-0.377396 0.0738,-1.001945 -10e-4,-1.387885 -0.096,-0.494243 0.033,-0.870915 0.43606,-1.274008 0.43325,-0.433249 0.75768,-0.531581 1.3353,-0.404715 0.59657,0.131029 0.83753,0.04822 1.10474,-0.379639 0.18796,-0.300971 0.49589,-0.54722 0.68428,-0.54722 0.1884,0 0.63601,-0.192287 0.99469,-0.427305 0.35868,-0.235017 0.65215,-0.563071 0.65215,-0.729009 0,-0.165937 0.44648,-0.457217 0.99219,-0.647288 0.5457,-0.190072 1.26008,-0.411679 1.5875,-0.492461 0.52143,-0.128649 0.59531,-0.04455 0.59531,0.677719 0,0.556584 -0.12899,0.824594 -0.39688,0.824594 -0.21828,0 -0.39687,0.102827 -0.39687,0.228504 0,0.125677 -0.29545,0.523951 -0.65655,0.885054 -0.56373,0.563733 -0.64031,0.840017 -0.54169,1.954309 0.0632,0.713767 0.12049,1.446586 0.12738,1.628487 0.007,0.181901 0.17385,0.330729 0.37103,0.330729 0.19717,0 0.67342,0.38014 1.05833,0.844756 0.38491,0.464616 0.69983,1.059928 0.69983,1.322917 0,0.294842 -0.19442,0.478161 -0.50711,0.478161 -0.27892,0 -0.55308,-0.137868 -0.60925,-0.306372 -0.0618,-0.18534 -0.35793,-0.240569 -0.74965,-0.139804 -0.35614,0.09161 -0.79599,0.490569 -0.97745,0.88657 -0.18145,0.396001 -0.24035,0.786335 -0.13088,0.867408 0.10947,0.08107 0.34192,0.564125 0.51656,1.073447 0.17594,0.51314 0.24826,1.427424 0.16219,2.050521 -0.0854,0.618464 -0.25872,1.124479 -0.38508,1.124479 -0.12636,0 -0.22974,0.409692 -0.22974,0.910427 0,0.500735 0.1099,0.97835 0.24422,1.061368 0.13433,0.08302 0.32617,0.536528 0.42633,1.007802 0.10015,0.471274 0.36154,1.060423 0.58088,1.309221 0.25035,0.283987 0.33763,0.696012 0.23449,1.106967 -0.11688,0.465665 -0.37412,0.678755 -0.89126,0.738266 -0.5708,0.06569 -0.74494,0.239951 -0.81068,0.811262 -0.0461,0.400182 0.0433,0.727604 0.19844,0.727604 0.15519,0 0.28216,0.238125 0.28216,0.529166 0,0.291042 -0.16208,0.529167 -0.36018,0.529167 -0.25033,0 -0.31768,0.221916 -0.22081,0.727604 0.0767,0.400183 0.18914,0.578776 0.24995,0.396875 0.0608,-0.181901 0.29587,-0.330729 0.52236,-0.330729 0.22649,0 0.56997,0.208359 0.76328,0.463021 0.19332,0.254661 0.35527,0.67138 0.3599,0.926042 0.007,0.365204 -0.21516,0.46302 -1.04992,0.46302 -1.05833,0 -1.05833,0 -1.05833,1.403505 0,1.224385 0.11365,1.527583 0.89054,2.375743 0.8422,0.919467 0.88796,1.069476 0.8432,2.763683 -0.0269,1.018323 -0.21033,2.048359 -0.42502,2.386757 -0.20772,0.327421 -0.4681,0.595312 -0.57861,0.595312 -0.11052,0 -0.20094,0.228387 -0.20094,0.507527 0,0.27914 -0.0723,0.695859 -0.1606,0.926042 -0.0883,0.230183 -0.38599,0.418514 -0.66146,0.418514 -0.27547,0 -0.50086,-0.178593 -0.50086,-0.396875 0,-0.218281 -0.10632,-0.396875 -0.23628,-0.396875 -0.12995,0 -0.30854,0.188332 -0.39687,0.418515 -0.0883,0.230183 -0.1606,0.575723 -0.1606,0.767867 0,0.192144 0.35719,0.473869 0.79375,0.626055 0.53417,0.186214 0.79375,0.454256 0.79375,0.819633 0,0.399962 -0.1709,0.54293 -0.64902,0.54293 -0.52461,0 -0.70184,0.1902 -0.92457,0.992192 -0.15155,0.5457 -0.27621,1.14101 -0.27702,1.32291 -8.1e-4,0.1819 0.11759,0.33073 0.26311,0.33073 0.14552,0 0.26458,0.34745 0.26458,0.77211 0,0.42466 -0.0723,0.96044 -0.1606,1.19063 -0.0883,0.23018 -0.38598,0.41851 -0.66145,0.41851 -0.29354,0 -0.50856,-0.19166 -0.51946,-0.46302 -0.0158,-0.39265 -0.0506,-0.38259 -0.22909,0.0661 -0.11577,0.29104 -0.1074,0.56886 0.0186,0.61736 0.126,0.0485 0.22909,0.3164 0.22909,0.59531 0,0.28463 0.18242,0.50712 0.41577,0.50712 0.22868,0 0.58587,0.17009 0.79375,0.37798 0.20789,0.20789 0.37798,0.78866 0.37798,1.2906 0,0.50195 0.16394,1.31413 0.3643,1.80484 0.20037,0.49071 0.4452,1.45381 0.54406,2.1402 0.1696,1.1774 0.14217,1.25743 -0.48483,1.41479 -0.56994,0.14305 -0.64271,0.27619 -0.51099,0.93482 0.11522,0.57608 0.0539,0.76802 -0.24548,0.76802 -0.2195,0 -0.47088,0.26789 -0.55863,0.59532 -0.0877,0.32742 -0.16116,0.91299 -0.16315,1.30127 -0.002,0.38828 -0.0759,0.8943 -0.16421,1.12448 -0.0883,0.23018 -0.31157,0.41852 -0.4961,0.41852 -0.18452,0 -0.4099,0.37207 -0.50085,0.82682 -0.091,0.45475 -0.16537,0.99053 -0.16537,1.19062 0,0.2001 0.17859,0.36381 0.39688,0.36381 0.21828,0 0.39687,0.22838 0.39687,0.50752 0,0.27914 0.0723,0.69586 0.1606,0.92604 0.0883,0.23019 0.32645,0.41852 0.52917,0.41852 0.20271,0 0.36856,0.16014 0.36856,0.35587 0,0.19572 0.21926,0.55429 0.48724,0.7968 0.26797,0.24252 0.70935,1.09441 0.98083,1.89309 0.27148,0.79869 0.62742,1.45216 0.79097,1.45216 0.16356,0 0.4483,0.282 0.63277,0.62668 0.18446,0.34467 0.29286,0.85069 0.24088,1.12448 -0.0599,0.31531 -0.3604,0.52848 -0.81984,0.58151 -0.39894,0.046 -0.72535,0.19488 -0.72535,0.33073 0,0.13586 0.12404,0.24701 0.27565,0.24701 0.15161,0 0.53488,0.24151 0.85171,0.53669 0.47382,0.44142 0.78886,0.50687 1.77488,0.36868 0.65934,-0.0924 1.33749,-0.34279 1.507,-0.55643 0.17817,-0.22457 0.62465,-0.3522 1.05833,-0.30254 0.67856,0.0777 0.74742,0.17879 0.72162,1.05935 -0.0157,0.5354 -0.22404,1.16899 -0.46302,1.40796 -0.23897,0.23898 -0.4345,0.61359 -0.4345,0.83247 0,0.29878 -0.28024,0.38686 -1.12448,0.35344 -0.61846,-0.0245 -1.32481,-0.0335 -1.56967,-0.02 -0.24485,0.0135 -0.52077,0.26266 -0.61314,0.55371 -0.11765,0.37069 -0.40032,0.52916 -0.94387,0.52916 -0.59953,0 -0.77592,-0.12029 -0.77592,-0.52916 0,-0.41998 -0.19109,-0.53827 -0.92604,-0.57327 -0.50933,-0.0242 -1.13277,-0.054 -1.38544,-0.0661 -0.26011,-0.0125 -0.50295,0.2075 -0.55978,0.50711 -0.0552,0.29105 -0.23543,0.61664 -0.4005,0.72356 -0.21505,0.13929 -0.20638,0.19553 0.0306,0.19843 0.1819,0.002 0.33073,0.24218 0.33073,0.53322 0,0.38806 -0.17639,0.52917 -0.66146,0.52917 -0.3638,0 -0.66145,0.10462 -0.66145,0.23248 0,0.12787 0.37937,0.38963 0.84305,0.58169 0.46368,0.19206 1.17806,0.32368 1.5875,0.29248 0.49651,-0.0378 0.74445,0.0697 0.74445,0.32271 0,0.2087 -0.0723,0.56777 -0.1606,0.79796 -0.10768,0.2806 -0.49379,0.41851 -1.17173,0.41851 -0.55612,0 -1.16846,-0.15549 -1.36075,-0.34553 -0.1923,-0.19004 -0.53902,-0.41715 -0.7705,-0.50469 -0.23148,-0.0875 -0.58867,-0.0529 -0.79375,0.0769 -0.30115,0.19064 -0.28381,0.23683 0.0901,0.2401 0.35927,0.003 0.46302,0.23001 0.46302,1.0125 0,0.64272 0.19191,1.21443 0.52917,1.57644 0.29104,0.31239 0.52916,0.73882 0.52916,0.94762 0,0.2088 0.18834,0.4519 0.41852,0.54023 0.23018,0.0883 0.6469,0.1606 0.92604,0.1606 0.35884,0 0.50753,0.18538 0.50753,0.63277 0,0.45986 -0.18691,0.67969 -0.68396,0.80444 -0.37618,0.0944 -0.92018,0.0967 -1.20888,0.005 -0.28871,-0.0916 -0.75439,-0.54292 -1.03485,-1.00287 -0.50992,-0.83628 -0.50992,-0.83628 -0.51091,0.0484 -7.3e-4,0.65767 0.13254,0.91958 0.51942,1.02075 0.28622,0.0748 0.58927,0.35309 0.67345,0.6183 0.0857,0.26999 0.52622,0.56377 1.00095,0.66753 0.46635,0.10192 1.11579,0.47352 1.44321,0.82577 0.32743,0.35225 0.59532,0.79903 0.59532,0.99284 0,0.19381 0.26789,0.42418 0.59531,0.51192 0.32742,0.0877 1.26603,0.16117 2.08581,0.16315 1.26632,0.003 1.51131,0.0832 1.62887,0.53278 0.0828,0.3166 0.3609,0.52917 0.69232,0.52917 0.44103,0 0.55394,0.16437 0.55394,0.80638 0,0.53215 -0.23809,1.02704 -0.7001,1.45521 -0.38505,0.35685 -0.92083,0.64883 -1.19062,0.64883 -0.31414,0 -0.49053,-0.19029 -0.49053,-0.52917 0,-0.31642 -0.18615,-0.54094 -0.46302,-0.55846 -0.25467,-0.0161 -0.74708,-0.005 -1.09426,0.0237 -0.34717,0.0291 -0.7323,-0.10654 -0.85584,-0.30145 -0.17273,-0.27252 -0.22555,-0.24742 -0.22866,0.10865 -0.003,0.31642 -0.21349,0.46303 -0.66551,0.46303 -0.44562,0 -0.66828,-0.1511 -0.68235,-0.46303 -0.0125,-0.2766 -0.0746,-0.32986 -0.15434,-0.13229 -0.0734,0.1819 -0.35363,0.33073 -0.62274,0.33073 -0.26911,0 -0.56478,-0.23785 -0.65705,-0.52855 -0.0923,-0.2907 -0.45851,-0.60153 -0.81388,-0.69072 -0.37946,-0.0952 -0.71005,-0.41688 -0.80102,-0.77933 -0.0852,-0.33943 -0.0771,-0.74299 0.0179,-0.89678 0.0951,-0.15379 -0.0128,-0.27962 -0.23968,-0.27962 -0.26036,0 -0.41249,-0.23697 -0.41249,-0.64256 0,-0.35341 -0.1871,-0.82966 -0.41577,-1.05833 -0.22868,-0.22868 -0.59877,-0.41577 -0.82243,-0.41577 -0.30981,0 -0.36484,0.17329 -0.23108,0.7276 0.0966,0.40018 0.46667,0.94589 0.82244,1.21269 0.35576,0.2668 0.64684,0.71329 0.64684,0.99219 0,0.2986 -0.19037,0.51569 -0.46302,0.52799 -0.2766,0.0125 -0.32987,0.0746 -0.13229,0.15434 0.1819,0.0734 0.33073,0.30111 0.33073,0.50603 0,0.20492 0.23812,0.5213 0.52917,0.70306 0.29104,0.18176 0.52916,0.48042 0.52916,0.6637 0,0.18327 0.11906,0.33323 0.26459,0.33323 0.14552,0 0.26524,0.26789 0.26605,0.59531 8.2e-4,0.32742 0.12178,1.02841 0.26881,1.55775 0.16602,0.59771 0.46626,1.01445 0.79227,1.0997 0.36978,0.0967 0.52495,0.36183 0.52495,0.89693 0,0.41781 -0.20632,1.05403 -0.45849,1.41383 -0.25217,0.3598 -0.41999,0.88195 -0.37294,1.16032 0.0471,0.27838 0.34267,0.7209 0.65693,0.98339 0.31425,0.26249 0.75345,0.48121 0.97599,0.48605 0.22253,0.005 0.57624,0.24693 0.78601,0.53797 0.20977,0.29104 0.52097,0.52916 0.69156,0.52916 0.17059,0 0.38243,0.18834 0.47076,0.41852 0.0883,0.23018 0.1606,0.59653 0.1606,0.8141 0,0.21758 0.33711,0.73271 0.74915,1.14474 0.41203,0.41203 1.03589,0.78983 1.38636,0.83954 0.38411,0.0545 0.67726,0.30031 0.73806,0.61889 0.0555,0.29067 0.41388,0.82263 0.79646,1.18214 0.38257,0.3595 1.2909,0.87239 2.01851,1.13976 0.7276,0.26736 1.44198,0.47608 1.5875,0.46383 0.14552,-0.0123 0.6813,-0.0486 1.19062,-0.0807 0.92605,-0.0585 0.92605,-0.0585 0.97357,1.72746 0.0475,1.78594 0.0475,1.78594 -0.69208,1.78594 -0.72785,0 -0.73615,0.0179 -0.52207,1.12448 0.11965,0.61846 0.22272,1.6305 0.22906,2.24896 0.009,0.91966 -0.0771,1.12448 -0.4753,1.12448 -0.33402,0 -0.57885,-0.31141 -0.78005,-0.99219 -0.16129,-0.5457 -0.35613,-1.4675 -0.43299,-2.04844 -0.0769,-0.58094 -0.26161,-1.09688 -0.41057,-1.14653 -0.14895,-0.0497 -0.27082,-0.24543 -0.27082,-0.43507 0,-0.18964 -0.3543,-0.3968 -0.78733,-0.46035 -0.53998,-0.0793 -0.71367,-0.0263 -0.55285,0.16841 0.12897,0.15618 0.32136,0.74873 0.42753,1.31678 0.19304,1.03282 0.19304,1.03282 -0.77007,0.87653 -0.96311,-0.15629 -0.96311,-0.15629 -0.96311,1.0177 0,0.99304 -0.0806,1.17399 -0.52307,1.17399 -0.28769,0 -0.72575,-0.30934 -0.97349,-0.68743 -0.40678,-0.62082 -0.41315,-0.79386 -0.0658,-1.78593 0.21155,-0.60418 0.34406,-1.42594 0.29446,-1.82612 -0.0512,-0.41345 -0.25395,-0.7276 -0.46948,-0.7276 -0.24506,0 -0.3793,-0.28093 -0.3793,-0.79375 0,-0.43656 -0.0611,-0.79375 -0.13588,-0.79375 -0.0747,0 -0.35662,0.13785 -0.62641,0.30634 -0.26979,0.16849 -0.6849,0.23175 -0.92246,0.14059 -0.2421,-0.0929 -0.43192,-0.46008 -0.43192,-0.8355 0,-0.48022 -0.14142,-0.66977 -0.49972,-0.66977 -0.36259,0 -0.54788,-0.2567 -0.67521,-0.93545 -0.16726,-0.89155 -0.21637,-0.92778 -1.04668,-0.77201 -0.7808,0.14648 -0.90452,0.083 -1.19253,-0.61237 -0.25272,-0.61011 -0.45247,-0.75073 -0.93531,-0.65843 -0.53418,0.10211 -0.63769,-0.0148 -0.79658,-0.89958 -0.10044,-0.55932 -0.24399,-1.76109 -0.319,-2.67059 -0.075,-0.90951 -0.24527,-1.65365 -0.37838,-1.65365 -0.1331,0 -0.24201,-0.23812 -0.24201,-0.52916 0,-0.29105 -0.0649,-0.52917 -0.14431,-0.52917 -0.0794,0 -0.43657,0.29224 -0.79375,0.64943 -0.35719,0.35719 -0.64944,0.87475 -0.64944,1.15014 0,0.27539 -0.20835,0.73555 -0.46302,1.02258 -0.25466,0.28703 -0.70114,0.61506 -0.99218,0.72897 -0.48111,0.18828 -0.45004,0.24553 0.34213,0.63035 0.62643,0.3043 0.8495,0.57555 0.79375,0.96516 -0.0529,0.36988 -0.30853,0.56849 -0.80515,0.62563 -0.51402,0.0591 -0.72761,0.2339 -0.72761,0.59531 0,0.28138 -0.11906,0.51159 -0.26458,0.51159 -0.14552,0 -0.26459,0.35017 -0.26459,0.77814 0,0.42797 0.10369,0.84222 0.23041,0.92054 0.12673,0.0783 0.30261,0.50338 0.39085,0.94458 0.10457,0.52286 0.40664,0.91436 0.86752,1.12435 0.38889,0.17719 1.11609,0.71936 1.61598,1.20483 0.4999,0.48547 1.13677,1.39779 1.41527,2.02739 0.34639,0.78306 0.71546,1.1972 1.16817,1.31082 0.52086,0.13073 0.6618,0.33407 0.6618,0.95481 0,0.52469 -0.13285,0.78871 -0.39687,0.78871 -0.21828,0 -0.39688,0.17859 -0.39688,0.39688 0,0.21828 -0.10791,0.39687 -0.23981,0.39687 -0.1319,0 -0.17831,0.23519 -0.10314,0.52265 0.0912,0.3487 0.45498,0.58236 1.09308,0.70207 0.52601,0.0987 1.11673,0.33975 1.31269,0.53571 0.19596,0.19597 0.3346,0.62418 0.30808,0.95158 -0.0265,0.32741 -0.035,0.9227 -0.0189,1.32289 0.026,0.64675 0.13021,0.7276 0.9375,0.7276 0.6792,0 0.95104,0.13493 1.07805,0.53511 0.0934,0.29431 0.092,0.88963 -0.003,1.32292 -0.15084,0.68675 -0.28912,0.7878 -1.07805,0.7878 -0.62807,0 -0.90502,-0.12144 -0.90502,-0.39687 0,-0.24215 -0.2467,-0.39688 -0.63278,-0.39688 -0.45685,0 -0.67964,0.18673 -0.80134,0.67162 -0.0942,0.37524 -0.005,1.04661 0.20268,1.52136 0.20419,0.46735 0.50526,1.48389 0.66905,2.25898 0.16379,0.77509 0.29781,1.69782 0.29781,2.05052 0,0.3527 0.12474,0.64127 0.27721,0.64127 0.15247,0 0.56919,0.31505 0.92604,0.7001 0.35686,0.38505 0.64883,0.87198 0.64883,1.08207 0,0.21008 -0.26789,0.60934 -0.59531,0.88723 -0.53524,0.45427 -0.55275,0.53864 -0.17349,0.83616 0.26006,0.20401 0.49429,0.97297 0.61079,2.00527 0.17145,1.51906 0.14151,1.68678 -0.32279,1.8082 -0.43959,0.11495 -0.4817,0.26713 -0.29858,1.07905 0.11725,0.51987 0.50698,1.19447 0.86608,1.4991 0.5657,0.47989 0.65281,0.77492 0.65227,2.20902 -3.5e-4,0.91033 -0.10722,1.72103 -0.23751,1.80155 -0.13028,0.0805 -0.23688,0.3775 -0.23688,0.65995 0,0.28246 -0.10811,0.51355 -0.24026,0.51355 -0.13214,0 -0.0554,0.57811 0.17057,1.28469 0.23427,0.73258 0.33536,1.58539 0.23522,1.98438 -0.0966,0.38483 -0.35567,0.69968 -0.57575,0.69968 -0.22007,0 -0.47701,0.20836 -0.57097,0.46302 -0.094,0.25467 -0.29858,0.5505 -0.45472,0.65741 -0.16005,0.1096 -0.0242,0.19615 0.31143,0.19844 0.41249,0.003 0.59532,0.16253 0.59532,0.52007 0,0.28381 -0.18343,0.61867 -0.40762,0.74413 -0.24725,0.13837 -0.3402,0.40377 -0.23627,0.67461 0.0942,0.24557 0.27766,0.44649 0.40761,0.44649 0.12995,0 0.23628,0.19523 0.23628,0.43385 0,0.23862 0.20835,0.59202 0.46302,0.78534 0.25466,0.19331 0.67138,0.35527 0.92604,0.3599 0.28383,0.005 0.46302,0.2132 0.46302,0.53758 0,0.37117 0.17774,0.53037 0.59531,0.53321 0.32742,0.002 0.76431,0.11102 0.97087,0.24176 0.29022,0.1837 0.31827,0.43825 0.12346,1.12043 -0.16373,0.57331 -0.43844,0.90984 -0.78373,0.96008 -0.41898,0.061 -0.58842,0.38731 -0.79958,1.54 -0.264,1.44116 -0.25662,1.4707 0.50274,2.01141 0.66011,0.47004 0.75,0.67613 0.6266,1.43656 -0.0792,0.48829 -0.0325,0.8878 0.10388,0.8878 0.13637,0 0.24795,0.36858 0.24795,0.81907 0,0.45049 0.20836,1.19433 0.46302,1.65297 0.25466,0.45864 0.60436,0.95326 0.77711,1.09915 0.17274,0.1459 0.39037,0.69055 0.48362,1.21033 0.15376,0.85706 0.083,1.01105 -0.75945,1.65365 -0.51095,0.38972 -1.23459,0.70858 -1.60811,0.70858 -0.59382,0 -0.67911,-0.11122 -0.67911,-0.88556 0,-0.48706 -0.22232,-1.1419 -0.49405,-1.45521 -0.27215,-0.31379 -0.80693,-0.56965 -1.19063,-0.56965 -0.46795,0 -0.69657,-0.14178 -0.69657,-0.43199 0,-0.23759 0.22633,-0.62828 0.50296,-0.86819 0.45392,-0.39369 0.47207,-0.55782 0.1862,-1.68368 -0.17421,-0.68611 -0.46007,-1.3908 -0.63524,-1.56597 -0.17518,-0.17518 -0.3185,-0.45652 -0.3185,-0.62521 0,-0.16869 -0.48637,-0.85925 -1.08082,-1.53458 -0.59445,-0.67534 -1.24929,-1.22788 -1.45521,-1.22788 -0.20591,0 -0.37439,-0.17859 -0.37439,-0.39688 0,-0.22048 -0.23518,-0.39687 -0.52916,-0.39687 -0.43813,0 -0.52917,0.17639 -0.52917,1.02526 0,0.56389 -0.0776,1.4132 -0.17242,1.88735 -0.10418,0.52093 -0.36594,0.91269 -0.66146,0.98997 -0.26897,0.0703 -0.48904,0.24157 -0.48904,0.38051 0,0.13894 0.16419,0.41681 0.36487,0.61749 0.20068,0.20068 0.44875,0.93631 0.55127,1.63475 0.1364,0.92918 0.40096,1.46796 0.98611,2.00819 0.5526,0.51018 0.7565,0.90352 0.65989,1.27296 -0.081,0.30967 0.007,0.59099 0.20915,0.66855 0.19193,0.0737 0.43061,0.67836 0.5304,1.34381 0.13198,0.88005 0.0853,1.27081 -0.17106,1.43335 -0.19388,0.1229 -0.94894,0.22528 -1.67792,0.22751 -1.04161,0.003 -1.39618,-0.10926 -1.65589,-0.52512 -0.18176,-0.29104 -0.50805,-0.52916 -0.7251,-0.52916 -0.23179,0 -0.39613,0.24565 -0.39825,0.59531 -0.002,0.32742 -0.0783,0.87425 -0.16957,1.21518 -0.13946,0.5209 -0.29731,0.59989 -0.98857,0.4947 -0.45244,-0.0688 -1.03098,-0.0162 -1.28564,0.11704 -0.25466,0.13322 -0.46302,0.4067 -0.46302,0.60773 0,0.20104 -0.14883,0.42558 -0.33073,0.49897 -0.19758,0.0797 -0.14431,0.14187 0.13229,0.15434 0.28216,0.0127 0.46302,0.23083 0.46302,0.55836 0,0.29561 0.1786,0.60601 0.39688,0.68977 0.21828,0.0838 0.39505,0.40745 0.39282,0.7193 -0.002,0.31185 -0.0915,0.69588 -0.19844,0.8534 -0.10691,0.15752 -0.89885,0.42542 -1.75986,0.59532 -0.86102,0.1699 -1.69446,0.28965 -1.85209,0.26611 z"
       id="path7" /></g></svg>
