<?xml version="1.0" encoding="UTF-8" standalone="no"?>
<!-- Created with Inkscape (http://www.inkscape.org/) -->

<svg
   width="121.39423mm"
   height="170.5696mm"
   viewBox="0 0 121.39423 170.5696"
   version="1.1"
   id="svg1"
   xml:space="preserve"
   xmlns="http://www.w3.org/2000/svg"
   xmlns:svg="http://www.w3.org/2000/svg"><defs
     id="defs1" /><g
     id="layer1"
     transform="translate(553.75441,-67.129049)"><path
       id="path11"
       style="display:inline;fill:#000000"
       d="m -490.56118,67.129733 c -0.50235,-0.0057 -1.0433,0.02435 -1.86759,0.08733 -1.73073,0.13224 -1.99645,0.182678 -2.53731,0.481108 -0.33222,0.183309 -1.00106,0.476569 -1.48674,0.65164 -0.86946,0.313319 -0.93242,0.318327 -4.0597,0.318327 -2.07669,0 -3.3136,-0.04789 -3.57342,-0.138493 -0.21855,-0.07619 -0.75496,-0.347564 -1.19218,-0.603064 -0.79494,-0.464647 -0.79476,-0.464613 -1.28157,0.0021 -0.44563,0.427205 -0.79891,0.569162 -4.17184,1.681551 -3.68462,1.215189 -3.68465,1.215344 -5.98,1.398364 -1.26243,0.10065 -2.57181,0.152755 -2.9099,0.115755 -0.61469,-0.06726 -0.61475,-0.06742 -1.19166,0.718303 -0.57691,0.785709 -0.57681,0.78601 -4.67568,2.550749 -2.25438,0.970599 -4.17091,1.76475 -4.25917,1.76475 -0.0883,0 -0.75368,-0.182107 -1.47846,-0.404627 -1.08913,-0.334409 -1.42683,-0.390711 -1.94666,-0.324011 -0.34593,0.04438 -0.66094,0.112629 -0.70021,0.151929 -0.0393,0.03927 -0.16818,0.447225 -0.28629,0.906404 -0.21475,0.834869 -0.21509,0.834674 0.67334,2.497522 0.48864,0.914569 0.88884,1.731593 0.88884,1.815393 0,0.11552 0.64855,0.171444 2.68769,0.232544 1.47838,0.04433 3.36478,0.142258 4.19199,0.217558 1.50403,0.13685 1.50404,0.137009 3.26182,0.995288 1.37643,0.672079 1.76614,0.914595 1.79524,1.118795 0.0222,0.15575 -0.62864,1.518151 -1.61541,3.382739 -0.90866,1.717008 -1.71608,3.190636 -1.79472,3.274736 -0.0786,0.08412 -1.22737,0.339654 -2.55282,0.567924 -1.32544,0.228269 -3.73695,0.719636 -5.35832,1.091406 -2.94795,0.675939 -2.94775,0.675903 -4.65088,0.544153 -1.50919,-0.11674 -1.82708,-0.182022 -2.79053,-0.571542 -0.598,-0.241769 -1.41074,-0.674301 -1.80609,-0.961181 -0.62349,-0.45247 -0.79944,-0.521865 -1.3286,-0.519865 -0.33554,0.001 -0.67149,0.04215 -0.74621,0.09095 -0.0747,0.04882 -0.25884,0.375848 -0.40928,0.727088 -0.27353,0.638599 -0.27355,0.638561 -0.0765,2.657719 0.19707,2.019158 0.19708,2.019105 -0.28525,2.707845 -0.26528,0.378809 -0.48214,0.773005 -0.48214,0.875915 0,0.10287 0.0503,0.187069 0.11213,0.187069 0.0618,0 1.13548,-0.19767 2.3859,-0.43925 2.27351,-0.439159 2.27397,-0.438718 4.72891,0.02377 2.45495,0.46248 2.45486,0.462132 4.22817,1.712041 1.13742,0.801709 1.78736,1.337785 1.81281,1.494995 0.0274,0.16894 -0.27196,0.58981 -0.96325,1.35444 -0.5516,0.61012 -1.45413,1.60649 -2.00556,2.21382 -1.0026,1.10421 -1.00259,1.10398 -0.12402,1.41335 0.48321,0.17016 1.70728,0.483 2.71973,0.69505 1.84081,0.38554 1.84063,0.38555 3.9057,3.52227 1.541,2.34068 2.04825,3.20248 1.99936,3.39565 -0.036,0.14238 -0.21723,0.32627 -0.40256,0.40877 -0.18532,0.0825 -1.80476,0.93891 -3.59874,1.90272 -3.2618,1.75275 -3.26183,1.75238 -4.34909,1.75338 -0.67773,8.3e-4 -1.73101,-0.12041 -2.79673,-0.32194 -1.70972,-0.3233 -1.7096,-0.32315 -3.32125,0.33124 -1.61164,0.6544 -1.61197,0.65417 -2.70474,2.53835 -1.09277,1.8842 -1.09275,1.8844 -1.55288,5.07411 -0.25307,1.75435 -0.48648,3.30679 -0.51883,3.44992 -0.0323,0.14314 -0.31343,0.46542 -0.62477,0.71624 -0.56605,0.45604 -0.56619,0.45626 0.52349,1.51101 1.08968,1.05475 1.08974,1.05482 1.78438,3.1533 0.38206,1.15416 0.69453,2.24175 0.69453,2.41691 0,0.31126 -0.0955,0.3501 -4.19819,1.71255 -2.30893,0.76676 -4.61885,1.4713 -5.13354,1.5658 -0.60844,0.11172 -1.12045,0.29333 -1.46399,0.51883 -0.52837,0.34683 -0.52859,0.34689 0.72916,1.87431 1.25774,1.52742 1.25764,1.52733 2.61172,1.60713 0.74475,0.0439 2.12899,0.18848 3.0763,0.32143 1.50492,0.21122 1.90119,0.2252 3.13831,0.11007 1.16362,-0.10828 1.86865,-0.27016 3.95583,-0.90899 1.39682,-0.42752 3.21071,-0.92474 4.03076,-1.10484 1.17024,-0.257 1.59891,-0.40829 1.99316,-0.70332 0.27628,-0.20674 0.88313,-0.59706 1.34824,-0.86764 0.46511,-0.27058 2.15317,-1.12315 3.75171,-1.89446 2.90642,-1.4024 2.90676,-1.4024 6.16035,-0.36122 2.44355,0.78196 3.36515,1.13069 3.7021,1.40147 0.34178,0.27466 0.86083,0.4684 2.17971,0.81235 0.95218,0.24832 2.08292,0.57467 2.51251,0.72554 0.42959,0.15088 1.27011,0.46453 1.8681,0.69659 0.598,0.23206 1.34933,0.55299 1.66915,0.71366 0.5815,0.29211 0.58147,0.2924 2.20141,-0.60824 1.38162,-0.76814 1.80241,-0.94094 2.86133,-1.17357 1.01521,-0.22299 1.54768,-0.26729 2.92075,-0.24339 1.6792,0.0292 1.67914,0.0291 4.06642,0.90433 1.45735,0.53432 2.02837,0.73741 2.90473,0.54881 l -0.01,0.21394 0.16123,0.6444 -0.22479,0.63201 0.0424,0.66972 -0.26304,0.62425 -0.005,0.67593 0.17726,0.64389 0.0393,0.66611 0.19224,0.64079 0.0238,0.66817 -0.0775,0.66198 -0.18965,0.6382 0.19069,0.64596 0.1018,0.66507 -0.0749,0.6749 -0.26924,0.62373 -0.14986,0.64337 -0.0315,0.65888 0.008,0.65991 0.0269,0.14159 c -0.28556,-0.17993 -0.60165,-0.27225 -1.15032,-0.32918 -0.83948,-0.0871 -0.83935,-0.0873 -2.59105,-1.81488 -1.75171,-1.7276 -1.75186,-1.72775 -5.01365,-1.77508 -3.2618,-0.0473 -3.26176,-0.047 -4.79506,-0.46095 -0.76665,-0.20695 -1.15017,-0.31068 -1.72961,-0.29818 -0.57943,0.0125 -1.35468,0.14096 -2.90576,0.39791 -1.7062,0.28265 -3.15018,0.5437 -3.20859,0.57981 -0.0584,0.0361 -0.10497,0.18463 -0.10387,0.33021 10e-4,0.14558 0.12428,0.48103 0.27388,0.74518 0.21063,0.37188 0.4078,0.53106 0.87385,0.7059 0.33102,0.12419 1.38991,0.37258 2.35334,0.5519 1.64398,0.30599 1.81871,0.36561 2.83911,0.97204 1.08726,0.64616 1.08711,0.64613 3.08043,0.81648 1.15201,0.0985 2.52872,0.14047 3.26182,0.0992 0.84197,-0.0474 2.2154,0.0113 4.08502,0.17415 2.79785,0.2438 2.82057,0.24684 4.55941,1.01338 l -0.0227,0.0977 0.13229,0.65268 0.10491,0.65732 0.10697,0.65578 -0.14521,0.64802 0.0594,0.65319 -0.0723,0.65164 0.20464,0.63924 -0.0512,0.66972 -0.0605,0.65733 -0.14469,0.64389 -0.0124,0.68884 -0.3235,0.60927 0.18397,0.64699 0.10025,0.66404 0.0512,0.65577 0.0956,0.65216 -0.0987,0.65009 -0.0992,0.6506 0.0827,0.66611 0.18758,0.64493 -0.0506,0.67696 -0.2713,0.62218 -0.0434,0.67283 0.22738,0.63614 -0.2341,0.6289 -10e-4,0.67127 0.0894,0.65216 -0.0858,0.65267 -0.11834,0.64803 0.063,0.65629 -0.13229,0.65577 0.16175,0.65009 0.0801,0.65888 -0.16072,0.64388 -0.0212,0.65836 -0.13643,0.64389 0.0393,0.65474 0.0667,0.65216 0.16226,0.64388 -0.03,0.66405 -0.0305,0.65991 -0.15296,0.64233 -0.0584,0.65061 0.0165,0.65319 -0.11369,0.65216 0.10387,0.65267 -0.1757,0.63924 -0.0284,0.66094 -0.0599,0.67024 0.21291,0.63769 -0.0279,0.66301 0.15864,0.64492 0.0295,0.66818 -0.21188,0.63407 -0.10387,0.64802 -0.0537,0.6537 0.0341,0.6563 0.0723,0.65215 -0.0449,0.66663 -0.21498,0.63303 0.1788,0.64286 0.0295,0.66611 0.1757,0.64699 0.0971,0.66404 -0.25993,0.62528 -0.0646,0.67387 -0.0904,0.6537 -0.13333,0.64699 0.12661,0.64802 0.046,0.66043 0.10749,0.65784 -0.16537,0.64595 -0.0393,0.65319 0.0455,0.65268 0.13745,0.64699 -0.0537,0.6599 -0.11214,0.64648 -0.0227,0.65577 0.108,0.66198 -0.19482,0.64182 -0.108,0.65732 0.14314,0.65009 -0.014,0.65267 -0.0279,0.65216 0.11162,0.65319 -0.12092,0.65164 -0.0755,0.65526 0.10129,0.65164 0.0408,0.65629 -0.11834,0.64802 -0.1297,0.64906 -0.11318,0.6506 0.23875,0.63407 -0.047,0.67541 -0.30075,0.61392 -0.0222,0.68368 0.12867,0.65732 0.14263,0.65268 0.0315,0.66507 0.16898,0.64389 -0.28732,0.62012 0.0351,0.68109 0.015,0.65319 -0.0233,0.65164 -0.0791,0.65113 0.0362,0.65422 -0.29766,0.61598 -0.0362,0.68265 0.26458,0.62942 0.0176,0.68161 -0.13125,0.64699 0.0667,0.65732 0.0186,0.65268 -0.005,0.65319 -0.0915,0.64905 0.0129,0.65474 -0.0507,0.65526 0.0775,0.65216 -0.0305,0.65267 -0.0646,0.65112 -0.0729,0.65578 0.11679,0.65009 -0.13798,0.64699 0.0734,0.65732 -0.15141,0.65474 0.16433,0.65112 0.58705,-0.045 0.55759,0.19069 0.58342,0.016 0.56069,-0.16175 0.55398,0.20619 0.58911,-0.0491 0.55604,-0.1943 0.58807,0.0372 0.57103,0.0439 0.57309,0.0258 0.57464,0.008 0.56948,-0.078 -0.11421,-0.64802 -0.03,-0.65681 -0.045,-0.66507 0.18914,-0.64027 -0.22428,-0.63562 0.0811,-0.66921 -0.0382,-0.66508 0.18139,-0.64079 -0.10801,-0.64802 -0.006,-0.65732 0.0641,-0.65061 0.0501,-0.65319 -0.11938,-0.65009 -0.0889,-0.65474 0.26097,-0.62839 -0.0527,-0.67696 -0.14418,-0.64699 0.076,-0.65887 -0.11989,-0.65991 0.18811,-0.64492 0.0656,-0.65526 0.0971,-0.65009 0.003,-0.66404 -0.16588,-0.64182 0.26975,-0.62477 -0.0398,-0.67903 -0.13436,-0.64905 -0.0956,-0.65629 0.20464,-0.63976 -0.091,-0.66507 0.014,-0.65888 -0.12764,-0.64699 0.0486,-0.65319 -0.0636,-0.65215 -0.0894,-0.65268 0.10439,-0.65112 0.0377,-0.66197 0.16382,-0.64286 0.061,-0.67799 -0.26251,-0.62736 0.25993,-0.62683 0.0346,-0.678 -0.16278,-0.64905 -0.13177,-0.65578 0.20567,-0.6413 0.11989,-0.66404 -0.12454,-0.66094 -0.20102,-0.64286 0.03,-0.65681 -0.11007,-0.64802 0.19482,-0.64337 -0.11472,-0.66198 0.0165,-0.67799 0.26149,-0.62684 0.003,-0.68212 -0.2806,-0.62167 -0.26045,-0.62632 0.002,-0.678 -0.032,-0.68471 0.29042,-0.62011 -0.0744,-0.65423 0.0961,-0.65009 -0.10387,-0.6506 0.0822,-0.65423 -0.10026,-0.64905 0.0222,-0.65578 -0.0341,-0.65629 0.11214,-0.64802 -0.0413,-0.66766 -0.20464,-0.63717 0.0708,-0.66198 0.17519,-0.64285 -0.14211,-0.64699 0.0827,-0.65836 0.076,-0.64957 -0.0165,-0.65422 -0.0393,-0.65319 -0.0537,-0.65061 0.154,-0.64492 -0.061,-0.66043 0.0207,-0.66301 -0.16898,-0.64182 0.12609,-0.64595 0.0222,-0.65784 -0.0605,-0.65113 0.032,-0.65422 0.15916,-0.64906 -0.13074,-0.65474 -0.0724,-0.6599 0.154,-0.64493 0.0393,-0.65835 -0.12092,-0.64699 0.047,-0.67593 -0.25321,-0.62787 0.17311,-0.64234 0.0331,-0.66249 -0.22738,-0.63304 0.009,-0.67231 0.20102,-0.63613 0.0171,-0.66766 0.002,-0.65319 0.0264,-0.65216 -0.0822,-0.65061 0.0543,-0.65422 0.20257,-0.63717 -0.031,-0.66663 0.007,-0.66507 -0.1788,-0.64027 -0.0961,-0.65578 0.13694,-0.64905 0.11317,-0.65578 -0.15399,-0.64802 -0.0672,-0.65836 -0.13798,-0.64699 0.154,-0.64388 0.0512,-0.66094 0.002,-0.65475 -0.0816,-0.65008 0.17777,-0.64338 -0.0977,-0.66094 0.0186,-0.66559 -0.18707,-0.64027 0.0124,-0.66198 0.15607,-0.64285 0.092,-0.66404 0.19482,-0.64027 -0.0362,-0.67593 -0.25063,-0.6289 0.23668,-0.63097 -0.0341,-0.67386 -0.262,-0.62839 0.0594,-0.67696 -0.0734,-0.66663 -0.20878,-0.6382 0.16692,-0.64802 0.11524,-0.65784 -0.13643,-0.64596 0.0424,-0.65939 0.17673,-0.64286 -0.0827,-0.66197 0.0858,-0.64906 -0.008,-0.65474 -0.0925,-0.65009 0.015,-0.65525 -0.21239,-0.63769 0.0842,-0.66714 0.22479,-0.63614 -0.0966,-0.66766 0.10077,-0.66611 0.21187,-0.63924 -0.062,-0.22117 c 0.0161,-0.004 0.18597,-0.0746 0.19223,-0.0749 0.0129,-6.1e-4 -0.22421,-0.0887 -0.24132,-0.10026 l -0.0698,-0.24959 -0.13177,-0.65784 -0.18914,-0.64286 0.10077,-0.66197 0.0641,-0.65113 0.0243,-0.65422 -0.27699,-0.6227 -0.017,-0.68213 0.0139,-0.68316 0.28009,-0.62167 -0.2744,-0.62425 0.0263,-0.6811 0.0847,-0.66094 0.1633,-0.64492 -0.0501,-0.65887 -0.13591,-0.64596 0.22066,-0.63407 -0.0346,-0.67128 -0.13798,-0.65267 0.1447,-0.65216 -0.0351,-0.36432 c 1.5609,-1.18129 2.2717,-1.1011 5.77277,-0.27491 4.30248,1.0153 4.30274,1.01564 4.91805,2.13062 0.52475,0.95089 0.64506,1.29682 0.8201,2.35076 0.11288,0.67968 0.21668,1.24257 0.23048,1.25057 0.0138,0.008 0.78252,0.2285 1.7079,0.48989 1.6825,0.47525 1.68237,0.47522 2.74816,2.6479 0.58619,1.19498 1.13464,2.30866 1.21904,2.47478 0.12589,0.24789 0.48205,0.41407 1.98696,0.92708 1.76957,0.60324 1.90105,0.67191 3.7729,1.97145 1.21009,0.84012 1.93886,1.42259 1.93786,1.54926 -0.65666,3.08976 -1.37152,4.54874 -4.47621,5.91954 -2.06467,1.15427 -4.6208,2.45159 -6.77943,3.44062 -3.46529,1.58767 -3.46547,1.58781 -3.6835,2.43706 -0.11992,0.46709 -0.32801,0.958 -0.4625,1.09089 -0.13449,0.13289 -0.43392,0.38675 -0.66559,0.5643 -0.42089,0.3228 -0.42075,0.3228 0.002,0.231 0.23256,-0.0505 1.2111,-0.0272 2.17454,0.0517 0.96343,0.0789 2.14454,0.24363 2.62516,0.36587 0.87386,0.22227 0.87388,0.22216 3.80545,-0.28525 1.61237,-0.27907 3.07811,-0.50714 3.25717,-0.50643 0.28962,0.001 0.54566,0.32619 2.31976,2.94452 1.99415,2.94313 1.99427,2.94316 4.14445,4.15737 1.18258,0.66782 2.53057,1.40668 2.99568,1.64176 0.46511,0.23507 0.91384,0.43057 0.99684,0.43357 0.0828,0.003 0.15251,-0.0624 0.15451,-0.14521 0.002,-0.0831 0.84041,-1.48262 1.86293,-3.11041 1.85914,-2.95963 1.85905,-2.95955 0.93225,-3.46542 -0.50974,-0.27823 -1.14681,-0.63768 -1.41594,-0.7984 -0.48934,-0.29221 -0.48951,-0.29191 -0.70796,-1.54771 -0.12015,-0.6907 -0.29685,-1.48918 -0.39275,-1.77405 -0.15669,-0.46562 -0.14951,-0.68919 0.0734,-2.21434 0.13636,-0.93306 0.24804,-1.82242 0.24804,-1.9761 0,-0.15367 -0.0932,-0.31484 -0.20722,-0.35864 -0.11404,-0.0438 -1.3654,-0.26451 -2.78071,-0.49041 -1.41531,-0.2259 -2.62652,-0.44381 -2.69182,-0.48421 -0.13524,-0.0836 -0.21026,-5.90616 0.032,-6.06061 0.083,-0.0529 1.92252,-0.75651 4.08761,-1.56321 3.93652,-1.46673 3.93632,-1.4663 5.73815,-1.06505 1.13652,0.25309 2.56016,0.46557 3.85558,0.57619 2.05371,0.17536 2.05369,0.17563 4.40645,1.03405 2.24914,0.82064 2.39958,0.85834 3.4153,0.85834 1.0625,0 1.06271,-4e-5 2.79569,-1.5043 1.37071,-1.18981 1.74911,-1.58452 1.80971,-1.88774 0.0422,-0.21085 0.0765,-0.48 0.0765,-0.59841 0,-0.14344 -0.53999,-0.56639 -1.61851,-1.26763 -1.61878,-1.0525 -1.61888,-1.05249 -1.69498,-1.73271 -0.0419,-0.37411 -0.10431,-0.87231 -0.13901,-1.10691 -0.059,-0.39934 -0.14117,-0.46865 -1.29191,-1.08727 -1.22907,-0.66073 -1.22937,-0.66095 -2.37557,-3.22409 -0.94162,-2.10566 -1.20078,-2.58407 -1.45262,-2.68097 -0.16861,-0.0649 -0.83797,-0.25915 -1.48725,-0.4315 -0.64927,-0.17235 -2.00814,-0.43016 -3.01997,-0.5731 -1.51966,-0.21467 -2.43877,-0.26116 -5.28288,-0.26716 -3.44301,-0.007 -3.44317,-0.008 -6.10092,-1.62936 -1.46178,-0.89196 -2.88849,-1.77791 -3.17087,-1.96887 -0.30659,-0.20732 -0.51366,-0.44118 -0.51366,-0.58033 0,-0.12816 0.12232,-0.30827 0.27182,-0.39997 0.1495,-0.0917 1.95704,-1.10729 4.0168,-2.25723 2.05977,-1.14995 3.83404,-2.14537 3.94292,-2.21227 0.14097,-0.0866 0.5368,-0.0401 1.37459,0.16175 1.17645,0.2833 1.17633,0.28317 2.26963,0.0165 0.75675,-0.18455 1.36277,-0.43023 1.96835,-0.79788 0.87491,-0.53118 0.87511,-0.53103 5.14336,-0.95808 2.34755,-0.23488 5.08358,-0.48654 6.08025,-0.55914 0.99666,-0.0726 3.07828,-0.26075 4.62607,-0.41806 2.73511,-0.27798 2.8314,-0.29689 3.41323,-0.67025 0.32926,-0.21128 0.59841,-0.40249 0.59841,-0.42529 0,-0.0227 -0.40755,-0.71827 -0.90588,-1.54513 -0.49833,-0.82688 -0.90641,-1.55921 -0.90641,-1.62781 0,-0.0686 0.4606,-0.84649 1.02319,-1.72857 0.56259,-0.88208 1.01073,-1.61473 0.99633,-1.62833 -0.0144,-0.0136 -0.54236,0.0758 -1.17358,0.19896 -0.63122,0.12313 -1.71834,0.38952 -2.41587,0.59221 -1.2464,0.36297 -1.31503,0.36897 -3.97805,0.36897 -2.70965,0 -2.7096,-2e-4 -6.16138,-1.45934 -3.45177,-1.45914 -3.45206,-1.45929 -4.05608,-2.38384 -0.33222,-0.50851 -1.31654,-1.88057 -2.18747,-3.04891 -1.15821,-1.553715 -1.83032,-2.333039 -2.5032,-2.901628 -0.59007,-0.49863 -0.92146,-0.866771 -0.92346,-1.026811 -0.002,-0.13724 0.83227,-1.496102 1.85363,-3.019971 1.85702,-2.770667 1.85738,-2.770732 2.80913,-3.096452 0.52346,-0.17915 1.26401,-0.38677 1.6459,-0.46147 0.66114,-0.12931 0.68779,-0.148739 0.55552,-0.399459 -0.0764,-0.14482 -0.49749,-0.672289 -0.93586,-1.172538 -0.43838,-0.50026 -1.06041,-1.234169 -1.38235,-1.630909 -0.32195,-0.396739 -1.69179,-1.672727 -3.04374,-2.835485 -1.35195,-1.162779 -2.49059,-2.205255 -2.53059,-2.316655 -0.0454,-1.376335 -1.27518,-1.137758 -1.30018,-1.118278 -1.26317,0.985453 -1.60079,0.06697 -5.76864,-1.562178 -2.29232,-0.896039 -4.19939,-1.700939 -4.23799,-1.789038 -0.0386,-0.08811 -0.2792,-0.568273 -0.53433,-1.066602 -0.25514,-0.49833 -0.58628,-1.10181 -0.73587,-1.34152 -0.27199,-0.43582 -0.27178,-0.436139 -1.64021,-0.591179 -1.29501,-0.146729 -1.4658,-0.199948 -3.18069,-0.995288 -0.99667,-0.462239 -2.37048,-1.195094 -3.05252,-1.628324 -1.21015,-0.768689 -1.30454,-0.805086 -3.92586,-1.506885 -2.20971,-0.591609 -2.8472,-0.812192 -3.59255,-1.245402 -0.49833,-0.28963 -1.2862,-0.670296 -1.75131,-0.845426 -0.54518,-0.205289 -1.4039,-0.384656 -2.41639,-0.505396 -0.66973,-0.07986 -1.13321,-0.121424 -1.63556,-0.127124 z m -10.30325,60.608707 c 0.99256,-0.0667 1.49709,0.10239 3.51503,0.77825 0.96862,0.32441 1.58385,0.52531 2.1053,0.55345 l 0.0543,0.12712 -0.0512,0.67697 -0.27131,0.62218 -0.12557,0.65319 -0.15606,0.64699 0.0584,0.66507 0.17157,0.64493 0.14779,0.64699 -0.0481,0.66094 -0.0279,0.6568 -0.12299,0.64596 -0.0119,0.66198 0.14521,0.64595 -0.0971,0.65009 -0.004,0.031 c -0.88123,-0.0571 -1.75826,-0.20454 -2.61896,-0.44287 -1.30333,-0.36089 -1.30375,-0.36123 -4.05299,-0.22479 -2.74923,0.13644 -2.74898,0.13678 -6.48849,-0.71934 -2.05672,-0.47086 -3.95108,-0.91242 -4.20956,-0.98082 -0.46999,-0.12429 -0.46976,-0.12405 -0.38396,-2.13837 0.0472,-1.10787 0.12275,-2.04711 0.16795,-2.08721 0.0452,-0.0401 1.8004,-0.75727 3.90054,-1.5937 3.62912,-1.44518 3.85088,-1.51768 4.47001,-1.45418 0.37123,0.0381 1.53442,-0.044 2.70474,-0.1912 0.51344,-0.0646 0.89853,-0.11315 1.22939,-0.13539 z" /></g></svg>
