<?xml version="1.0" encoding="UTF-8" standalone="no"?>
<!-- Created with Inkscape (http://www.inkscape.org/) -->

<svg
   width="52.316574mm"
   height="175.89893mm"
   viewBox="0 0 52.316574 175.89893"
   version="1.1"
   id="svg1"
   xml:space="preserve"
   xmlns="http://www.w3.org/2000/svg"
   xmlns:svg="http://www.w3.org/2000/svg"><defs
     id="defs1" /><g
     id="layer1"
     transform="translate(864.5569,-69.795591)"><path
       id="path26"
       style="fill:#000000"
       d="m -831.63075,69.795596 c -0.45367,0.0031 -1.00451,0.287627 -2.46342,1.045414 -2.13867,1.110878 -8.12936,1.834975 -9.28315,1.121896 -0.069,-0.04264 -1.04632,0.510843 -2.17144,1.230416 -3.72933,2.680718 -8.00971,0.757387 -2.75591,5.501989 3.88958,3.472979 4.48578,4.673836 3.70107,7.454843 -1.39262,5.728479 -9.09377,-0.05027 -4.5191,6.221842 1.56532,4.039255 2.10344,6.078755 1.74563,6.6151 -0.5269,0.789809 -2.72518,2.629594 -3.61012,3.021524 -1.04672,0.46358 -0.79912,0.85456 1.86294,2.94504 0.28339,0.22255 0.28112,0.2455 -0.23358,2.38176 -0.83759,3.47638 -0.6914,3.15404 -1.70481,3.75844 -1.2471,0.74377 -1.54031,1.04149 -1.63969,1.66294 -0.18299,1.14436 -3.97468,4.28271 -5.50457,4.55631 -1.65834,0.0984 -2.16402,0.89349 -0.3421,1.13378 1.20651,0.15435 1.2069,0.15466 2.02106,1.01286 5.21655,6.98626 4.91737,1.8466 10.72338,-0.41548 0.0581,-0.0143 1.43812,1.01343 3.067,2.28358 3.63273,2.83269 3.63379,2.83508 2.01021,5.13302 -0.52917,0.74896 -1.17713,1.71882 -1.44022,2.15543 -1.37295,2.27843 -4.02566,3.15561 -8.99997,2.97501 -4.46762,-0.16221 -5.58197,0.0917 -9.2382,2.10685 -0.51565,0.28421 -1.5034,0.72889 -2.19521,0.98805 -2.25274,0.8439 -2.56666,2.01636 -0.90485,3.37809 0.35555,0.29135 1.19492,1.32139 1.86551,2.28875 0.96817,1.39663 1.65196,2.16984 3.32022,3.75429 2.47891,2.35438 2.3587,1.88169 0.94774,3.71915 -1.31369,1.71081 -1.33687,1.78346 -0.65939,2.06654 0.27314,0.11412 0.9069,0.55339 1.4087,0.97617 0.50179,0.42278 1.9023,1.50635 3.11195,2.40812 2.58132,1.9243 2.48555,1.59194 1.00098,3.48455 -1.18878,1.5155 -1.18872,1.51551 -2.54507,1.65984 -1.35635,0.14434 -1.35655,0.14434 -2.09031,1.65985 -0.78434,1.61999 -2.57311,2.73079 -4.84208,3.00705 -0.85699,0.10435 -1.43624,0.67112 -1.06505,1.04231 0.38687,0.38687 3.03049,0.53395 4.35994,0.24237 2.27814,-0.49964 2.49574,-0.43854 6.11487,1.71152 1.72492,1.02474 3.13575,1.92771 3.13521,2.00711 -0.007,1.0636 -0.81181,1.95913 -2.89336,3.21944 -1.14345,0.69232 -2.73873,1.72723 -3.54501,2.30012 -1.64797,1.17095 -1.82291,1.25965 -2.93625,1.48363 -2.4003,0.48289 -3.0976,1.95334 -2.74712,5.79293 0.93477,10.24065 0.79805,9.67085 2.77502,11.55227 1.81974,1.73178 2.17723,1.9294 2.61431,1.44642 1.3018,-1.43848 5.95825,-2.85569 8.02225,-2.44171 1.17076,0.23482 1.22285,0.23278 3.35122,-0.13643 l 4.49068,-1.47277 0.0253,0.0946 0.1018,0.66301 -0.0506,0.65371 0.0336,0.65422 -0.11627,0.65423 0.10439,0.65474 0.0672,0.6599 0.12919,0.65009 -0.11421,0.65319 -0.11058,0.65268 0.1018,0.67644 -0.2651,0.62994 0.24081,0.63665 -0.10594,0.67231 0.002,0.68678 -0.29869,0.61805 0.26614,0.6289 0.002,0.68317 0.0517,0.67179 -0.10646,0.29249 -0.70538,1.28726 c -0.11426,1.58768 -0.23883,3.08656 -0.27698,3.33106 -0.0694,0.44455 -0.0694,0.44467 -2.32338,0.93121 -1.23966,0.2676 -2.33724,0.5699 -2.43912,0.67179 -0.10189,0.10188 -0.62227,0.73661 -1.15652,1.41077 -1.45062,1.83048 -2.0934,2.21644 -4.12378,2.47634 -2.97355,0.38061 -3.36397,0.56321 -3.95377,1.84898 -0.2575,0.56135 -0.63811,1.17801 -0.84594,1.37046 -0.66429,0.61514 -0.53904,0.74797 1.75183,1.85156 2.59755,1.25133 4.60159,1.24148 5.96036,-0.0294 1.09117,-1.02066 0.87496,-1.00706 4.55476,-0.28629 0.96267,0.18856 2.1202,0.45001 3.2334,0.71262 l -0.0832,0.46044 0.0599,0.66972 0.20257,0.64131 -0.17415,0.64285 -0.0672,0.66301 -0.0284,0.67696 0.24081,0.63407 -0.0238,0.66301 0.15296,0.64596 -0.19895,0.6382 0.0413,0.66766 0.0517,0.65422 -0.0599,0.65371 0.12971,0.65629 -0.14987,0.65216 0.0517,0.67592 -0.25269,0.62994 -0.008,0.66714 0.17983,0.64286 -0.017,0.66404 -0.16743,0.64182 0.11834,0.65009 0.0377,0.65991 0.15141,0.64595 v 0.66301 l -0.26717,0.6289 0.0873,0.67697 0.15762,0.66145 0.19792,0.65061 -0.33848,0.60927 -0.046,0.69504 0.18603,0.64803 -0.13281,0.66094 -0.093,0.65009 0.0114,0.6568 0.20051,0.64596 -0.13074,0.66301 -0.0109,0.65629 -0.0873,0.65061 -0.10077,0.65112 0.0491,0.65681 -0.16692,0.65732 0.18965,0.65112 0.54519,-0.093 0.55087,-0.047 0.56172,-0.0672 0.53692,0.1788 0.54829,0.10645 0.55087,0.0868 0.55139,-0.0889 0.54312,-0.13126 0.56896,-0.0439 0.52554,-0.22324 0.51573,0.27337 0.58395,-0.0331 0.0543,-0.6811 -0.27699,-0.62373 0.19017,-0.64131 0.007,-0.66817 0.1912,-0.64079 0.005,-0.66818 -0.0708,-0.65887 -0.1509,-0.64596 -0.20929,-0.64285 -0.14366,-0.65991 0.014,-0.69298 0.31368,-0.61702 -0.0165,-0.66197 0.13901,-0.64699 -0.18241,-0.64131 0.0341,-0.66507 -0.0109,-0.68265 0.27389,-0.62632 -0.047,-0.67282 -0.24081,-0.63097 0.0651,-0.65526 -0.0894,-0.65061 0.12299,-0.65422 -0.12506,-0.65319 0.185,-0.64492 0.0894,-0.66404 0.0357,-0.69505 -0.008,-0.0145 c 0.99994,-0.7166 1.45095,-0.78053 3.37964,-0.96583 2.47954,-0.23822 2.47983,-0.2383 3.30832,-1.75132 1.14233,-2.08617 1.02177,-2.19007 -2.51095,-2.16627 -2.11548,0.0142 -2.11553,0.0143 -3.81373,-1.90325 -0.32621,-0.36835 -0.42109,-0.47269 -0.71313,-0.8015 l 0.007,-0.19637 -0.061,-0.65164 -0.094,-0.67231 -0.24598,-0.63097 0.30592,-0.61908 0.009,-0.69092 0.11782,-0.65008 -0.046,-0.65785 -0.0558,-0.65319 -0.0367,-0.56792 c 0.0393,-0.0704 0.0724,-0.13752 0.11318,-0.20877 1.10581,-1.93008 1.08098,-1.42457 0.20619,-4.12637 -0.15556,-0.48044 -0.25928,-0.8154 -0.35967,-1.1436 l 0.0496,-0.51211 0.25011,-0.63303 -0.14883,-0.65681 -0.0594,-0.19947 c 1.59864,-0.97826 10.31887,-4.3774 12.96924,-5.02709 2.09156,-0.5127 2.17522,-0.68266 0.76068,-1.54512 -1.31974,-0.80466 -8.44911,-3.9764 -14.02757,-3.54397 l 0.0398,-0.11266 0.0222,-0.67386 -0.0238,-0.65991 -0.13539,-0.64595 0.13332,-0.64699 0.001,-0.66094 0.0325,-0.69143 -0.32091,-0.61288 -0.045,-0.68988 0.30696,-0.62012 0.0382,-0.68368 0.27802,-0.62632 -0.28112,-0.6227 -0.0599,-0.6811 0.0687,-0.67489 -0.2496,-0.62994 0.0997,-0.65215 0.0258,-0.30541 c 0.77249,0.0601 1.30087,0.10508 2.26653,0.17415 3.68651,0.26371 3.25275,-0.25178 2.59984,3.09335 -1.57604,6.4626 2.6865,0.62417 7.14272,0.79737 1.34504,0.10084 2.91802,-0.2021 4.43384,-0.8537 1.05302,-0.45267 0.859,-3.90996 -0.23978,-4.2726 -0.87444,-0.28859 -1.69495,-5.03502 -1.5689,-9.0749 0.0962,-3.08374 0.0962,-3.08381 1.99781,-4.82503 1.90163,-1.74122 1.90146,-1.74117 2.29392,-4.98058 0.39247,-3.23939 0.39272,-3.23944 1.46709,-4.65811 1.98414,-1.99605 -2.3708,-4.48103 -4.36562,-6.04304 -1.18209,-0.90717 -1.18236,-0.90728 -2.77813,-5.67407 -1.55486,-4.6446 -1.46169,-7.05013 0.34933,-9.02633 0.15439,-0.16847 4.2274,-0.78112 5.61982,-0.84542 1.7495,-0.0808 3.25923,-0.67035 3.25923,-1.27228 0,-0.8162 -0.526,-1.58643 -2.21485,-3.24321 -2.71867,-2.66704 -2.75169,-2.89398 -1.31827,-9.0687 0.0566,-0.24396 0.45388,-0.5154 1.56011,-1.06556 1.48413,-0.73812 1.48427,-0.73832 1.80093,-1.55495 0.46858,-1.20844 0.48035,-1.18809 -1.16272,-1.99212 -2.57094,-1.25808 -2.75596,-2.20449 -1.27073,-6.51537 1.43346,-4.16058 1.50714,-3.62936 -0.68264,-4.95783 -3.01288,-1.82783 -2.7903,-1.24699 -1.96939,-5.14078 0.70503,-3.34417 0.70496,-3.34398 1.80092,-3.34398 1.77308,0 2.20698,-0.82733 1.39372,-2.657719 -0.58273,-1.311537 -0.58268,-1.311414 -0.34107,-3.332096 0.13289,-1.111375 0.24094,-2.624889 0.2403,-3.363102 -0.001,-1.342206 -0.001,-1.34225 0.93689,-2.50424 1.31621,-1.63022 1.19478,-1.847534 -1.03766,-1.853634 -0.34775,-9.48e-4 -0.73614,-0.222113 -1.58492,-0.903304 -3.25392,-2.611476 -3.29815,-2.9296 -0.83871,-6.012553 1.9199,-3.264204 7.30008,-2.979869 1.56683,-3.963582 -2.61619,-0.414224 -2.61645,-0.414405 -4.04161,-3.027205 -1.6441,-3.014201 -1.29715,-2.757907 -4.408,-3.260783 -1.46831,-0.237356 -1.9492,-0.253284 -3.75274,-0.126091 -2.0686,0.145887 -2.06855,0.145935 -3.07888,-0.280603 -0.37729,-0.159275 -0.61457,-0.258704 -0.88677,-0.256832 z" /></g></svg>
