<?xml version="1.0" encoding="UTF-8" standalone="no"?>
<!-- Created with Inkscape (http://www.inkscape.org/) -->

<svg
   width="47.889439mm"
   height="184.30019mm"
   viewBox="0 0 47.889439 184.30019"
   version="1.1"
   id="svg1"
   xml:space="preserve"
   inkscape:version="1.3.1 (91b66b0783, 2023-11-16)"
   sodipodi:docname="tree_outlines.svg"
   xmlns:inkscape="http://www.inkscape.org/namespaces/inkscape"
   xmlns:sodipodi="http://sodipodi.sourceforge.net/DTD/sodipodi-0.dtd"
   xmlns="http://www.w3.org/2000/svg"
   xmlns:svg="http://www.w3.org/2000/svg"><sodipodi:namedview
     id="namedview1"
     pagecolor="#ffffff"
     bordercolor="#858585"
     borderopacity="1"
     inkscape:showpageshadow="0"
     inkscape:pageopacity="0"
     inkscape:pagecheckerboard="0"
     inkscape:deskcolor="#505050"
     inkscape:document-units="mm"
     inkscape:zoom="1.1447635"
     inkscape:cx="231.92562"
     inkscape:cy="701.89167"
     inkscape:window-width="1920"
     inkscape:window-height="1112"
     inkscape:window-x="-8"
     inkscape:window-y="-8"
     inkscape:window-maximized="1"
     inkscape:current-layer="layer1" /><defs
     id="defs1" /><g
     inkscape:label="Layer 1"
     inkscape:groupmode="layer"
     id="layer1"
     transform="translate(162.26648,-52.322497)"><path
       style="fill:#000000"
       d="m -144.01023,236.57242 c -0.50932,0.0694 -1.1344,0.0665 -1.38906,-0.006 -0.25466,-0.0729 -0.46302,-0.347 -0.46302,-0.60904 0,-0.26204 0.28665,-0.99745 0.637,-1.63425 0.35035,-0.63679 0.75827,-1.81264 0.90648,-2.61301 0.14821,-0.80036 0.35414,-2.76489 0.45764,-4.36562 0.10349,-1.60073 0.21515,-3.38667 0.24813,-3.96875 0.033,-0.58209 0.15307,-2.15304 0.26685,-3.49101 0.20688,-2.43267 0.20688,-2.43267 -0.5593,-2.60179 -0.42139,-0.093 -0.915,-0.21496 -1.0969,-0.271 -0.1819,-0.056 -0.33073,-0.32923 -0.33073,-0.60709 0,-0.27786 0.26789,-0.70288 0.59531,-0.94449 0.40845,-0.30141 0.4915,-0.48456 0.26458,-0.58349 -0.1819,-0.0793 -0.33073,-0.56401 -0.33073,-1.07713 0,-0.91042 0.0224,-0.93033 0.92605,-0.82483 0.81411,0.095 0.92604,0.0367 0.92604,-0.48264 0,-0.44778 -0.1761,-0.61102 -0.72761,-0.67448 -0.63169,-0.0727 -0.73843,-0.21451 -0.80972,-1.07591 -0.0475,-0.57435 0.036,-0.99218 0.19844,-0.99218 0.1543,0 0.28055,-0.22821 0.28055,-0.50712 0,-0.27892 0.14883,-0.56717 0.33073,-0.64057 0.1819,-0.0734 -0.11575,-0.14285 -0.66146,-0.15434 -0.76341,-0.0161 -0.99218,-0.12844 -0.99218,-0.48732 0,-0.25653 -0.26478,-0.58395 -0.58839,-0.7276 -0.3782,-0.16788 -0.67367,-0.62631 -0.82711,-1.28328 -0.18092,-0.77462 -0.15242,-1.07544 0.11771,-1.24239 0.19603,-0.12115 0.2648,-0.3119 0.15282,-0.42388 -0.11198,-0.11198 -0.58479,-0.32682 -1.05067,-0.47741 -0.69249,-0.22384 -0.8622,-0.43072 -0.92998,-1.1337 -0.0456,-0.47294 -0.19443,-0.85989 -0.33073,-0.85989 -0.1363,0 -0.24782,-0.18115 -0.24782,-0.40255 0,-0.2214 -0.29766,-0.53817 -0.66146,-0.70393 -0.47949,-0.21847 -0.66146,-0.50805 -0.66146,-1.05266 0,-0.57798 0.12359,-0.75128 0.53579,-0.75128 0.38871,0 0.58129,-0.22756 0.70158,-0.82901 0.0915,-0.4577 0.36668,-0.88155 0.61428,-0.9463 0.31387,-0.0821 0.41169,-0.30973 0.32591,-0.75848 -0.0855,-0.44715 -0.003,-0.64121 0.27274,-0.64121 0.21743,0 0.55108,-0.18767 0.74144,-0.41704 0.25335,-0.30527 0.26536,-0.46695 0.0448,-0.60324 -0.1657,-0.10241 -0.38163,-0.68865 -0.47982,-1.30275 -0.15029,-0.93987 -0.10826,-1.11655 0.26564,-1.11655 0.25756,0 0.60677,-0.38909 0.83112,-0.92605 0.31519,-0.75436 0.52817,-0.92604 1.14882,-0.92604 0.45067,0 0.82749,-0.17095 0.92249,-0.41851 0.0883,-0.23018 0.1606,-1.06362 0.1606,-1.85209 0,-0.86675 -0.11515,-1.43356 -0.29123,-1.43356 -0.18279,0 -0.25597,-0.4433 -0.19653,-1.19063 0.0865,-1.08743 0.0429,-1.19062 -0.50252,-1.19062 -0.35448,0 -0.59722,-0.16132 -0.59722,-0.39688 0,-0.22048 -0.23519,-0.39687 -0.52917,-0.39687 -0.32912,0 -0.52763,-0.17504 -0.52511,-0.46302 0.002,-0.25467 0.0915,-0.59581 0.19843,-0.75809 0.10692,-0.16229 0.46228,-0.37867 0.7897,-0.48085 0.32742,-0.10218 0.59531,-0.29683 0.59531,-0.43254 0,-0.13571 -0.2752,-0.24675 -0.61156,-0.24675 -0.33637,0 -0.86717,-0.23813 -1.17957,-0.52917 -0.31239,-0.29104 -0.6325,-0.52917 -0.71134,-0.52917 -0.0789,0 -0.14336,0.17633 -0.14336,0.39184 0,0.21551 -0.29089,0.46484 -0.64642,0.55407 -0.35553,0.0892 -0.77225,0.0845 -0.92604,-0.0106 -0.15379,-0.0951 -0.27889,-0.37415 -0.27799,-0.62022 8.9e-4,-0.24608 0.16186,-0.75446 0.35769,-1.12974 0.19584,-0.37528 0.30066,-1.05989 0.23293,-1.52135 -0.0786,-0.53528 -0.0108,-0.83903 0.18708,-0.83903 0.17063,0 0.23665,-0.11906 0.14671,-0.26458 -0.0899,-0.14552 -0.39462,-0.26458 -0.67707,-0.26458 -0.42129,0 -0.51356,0.18693 -0.51356,1.0405 0,0.80813 -0.11817,1.07801 -0.52916,1.20845 -0.29104,0.0924 -0.52917,0.39806 -0.52917,0.67929 0,0.39177 -0.18561,0.51134 -0.79375,0.51134 -0.61736,0 -0.79375,-0.11759 -0.79375,-0.52917 0,-0.35277 0.17639,-0.52916 0.52917,-0.52916 0.35278,0 0.52916,-0.17639 0.52916,-0.52917 0,-0.29104 0.006,-0.61846 0.014,-0.7276 0.008,-0.10914 -0.18767,-0.24017 -0.43413,-0.29116 -0.24647,-0.051 -0.72787,-0.39459 -1.06979,-0.76353 -0.34193,-0.36893 -0.74121,-1.10112 -0.88731,-1.62706 -0.14609,-0.52595 -0.26629,-1.10283 -0.2671,-1.28196 -8.1e-4,-0.17913 0.29266,-0.39952 0.65216,-0.48974 0.42655,-0.10706 0.80081,-0.0169 1.07724,0.25954 0.23297,0.23298 0.53415,0.42359 0.66927,0.42359 0.13513,0 0.48206,-0.23637 0.77096,-0.52527 0.44307,-0.44306 0.47783,-0.62939 0.22211,-1.19062 -0.16673,-0.36595 -0.4031,-0.66536 -0.52527,-0.66536 -0.12216,0 -0.22211,-0.18709 -0.22211,-0.41577 0,-0.22868 0.17009,-0.58586 0.37798,-0.79375 0.20788,-0.20789 0.61071,-0.37798 0.89518,-0.37798 0.30332,0 0.59627,0.24619 0.7084,0.59532 0.16192,0.50416 0.21013,0.52442 0.31484,0.13229 0.068,-0.25466 0.23398,-0.46302 0.36883,-0.46302 0.13485,0 0.24519,-0.22522 0.24519,-0.50049 0,-0.31319 -0.24754,-0.56261 -0.66146,-0.6665 -0.42708,-0.10719 -0.66146,-0.35173 -0.66146,-0.69014 0,-0.2895 -0.17766,-0.52412 -0.39688,-0.52412 -0.21828,0 -0.39687,-0.11907 -0.39687,-0.26459 0,-0.14552 -0.17859,-0.26458 -0.39688,-0.26458 -0.26458,0 -0.39687,-0.26458 -0.39687,-0.79375 0,-0.43656 -0.11906,-0.79375 -0.26458,-0.79375 -0.14553,0 -0.26459,-0.2301 -0.26459,-0.51134 0,-0.28123 -0.23812,-0.58691 -0.52916,-0.67928 -0.37493,-0.119 -0.52917,-0.40033 -0.52917,-0.96516 0,-0.68214 0.1502,-0.85621 1.04069,-1.206 0.8996,-0.35337 1.06416,-0.54777 1.21388,-1.43392 0.13838,-0.81906 0.28819,-1.02595 0.74525,-1.02918 0.31463,-0.002 0.7146,-0.0947 0.88882,-0.20542 0.20891,-0.13281 0.23281,-0.33413 0.0702,-0.59127 -0.13561,-0.21444 -0.24839,-0.59825 -0.25062,-0.85291 -0.002,-0.26461 0.19436,-0.46476 0.45897,-0.46707 0.35848,-0.003 0.38247,-0.0551 0.10626,-0.23014 -0.19622,-0.12435 -0.31383,-0.44995 -0.26136,-0.72356 0.078,-0.40669 0.42516,-0.53011 1.90273,-0.67641 0.99403,-0.0984 1.87563,-0.24726 1.9591,-0.33073 0.0835,-0.0835 -0.16572,-0.15178 -0.55378,-0.15178 -0.38806,0 -0.70556,-0.13751 -0.70556,-0.30559 0,-0.19271 -0.17102,-0.15553 -0.46302,0.10067 -0.25466,0.22345 -1.14763,0.48859 -1.98437,0.58922 -0.83675,0.10062 -1.52136,0.29344 -1.52136,0.42849 0,0.13505 -0.21431,0.24555 -0.47625,0.24555 -0.26193,0 -0.61912,-0.14288 -0.79375,-0.3175 -0.17462,-0.17463 -0.3175,-0.53343 -0.3175,-0.79734 0,-0.26391 0.14472,-0.71156 0.32159,-0.99478 0.25364,-0.40614 0.24994,-0.71305 -0.0175,-1.45265 -0.1865,-0.51575 -0.26741,-1.16354 -0.17981,-1.43955 0.0876,-0.276 0.45266,-0.57546 0.81125,-0.66546 0.57128,-0.14339 0.64818,-0.30218 0.62128,-1.28308 -0.0169,-0.61569 -0.0851,-0.91107 -0.15169,-0.65641 -0.0666,0.25474 -0.36982,0.46302 -0.67415,0.46302 -0.30424,0 -0.98894,-0.19227 -1.52156,-0.42726 -0.58586,-0.25848 -1.07484,-0.70921 -1.23782,-1.14099 -0.2694,-0.71373 -0.2694,-0.71373 -2.33229,-0.51668 -1.59418,0.15227 -2.14471,0.11523 -2.42297,-0.16303 -0.19804,-0.19804 -0.36007,-0.54015 -0.36007,-0.76024 0,-0.22008 0.11906,-0.47374 0.26458,-0.56368 0.14552,-0.0899 0.26458,-0.44141 0.26458,-0.78105 0,-0.33965 -0.17859,-0.68607 -0.39687,-0.76984 -0.28659,-0.10997 -0.39688,-0.55898 -0.39688,-1.6158 0,-1.44974 0.007,-1.46352 0.79375,-1.46352 0.52917,0 0.79375,-0.13229 0.79375,-0.39687 0,-0.21828 0.16586,-0.39688 0.36858,-0.39688 0.20272,0 0.54788,-0.44648 0.76702,-0.99218 0.21915,-0.54571 0.36799,-1.02476 0.33075,-1.06456 -0.0372,-0.0398 -0.26333,0.003 -0.50244,0.0944 -0.23911,0.0918 -0.43474,0.33268 -0.43474,0.53539 0,0.20272 -0.18157,0.36857 -0.40349,0.36857 -0.23666,0 -0.46913,0.3282 -0.56224,0.79375 -0.13222,0.66108 -0.2859,0.79375 -0.91943,0.79375 -0.58429,0 -0.76067,-0.1227 -0.76067,-0.52917 0,-0.29104 -0.17009,-0.52916 -0.37798,-0.52916 -0.20789,0 -0.56508,-0.1871 -0.79375,-0.41578 -0.22868,-0.22867 -0.41577,-0.70492 -0.41577,-1.05833 0,-0.35341 -0.11907,-0.64256 -0.26459,-0.64256 -0.14552,0 -0.26458,-0.25476 -0.26458,-0.56614 0,-0.31138 0.20836,-0.7281 0.46302,-0.92604 0.44097,-0.34276 0.44097,-0.37704 0,-0.7198 -0.25466,-0.19794 -0.46302,-0.55513 -0.46302,-0.79375 0,-0.23862 0.11906,-0.43385 0.26458,-0.43385 0.14552,0 0.26459,-0.1786 0.26459,-0.39688 0,-0.21828 0.23109,-0.39687 0.51355,-0.39687 0.28245,0 0.58713,0.11906 0.67707,0.26458 0.0899,0.14552 0.36485,0.25077 0.61093,0.23389 0.40336,-0.0277 0.40182,-0.0426 -0.0156,-0.15169 -0.25466,-0.0666 -0.46302,-0.35822 -0.46302,-0.64816 0,-0.28994 0.11863,-0.74883 0.26363,-1.01977 0.145,-0.27093 0.1914,-0.68085 0.10311,-0.91093 -0.0883,-0.23008 -0.44505,-0.48973 -0.7928,-0.57701 -0.50725,-0.12732 -0.63228,-0.33177 -0.63228,-1.034 0,-0.48142 0.13501,-0.92032 0.30002,-0.97532 0.19665,-0.0655 0.15107,-0.24896 -0.13229,-0.53232 -0.23777,-0.23777 -0.43231,-0.67894 -0.43231,-0.98037 0,-0.41657 0.17457,-0.55295 0.7276,-0.5684 0.40019,-0.0112 1.18711,-0.16001 1.74871,-0.33073 1.0211,-0.3104 1.0211,-0.3104 0.46302,-0.81442 -0.49265,-0.44494 -0.55808,-0.4527 -0.55808,-0.0662 0,0.31015 -0.23155,0.43788 -0.79375,0.43788 -0.70556,0 -0.79375,-0.0882 -0.79375,-0.79375 0,-0.52916 0.13229,-0.79375 0.39688,-0.79375 0.21828,0 0.39687,-0.16885 0.39687,-0.37523 0,-0.20638 0.0719,-0.56257 0.15974,-0.79152 0.1006,-0.26215 -0.0219,-0.48511 -0.33073,-0.60215 -0.26976,-0.10223 -0.6393,-0.33285 -0.8212,-0.5125 -0.1819,-0.17965 -0.33073,-0.57326 -0.33073,-0.8747 0,-0.30144 0.11907,-0.54806 0.26459,-0.54806 0.14552,0 0.26458,-0.35719 0.26458,-0.79375 0,-0.43657 0.11906,-0.79375 0.26458,-0.79375 0.14552,0 0.26459,-0.23813 0.26459,-0.52917 0,-0.29104 0.11906,-0.52917 0.26458,-0.52917 0.14552,0 0.26458,-0.10517 0.26458,-0.23372 0,-0.12855 -0.23812,-0.296 -0.52916,-0.37211 -0.29104,-0.0761 -0.52917,-0.33353 -0.52917,-0.57204 0,-0.23852 0.29224,-0.72592 0.64943,-1.08311 0.35719,-0.35719 0.83344,-0.64943 1.05834,-0.64943 0.23251,0 0.4089,-0.22827 0.4089,-0.52917 0,-0.36315 -0.17639,-0.52916 -0.56224,-0.52916 -0.4886,0 -0.54058,-0.1083 -0.39688,-0.82683 0.0909,-0.45475 0.16537,-0.99053 0.16537,-1.19062 0,-0.20009 0.2311,-0.3638 0.51355,-0.3638 0.28245,0 0.58714,-0.11907 0.67707,-0.26459 0.0899,-0.14552 0.45415,-0.26458 0.80937,-0.26458 0.39769,0 0.64584,0.15249 0.64584,0.39688 0,0.21828 0.11906,0.39687 0.26458,0.39687 0.14552,0 0.26459,0.15213 0.26459,0.33807 0,0.18594 0.24443,0.54737 0.54319,0.80317 0.29876,0.25581 0.88138,0.53274 1.29473,0.61541 0.41334,0.0827 0.87522,0.40585 1.0264,0.71818 0.22621,0.46737 0.27803,0.48593 0.29277,0.10486 0.01,-0.25466 0.16674,-0.46768 0.34864,-0.47338 0.1819,-0.006 -0.0562,-0.17854 -0.52917,-0.3841 -0.76698,-0.33336 -0.8599,-0.48948 -0.8599,-1.44485 0,-1.06944 0.002,-1.07111 1.03629,-1.07111 0.57209,0 1.10393,0.14815 1.18731,0.33073 0.0831,0.1819 0.0825,-0.17529 -0.001,-0.79375 -0.13707,-1.01248 -0.0972,-1.12448 0.40019,-1.12448 0.30383,0 0.55242,-0.11906 0.55242,-0.26458 0,-0.14552 0.35719,-0.26459 0.79375,-0.26459 0.5563,0 0.79375,-0.12861 0.79375,-0.42994 0,-0.33661 0.17232,-0.39549 0.79375,-0.2712 0.73965,0.14793 0.79375,0.1051 0.79375,-0.62839 0,-0.61075 0.11858,-0.78714 0.52917,-0.78714 0.29104,0 0.52916,0.11533 0.52916,0.25628 0,0.14096 0.1786,0.18775 0.39688,0.10399 0.21828,-0.0838 0.39687,-0.37769 0.39687,-0.65316 0,-0.27547 -0.17859,-0.50086 -0.39687,-0.50086 -0.21828,0 -0.39688,-0.17859 -0.39688,-0.39687 0,-0.21828 -0.11906,-0.39688 -0.26458,-0.39688 -0.14552,0 -0.27839,-0.44648 -0.29527,-0.99219 -0.0169,-0.5457 -0.0851,-0.78382 -0.1517,-0.52916 -0.0666,0.25466 -0.35039,0.46302 -0.63076,0.46302 -0.33338,0 -0.50977,-0.1831 -0.50977,-0.52917 0,-0.29104 0.11367,-0.52916 0.2526,-0.52916 0.13892,0 0.33579,-0.4435 0.43748,-0.98555 0.10169,-0.54206 0.321,-1.12166 0.48735,-1.28801 0.16635,-0.16636 0.5648,-0.38573 0.88543,-0.48749 0.32064,-0.10177 0.58297,-0.28333 0.58297,-0.403477 0,-0.120145 -0.17962,-0.287376 -0.39917,-0.371623 -0.21954,-0.08425 -0.72091,-0.03085 -1.11415,0.118658 -0.39324,0.149509 -0.9751,0.206547 -1.29303,0.126752 -0.38091,-0.0956 -0.63259,-0.003 -0.73794,0.27155 -0.0879,0.22915 -0.15987,0.83713 -0.15987,1.35108 0,0.93444 0,0.93444 -1.19063,0.75589 -0.97895,-0.1468 -1.19062,-0.1051 -1.19062,0.23455 0,0.22719 -0.16886,0.41308 -0.37524,0.41308 -0.20638,0 -0.56356,-0.0723 -0.79375,-0.1606 -0.23018,-0.0883 -0.41851,-0.32645 -0.41851,-0.52916 0,-0.20272 -0.10085,-0.36857 -0.2241,-0.36857 -0.12326,0 -0.48044,-0.22233 -0.79375,-0.49406 -0.35678,-0.30943 -0.56965,-0.80379 -0.56965,-1.322913 0,-0.455874 0.0893,-0.828862 0.19843,-0.828862 0.10915,0 0.19844,-0.357187 0.19844,-0.79375 0,-0.579563 -0.12494,-0.79375 -0.46302,-0.79375 -0.27992,0 -0.46302,-0.200537 -0.46302,-0.507118 0,-0.278915 0.14883,-0.567171 0.33073,-0.64057 0.26458,-0.106762 0.26458,-0.13763 0,-0.15434 -0.1819,-0.01149 -0.33073,-0.27016 -0.33073,-0.574825 0,-0.320034 0.21046,-0.608975 0.49843,-0.684279 0.33763,-0.08829 0.45571,-0.293694 0.36602,-0.636688 -0.0747,-0.285814 -0.36288,-0.506346 -0.66157,-0.506346 -0.42176,0 -0.50349,-0.134245 -0.40271,-0.661459 0.0848,-0.44355 0.008,-0.661458 -0.23373,-0.661458 -0.19811,0 -0.36019,-0.18233 -0.36019,-0.405179 0,-0.222848 -0.17859,-0.473711 -0.39687,-0.557474 -0.21829,-0.08376 -0.39688,-0.371765 -0.39688,-0.640007 0,-0.268242 0.20836,-0.60907 0.46302,-0.757397 0.25697,-0.149669 0.31584,-0.273265 0.13229,-0.27773 -0.1819,-0.0044 -0.33073,-0.182451 -0.33073,-0.395612 0,-0.213161 -0.23812,-0.515007 -0.52916,-0.670767 -0.29104,-0.155761 -0.52917,-0.517138 -0.52917,-0.803059 0,-0.285922 0.11906,-0.519858 0.26458,-0.519858 0.14552,0 0.26459,-0.127567 0.26459,-0.283482 0,-0.155915 0.17009,-0.453572 0.37797,-0.661458 0.20789,-0.207887 0.50555,-0.377977 0.66146,-0.377977 0.15592,0 0.28348,-0.295387 0.28348,-0.656417 0,-0.501053 0.17222,-0.694153 0.72761,-0.815849 0.40018,-0.08769 0.87643,-0.205281 1.05833,-0.26132 0.1819,-0.05604 0.33073,-0.343751 0.33073,-0.63936 0,-0.45066 0.17094,-0.53747 1.05833,-0.53747 0.58209,0 1.05834,0.119062 1.05834,0.264583 0,0.145521 0.17859,0.264583 0.39687,0.264583 0.26459,0 0.39688,0.264584 0.39688,0.79375 0,0.670278 -0.1029,0.79375 -0.66146,0.79375 -0.3638,0 -0.66146,0.119063 -0.66146,0.264584 0,0.145521 0.11906,0.264583 0.26458,0.264583 0.14552,0 0.26459,0.171567 0.26459,0.38126 0,0.209693 0.13777,0.466407 0.30615,0.570474 0.16839,0.104068 0.70417,0.174252 1.19063,0.155964 0.48646,-0.01829 0.88447,0.06568 0.88447,0.186585 0,0.12091 0.32533,0.157645 0.72296,0.08163 0.39762,-0.07601 0.87387,-0.289121 1.05833,-0.473577 0.18446,-0.184457 0.33537,-0.512552 0.33537,-0.729101 0,-0.216549 0.14883,-0.453779 0.33073,-0.527177 0.1819,-0.0734 0.0628,-0.142852 -0.26458,-0.15434 -0.34349,-0.01205 -0.59531,-0.188767 -0.59531,-0.417764 0,-0.246944 -0.24989,-0.396875 -0.66146,-0.396875 -0.47548,0 -0.66146,-0.142581 -0.66146,-0.507118 0,-0.278915 0.14883,-0.567171 0.33073,-0.64057 0.19758,-0.07972 0.14431,-0.141862 -0.13229,-0.15434 -0.25466,-0.01149 -0.46302,0.09817 -0.46302,0.243695 0,0.145521 -0.23813,0.264583 -0.52917,0.264583 -0.29398,0 -0.52917,-0.176388 -0.52917,-0.396875 0,-0.262556 -0.2626,-0.396875 -0.77592,-0.396875 -0.53102,0 -0.82648,-0.159302 -0.93611,-0.504724 -0.0881,-0.277598 -0.33425,-0.571517 -0.547,-0.653154 -0.21274,-0.08164 -0.3868,-0.330761 -0.3868,-0.553609 0,-0.222849 -0.11906,-0.405179 -0.26458,-0.405179 -0.14552,0 -0.26459,-0.238125 -0.26459,-0.529167 0,-0.304671 0.17639,-0.529166 0.41578,-0.529166 0.37797,0 0.37797,-0.0378 0,-0.415774 -0.22868,-0.228676 -0.41578,-0.526332 -0.41578,-0.661458 0,-0.135127 -0.20836,-0.247508 -0.46302,-0.249737 -0.25466,-0.0022 -0.6205,-0.103902 -0.81298,-0.225942 -0.24512,-0.155408 -0.29575,-0.510927 -0.169,-1.186573 0.1303,-0.69454 0.31724,-0.964683 0.66755,-0.964683 0.26762,0 0.58179,-0.151335 0.69816,-0.3363 0.11637,-0.184965 0.52249,-0.472541 0.90247,-0.639057 0.37999,-0.166516 0.7558,-0.550962 0.83513,-0.854324 0.0957,-0.365949 0.019,-0.551569 -0.22787,-0.551569 -0.20466,0 -0.3721,0.109141 -0.3721,0.242535 0,0.133394 -0.53578,0.242535 -1.19063,0.242535 -0.93551,0 -1.19027,-0.09449 -1.18899,-0.440973 8.9e-4,-0.242534 0.17243,-0.768394 0.38118,-1.168576 0.33005,-0.632694 0.32983,-0.727604 -0.002,-0.727604 -0.21048,0 -0.38118,-0.248072 -0.38118,-0.553937 0,-0.324806 0.21131,-0.609197 0.51086,-0.687531 0.28098,-0.07348 0.5749,-0.300455 0.65316,-0.504396 0.0783,-0.203942 0.027,-0.370803 -0.11399,-0.370803 -0.14096,0 -0.25628,-0.238125 -0.25628,-0.529166 0,-0.292114 0.17639,-0.529167 0.39375,-0.529167 0.25477,0 0.45347,-0.373529 0.56298,-1.058333 0.10207,-0.63832 0.31332,-1.058334 0.53229,-1.058334 0.22701,0 0.36306,-0.297441 0.36306,-0.79375 0,-0.436562 0.11906,-0.79375 0.26458,-0.79375 0.14552,0 0.26459,-0.535781 0.26459,-1.190624 0,-0.905998 0.0994,-1.190625 0.41577,-1.190625 0.22868,0 0.56276,0.148828 0.74241,0.330729 0.17965,0.181901 0.40553,0.539088 0.50196,0.79375 0.0964,0.254661 0.29813,0.463021 0.44822,0.463021 0.15009,0 0.27289,-0.178594 0.27289,-0.396875 0,-0.220487 0.23518,-0.396875 0.52916,-0.396875 0.34511,0 0.52917,0.176388 0.52917,0.507118 0,0.278915 -0.14776,0.556373 -0.32837,0.616573 -0.2361,0.0787 -0.19893,0.238887 0.1323,0.570114 0.41673,0.416733 0.46065,0.419211 0.46065,0.02599 0,-0.23907 0.17009,-0.604762 0.37798,-0.812649 0.20789,-0.207887 0.56507,-0.377976 0.79375,-0.377976 0.23336,0 0.41577,0.222491 0.41577,0.507118 0,0.278915 -0.14882,0.567172 -0.33072,0.64057 -0.19758,0.07972 -0.14432,0.141862 0.13229,0.154341 0.3196,0.01442 0.46302,-0.178142 0.46302,-0.621672 0,-0.353407 -0.1786,-0.821153 -0.39688,-1.039434 -0.21828,-0.218281 -0.39687,-0.577839 -0.39687,-0.799017 0,-0.221178 0.28154,-0.705933 0.62565,-1.077232 0.34411,-0.3713 0.74694,-0.67509 0.89518,-0.67509 0.14824,0 0.32932,-0.228638 0.4024,-0.508085 0.0973,-0.371976 -0.0362,-0.550521 -0.49831,-0.666499 -0.48859,-0.122629 -0.63117,-0.336585 -0.63117,-0.947124 0,-0.61232 0.11834,-0.788709 0.52916,-0.788709 0.42838,0 0.52917,-0.176389 0.52917,-0.926042 0,-0.749652 0.10079,-0.926041 0.52917,-0.926041 0.29398,0 0.52916,0.176389 0.52916,0.396875 0,0.218281 0.16868,0.396875 0.37483,0.396875 0.20616,0 0.41451,0.110259 0.46302,0.24502 0.0485,0.134761 0.41562,0.326263 0.8158,0.425558 0.62983,0.156278 0.7276,0.101433 0.7276,-0.408156 0,-0.485271 0.11621,-0.56648 0.66146,-0.462249 0.45444,0.08687 0.66146,0.0088 0.66146,-0.249353 0,-0.20669 -0.11704,-0.303467 -0.26008,-0.21506 -0.14305,0.08841 -0.67883,0.08218 -1.19063,-0.01383 -0.69847,-0.131034 -0.93054,-0.307446 -0.93054,-0.707364 0,-0.450883 0.12203,-0.508388 0.79375,-0.374044 0.6676,0.133519 0.79375,0.0757 0.79375,-0.363802 0,-0.288102 -0.17806,-0.522552 -0.39687,-0.522552 -0.21829,0 -0.39688,-0.187099 -0.39688,-0.415774 0,-0.228676 0.17009,-0.585863 0.37798,-0.79375 0.20788,-0.207887 0.68413,-0.377976 1.05833,-0.377976 0.5163,0 0.68036,0.134937 0.68036,0.559596 0,0.541506 0.0222,0.545058 0.68638,0.109863 0.42197,-0.276486 0.93158,-0.388189 1.32291,-0.289972 0.3501,0.08787 0.63654,0.336086 0.63654,0.551595 0,0.215509 0.10633,0.391834 0.23628,0.391834 0.12995,0 0.30481,-0.178594 0.38857,-0.396875 0.0838,-0.218281 0.037,-0.396875 -0.10399,-0.396875 -0.14095,0 -0.25628,-0.238125 -0.25628,-0.529166 0,-0.346245 0.17639,-0.529167 0.51027,-0.529167 0.28065,0 0.68886,0.178594 0.90714,0.396875 0.21829,0.218281 0.52445,0.396875 0.68036,0.396875 0.15592,0 0.28348,0.238125 0.28348,0.529167 0,0.352777 -0.17638,0.529166 -0.52916,0.529166 -0.34663,0 -0.52917,0.176389 -0.52917,0.511337 0,0.29884 0.2474,0.588543 0.59531,0.697119 0.32743,0.102181 0.68279,0.318563 0.7897,0.480851 0.12144,0.18433 0.19591,0.121298 0.19844,-0.167953 0.002,-0.254661 0.16776,-0.46302 0.36785,-0.46302 0.20009,0 0.73588,0.07441 1.19063,0.165364 0.58236,0.116473 0.82682,0.315923 0.82682,0.674598 0,0.280078 -0.18582,0.868579 -0.41294,1.30778 -0.22712,0.439201 -0.35559,0.939304 -0.28548,1.11134 0.0701,0.172036 0.13688,0.104433 0.14837,-0.150228 0.0115,-0.254662 0.18974,-0.463021 0.39612,-0.463021 0.20638,0 0.56357,0.07227 0.79375,0.160599 0.23018,0.08833 0.41851,0.342406 0.41851,0.564616 0,0.222209 0.13791,0.864314 0.30647,1.4269 0.16855,0.562587 0.45176,1.022885 0.62936,1.022885 0.17759,0 0.46996,0.355049 0.64971,0.788998 0.17974,0.433948 0.25746,0.96973 0.17269,1.190625 -0.0909,0.236893 -0.48309,0.401627 -0.95617,0.401627 -0.44113,0 -0.80206,0.119062 -0.80206,0.264583 0,0.145521 0.1871,0.264583 0.41578,0.264583 0.22867,0 0.58746,0.171684 0.79729,0.38152 0.20984,0.209836 0.45434,0.745617 0.54334,1.190625 0.16182,0.809105 0.16182,0.809105 -1.47715,0.809105 -1.53979,0 -1.63386,-0.03537 -1.55443,-0.584466 0.0519,-0.358903 0.33983,-0.655056 0.74601,-0.767376 0.59815,-0.165405 0.60659,-0.185435 0.0882,-0.209284 -0.3153,-0.01451 -0.63524,-0.175202 -0.71099,-0.357103 -0.10021,-0.240664 -0.24025,-0.204638 -0.51423,0.132292 -0.20709,0.254661 -0.57176,0.46302 -0.81037,0.46302 -0.23862,0 -0.43386,0.178594 -0.43386,0.396875 0,0.218282 -0.17859,0.396875 -0.39687,0.396875 -0.22049,0 -0.39688,0.235186 -0.39688,0.529167 0,0.291042 -0.11906,0.529167 -0.26458,0.529167 -0.14552,0 -0.26458,0.22962 -0.26458,0.510268 0,0.280647 0.17859,0.688861 0.39687,0.907142 0.21828,0.218282 0.39688,0.583974 0.39688,0.812649 0,0.228676 -0.18974,0.415774 -0.42165,0.415774 -0.2319,0 -0.48058,0.225351 -0.5526,0.500781 -0.079,0.30197 -0.46303,0.569301 -0.96742,0.673375 -0.71899,0.148355 -0.77143,0.209924 -0.37344,0.438408 0.29725,0.170647 0.46302,0.58606 0.46302,1.160306 0,0.716535 -0.11843,0.91779 -0.59531,1.011597 -0.59531,0.117105 -0.59531,0.117105 0,0.313845 0.32742,0.108206 0.59531,0.361446 0.59531,0.562755 0,0.201309 0.1786,0.366016 0.39688,0.366016 0.21828,0 0.39687,0.174857 0.39687,0.388571 0,0.222731 0.15672,0.328435 0.36719,0.247669 0.20195,-0.0775 0.4371,-0.490478 0.52255,-0.917737 0.1105,-0.552494 0.31009,-0.776836 0.69115,-0.776836 0.35278,0 0.53578,0.174289 0.53578,0.510268 0,0.280647 -0.17859,0.688861 -0.39688,0.907143 -0.21828,0.218281 -0.39687,0.46491 -0.39687,0.548065 0,0.08315 0.15231,0.15119 0.33847,0.15119 0.18615,0 0.71231,0.165867 0.70967,0.515028 -3.8e-4,0.05021 0.93253,2.028385 0.91865,2.069411 -0.17353,0.512965 -0.70821,0.0048 -0.82851,-0.455217 -0.11652,-0.445585 -0.28556,-0.546383 -0.7117,-0.424391 -0.30738,0.08799 -0.88629,0.231539 -1.28648,0.318987 -0.42086,0.09197 -0.7276,0.0456 -0.7276,-0.109978 0,-0.147936 -0.31488,-0.348003 -0.69973,-0.444594 -0.38485,-0.09659 -0.81194,-0.06341 -0.9491,0.07375 -0.15609,0.1561 -0.14178,0.315855 0.0383,0.427136 0.1582,0.09777 0.28764,0.408868 0.28764,0.691322 0,0.45245 0.19282,0.513551 1.62057,0.513551 1.62058,0 1.62058,0 1.46183,0.79375 -0.0873,0.436563 -0.0521,0.79375 0.0782,0.79375 0.13032,0 0.31383,0.350041 0.40779,0.777868 0.13035,0.593463 0.33918,0.797314 0.88092,0.859896 0.58148,0.06717 0.70818,0.213792 0.69964,0.809632 -0.006,0.400182 0.0755,0.727604 0.18061,0.727604 0.10507,0 0.26661,0.238125 0.35899,0.529167 0.0924,0.291041 0.39805,0.529166 0.67929,0.529166 0.33494,0 0.51133,0.18254 0.51133,0.529167 0,0.293982 -0.17639,0.529167 -0.39687,0.529167 -0.21828,0 -0.39688,0.09844 -0.39688,0.218759 0,0.120318 0.35719,0.166336 0.79375,0.102262 0.5003,-0.07343 0.79375,-7.77e-4 0.79375,0.196517 0,0.173271 0.26578,0.27527 0.59531,0.228468 0.38258,-0.05433 0.62553,-0.297284 0.67987,-0.67986 0.0559,-0.393436 0.26615,-0.595313 0.62008,-0.595313 0.31302,0 0.59303,0.21987 0.67391,0.529167 0.0761,0.291041 0.30309,0.529166 0.5044,0.529166 0.25741,0 0.36602,0.353295 0.36602,1.190625 0,0.670278 0.12389,1.190625 0.28348,1.190625 0.15591,0 0.45357,0.17009 0.66146,0.377976 0.20788,0.207887 0.37797,0.555153 0.37797,0.771702 0,0.216549 0.12123,0.434136 0.26941,0.483527 0.14817,0.04939 0.34335,0.714156 0.43373,1.477257 0.13572,1.146 0.0932,1.387455 -0.24464,1.387455 -0.2787,0 -0.36488,0.168551 -0.27058,0.529166 0.0761,0.291042 0.23653,0.529167 0.35649,0.529167 0.11996,0 0.2917,-0.119062 0.38163,-0.264583 0.0899,-0.145521 0.38298,-0.264584 0.65119,-0.264584 0.30912,0 0.59403,0.305085 0.77814,0.833232 0.15976,0.458278 0.29047,0.994059 0.29047,1.190625 0,0.196566 -0.15848,0.357393 -0.35217,0.357393 -0.19369,0 -0.51602,0.306172 -0.7163,0.680382 -0.20027,0.374211 -0.33638,1.044552 -0.30246,1.489647 0.0591,0.775094 0.0265,0.802225 -0.77199,0.642535 -0.4585,-0.0917 -0.99736,-0.16673 -1.19745,-0.16673 -0.20009,0 -0.3638,-0.214313 -0.3638,-0.47625 0,-0.261938 0.1141,-0.590355 0.25356,-0.729816 0.13947,-0.139461 0.15935,-0.406013 0.0442,-0.592337 -0.15588,-0.252223 -0.38965,-0.27023 -0.91502,-0.07048 -0.38811,0.147559 -0.70565,0.390298 -0.70565,0.53942 0,0.149123 0.23812,0.271132 0.52916,0.271132 0.35278,0 0.52917,0.176389 0.52917,0.529167 0,0.411574 -0.17639,0.529167 -0.79375,0.529167 -0.52917,0 -0.79375,0.132291 -0.79375,0.396875 0,0.220486 -0.23518,0.396875 -0.52917,0.396875 -0.29104,0 -0.52916,0.119062 -0.52916,0.264583 0,0.145521 -0.23813,0.264583 -0.52917,0.264583 -0.38148,0 -0.52917,-0.176389 -0.52917,-0.632012 0,-0.503561 0.17477,-0.6648 0.8599,-0.79333 0.74332,-0.139449 0.8599,-0.268981 0.8599,-0.955488 0,-0.436793 -0.0893,-0.79417 -0.19844,-0.79417 -0.10914,0 -0.19844,0.238125 -0.19844,0.529167 0,0.396376 -0.18259,0.533833 -0.7276,0.547763 -0.40018,0.01023 -0.96573,0.120922 -1.25677,0.245987 -0.4525,0.194443 -0.46208,0.230085 -0.0662,0.245987 0.38259,0.01537 0.46302,0.271365 0.46302,1.473805 0,1.278817 0.0641,1.455207 0.52916,1.455207 0.35278,0 0.52917,0.17639 0.52917,0.52917 0,0.34606 -0.17639,0.52916 -0.50977,0.52916 -0.28037,0 -0.55347,-0.20835 -0.60688,-0.46302 -0.084,-0.40029 -0.14162,-0.38237 -0.42559,0.1323 -0.2924,0.52994 -0.26934,0.59531 0.21002,0.59531 0.43901,0 0.53847,0.17105 0.53847,0.92604 0,0.74965 -0.10079,0.92604 -0.52917,0.92604 -0.29104,0 -0.52916,-0.11906 -0.52916,-0.26458 0,-0.14552 -0.23813,-0.26459 -0.52917,-0.26459 -0.29104,0 -0.52917,0.0961 -0.52917,0.21367 0,0.11752 0.45673,0.41517 1.01495,0.66146 0.55822,0.24628 1.13965,0.44779 1.29206,0.44779 0.15241,0 0.34663,-0.26584 0.43159,-0.59075 0.085,-0.32491 0.0393,-0.70591 -0.10143,-0.84666 -0.14075,-0.14076 -0.25592,-0.47023 -0.25592,-0.73217 0,-0.33161 0.20089,-0.47625 0.66146,-0.47625 0.41158,0 0.66146,-0.14993 0.66146,-0.39688 0,-0.22048 0.23519,-0.39687 0.52917,-0.39687 0.35278,0 0.52916,0.17639 0.52916,0.52916 0,0.29399 -0.17638,0.52917 -0.39687,0.52917 -0.23662,0 -0.39688,0.24335 -0.39688,0.60266 0,0.33146 0.23813,0.80654 0.52917,1.05574 0.50368,0.43127 0.52917,0.42773 0.52917,-0.0735 0,-0.35019 0.17725,-0.52657 0.52916,-0.52657 0.35278,0 0.52917,0.17638 0.52917,0.52916 0,0.29104 -0.11906,0.52917 -0.26458,0.52917 -0.14552,0 -0.26459,0.17859 -0.26459,0.39687 0,0.22049 0.23519,0.39688 0.52917,0.39688 0.29104,0 0.52917,-0.11906 0.52917,-0.26458 0,-0.14553 0.23812,-0.26459 0.52916,-0.26459 0.34643,0 0.52917,0.17639 0.52917,0.51077 0,0.32824 0.21274,0.54097 0.59531,0.59531 0.38258,0.0543 0.62553,0.29728 0.67986,0.67986 0.0465,0.32742 -0.0428,0.59531 -0.19843,0.59531 -0.15565,0 -0.28299,0.1786 -0.28299,0.39688 0,0.22865 0.23905,0.39688 0.56396,0.39688 0.53808,0 0.55796,0.0935 0.43314,2.03843 -0.0756,1.17795 -0.25781,2.08076 -0.43166,2.13871 -0.16547,0.0552 -0.30086,0.23324 -0.30086,0.39574 0,0.2053 0.0969,0.19857 0.3175,-0.0221 0.17463,-0.17463 0.53182,-0.3175 0.79375,-0.3175 0.28928,0 0.47625,0.19476 0.47625,0.49609 0,0.27285 0.0725,0.85866 0.16114,1.3018 0.14597,0.72982 0.065,0.85642 -0.85989,1.34429 -0.59755,0.31521 -0.82899,0.54345 -0.55802,0.55029 0.30203,0.008 0.46302,0.22124 0.46302,0.61435 0,0.33146 -0.248,0.815 -0.55111,1.07453 -0.38957,0.33356 -0.77735,0.42219 -1.32292,0.30237 -0.6578,-0.14448 -0.7718,-0.089 -0.7718,0.37563 0,0.34621 -0.21932,0.60019 -0.60101,0.69599 -0.52156,0.1309 -0.58785,0.28899 -0.50138,1.19567 0.0871,0.91377 0.0306,1.04482 -0.4507,1.04482 -0.47038,0 -0.52728,0.11533 -0.3916,0.79375 0.13784,0.68921 0.0822,0.79375 -0.42238,0.79375 -0.31963,0 -0.74771,0.16657 -0.9513,0.37015 -0.31715,0.31715 -0.27656,0.39365 0.28348,0.53421 0.4115,0.10328 0.65364,0.35244 0.65364,0.67256 0,0.27969 0.11906,0.5821 0.26458,0.67204 0.14553,0.0899 0.26459,-0.0237 0.26459,-0.25256 0,-0.22885 0.14883,-0.67998 0.33073,-1.00252 0.1819,-0.32254 0.50932,-0.73386 0.7276,-0.91404 0.21828,-0.18018 0.60524,-0.33138 0.8599,-0.33601 0.25466,-0.005 0.46302,0.10237 0.46302,0.23777 0,0.1354 0.26789,0.28422 0.59531,0.33073 0.38258,0.0543 0.62553,0.29728 0.67986,0.67986 0.0465,0.32742 -0.0513,0.59531 -0.21734,0.59531 -0.16603,0 -0.46984,0.16796 -0.67513,0.37325 -0.20529,0.20529 -0.48564,0.41365 -0.623,0.46302 -0.13736,0.0494 -0.33099,0.41719 -0.43028,0.81737 -0.15844,0.63857 -0.10418,0.72805 0.44346,0.73122 0.34319,0.002 0.88069,0.0725 1.19443,0.15665 0.40005,0.10732 0.62424,0.43982 0.75056,1.11321 0.11417,0.60855 0.0748,0.99528 -0.10741,1.05603 -0.15815,0.0527 -0.28755,0.32824 -0.28755,0.61227 0,0.28404 -0.16988,0.78013 -0.37751,1.10243 -0.21628,0.33573 -0.3161,0.89675 -0.23373,1.31361 0.0791,0.40018 0.30848,0.7276 0.5098,0.7276 0.20131,0 0.3644,0.14883 0.36241,0.33073 -0.002,0.18191 -0.0754,0.59862 -0.16315,0.92605 -0.0877,0.32742 -0.33274,0.59531 -0.54445,0.59531 -0.2117,0 -0.57116,0.18625 -0.7988,0.41388 -0.30889,0.3089 -0.33766,0.49011 -0.11339,0.71438 0.22427,0.22426 0.30049,0.21995 0.30049,-0.017 0,-0.17463 0.23813,-0.3175 0.52917,-0.3175 0.29398,0 0.52916,0.17639 0.52916,0.39687 0,0.21828 0.1786,0.39688 0.39688,0.39688 0.22049,0 0.39687,-0.23519 0.39687,-0.52917 0,-0.35278 0.17639,-0.52917 0.52917,-0.52917 0.35278,0 0.52917,0.17639 0.52917,0.52917 0,0.30983 -0.17639,0.52917 -0.42556,0.52917 -0.33162,0 -0.38571,0.16061 -0.24502,0.7276 0.0993,0.40018 0.2908,0.76729 0.42556,0.8158 0.13476,0.0485 0.24502,0.31239 0.24502,0.5864 0,0.4249 0.11811,0.38273 0.80287,-0.28664 0.44158,-0.43165 1.02301,-0.78483 1.29206,-0.78483 0.28364,0 0.55622,0.25013 0.64872,0.59531 0.0877,0.32743 0.16116,0.80368 0.16315,1.05834 0.002,0.25466 -0.17796,0.46302 -0.39988,0.46302 -0.23665,0 -0.46912,0.3282 -0.56223,0.79375 -0.0873,0.43656 -0.26293,0.79375 -0.39027,0.79375 -0.12733,0 -0.46963,0.23812 -0.76067,0.52916 -0.29104,0.29105 -0.52917,0.5887 -0.52917,0.66146 0,0.0728 0.17859,0.13229 0.39688,0.13229 0.21828,0 0.39687,0.2311 0.39687,0.51356 0,0.28245 -0.10788,0.58022 -0.23974,0.66172 -0.13186,0.0815 -0.17751,0.38617 -0.10144,0.67707 0.0761,0.2909 0.21957,0.5289 0.31889,0.5289 0.0993,0 0.33126,0.41672 0.51543,0.92605 0.18418,0.50932 0.44622,0.92604 0.58232,0.92604 0.1361,0 0.24746,0.22354 0.24746,0.49677 0,0.27322 -0.1786,0.64499 -0.39688,0.82614 -0.21828,0.18116 -0.39687,0.4934 -0.39687,0.69386 0,0.20046 -0.18086,0.36448 -0.40192,0.36448 -0.29531,0 -0.3584,0.17337 -0.23786,0.65363 0.1078,0.42951 0.0161,0.80157 -0.26737,1.08506 -0.26329,0.2633 -0.66121,0.37374 -1.0211,0.28341 -0.32433,-0.0814 -0.76729,-0.0357 -0.98437,0.10152 -0.26347,0.16657 -0.28473,0.25087 -0.064,0.25358 0.1819,0.002 0.33073,0.25332 0.33073,0.55798 0,0.33038 -0.21236,0.60948 -0.52619,0.69154 -0.2894,0.0757 -0.45679,0.2499 -0.37197,0.38715 0.0848,0.13724 0.0845,0.52726 -6.7e-4,0.8667 -0.0904,0.36004 -0.42123,0.684 -0.79418,0.7776 -0.49262,0.12365 -0.60584,0.28831 -0.49352,0.71781 0.0802,0.30654 0.0394,0.63446 -0.0906,0.7287 -0.13001,0.0943 -0.38277,0.43373 -0.56169,0.75441 -0.22771,0.4081 -0.24008,0.63572 -0.0412,0.75861 0.15624,0.0966 0.22984,0.45927 0.16356,0.80602 -0.0663,0.34674 -0.018,0.63044 0.10738,0.63044 0.12534,0 0.22789,0.1786 0.22789,0.39688 0,0.21828 0.103,0.39687 0.2289,0.39687 0.1259,0 0.53114,-0.23774 0.90054,-0.52831 0.36941,-0.29057 1.01054,-0.51702 1.42475,-0.50321 0.4142,0.0138 1.20804,0.0848 1.76408,0.15786 1.01098,0.13278 1.01098,0.13278 0.83664,1.16468 -0.16427,0.97229 -0.13588,1.0319 0.49147,1.0319 0.3662,0 0.83854,0.17272 1.04963,0.38381 0.2111,0.2111 0.68449,0.45928 1.05198,0.55151 0.49343,0.12385 0.7109,0.3955 0.83158,1.03875 0.0899,0.47908 0.0417,1.19115 -0.10704,1.58238 -0.14875,0.39123 -0.27045,0.94171 -0.27045,1.22327 0,0.42088 0.18826,0.51195 1.05834,0.51195 0.71238,0 1.05833,0.11682 1.05833,0.35739 0,0.19657 -0.12114,0.70258 -0.2692,1.12448 -0.14806,0.4219 -0.58852,0.91591 -0.97879,1.09781 -0.39028,0.18191 -0.99202,0.33073 -1.3372,0.33073 -0.34519,0 -0.7977,0.17009 -1.00559,0.37798 -0.20788,0.20789 -0.37797,0.50554 -0.37797,0.66146 0,0.15591 -0.22867,0.28348 -0.50815,0.28348 -0.35576,0 -0.5635,-0.25207 -0.69276,-0.84056 -0.14263,-0.6494 -0.0757,-0.92016 0.29413,-1.19062 0.40255,-0.29435 0.41204,-0.35007 0.0596,-0.35007 -0.23052,0 -0.48767,0.17859 -0.57143,0.39688 -0.0838,0.21828 -0.39416,0.39687 -0.68976,0.39687 -0.4198,0 -0.53747,-0.17233 -0.53747,-0.78714 0,-0.73348 -0.0541,-0.77631 -0.79375,-0.62838 -0.50565,0.10113 -0.79376,0.0507 -0.79376,-0.13891 0,-0.16371 -0.24403,-0.29765 -0.5423,-0.29765 -0.29827,0 -0.89358,-0.18165 -1.32292,-0.40367 -0.44745,-0.23139 -0.78061,-0.28785 -0.78061,-0.13229 0,0.14925 0.11906,0.27137 0.26458,0.27137 0.14553,0 0.26459,0.1786 0.26459,0.39688 0,0.21828 0.17859,0.39687 0.39687,0.39687 0.21828,0 0.39688,0.14953 0.39688,0.33229 0,0.18276 0.37042,0.49625 0.82317,0.69666 0.81205,0.35945 0.82041,0.38264 0.61923,1.71823 -0.11217,0.74463 -0.20744,1.59199 -0.21172,1.88303 -0.004,0.29104 0.0859,1.27331 0.2005,2.18281 0.19764,1.56923 0.17994,1.65365 -0.34687,1.65365 -0.37876,0 -0.55515,0.16813 -0.55515,0.52917 0,0.29398 -0.17638,0.52916 -0.39687,0.52916 -0.22049,0 -0.39688,0.23519 -0.39688,0.52917 0,0.35278 -0.17638,0.52917 -0.52916,0.52917 -0.29104,0 -0.52917,0.11906 -0.52917,0.26458 0,0.14552 -0.17859,0.26458 -0.39687,0.26458 -0.21828,0 -0.39688,0.0984 -0.39688,0.21876 0,0.12032 0.35719,0.16634 0.79375,0.10226 0.70919,-0.10408 0.79375,-0.0428 0.79375,0.57499 0,0.43432 0.14573,0.69149 0.39184,0.69149 0.2155,0 0.46857,0.30575 0.56236,0.67944 0.12954,0.51614 0.0343,0.77487 -0.39626,1.07644 -0.31174,0.21835 -0.49406,0.51468 -0.40516,0.65851 0.0889,0.14384 0.0886,0.55241 -6.2e-4,0.90794 -0.0961,0.3828 -0.35441,0.64642 -0.63345,0.64642 -0.25916,0 -0.61408,-0.14287 -0.78871,-0.3175 -0.24694,-0.24694 -0.3175,-0.12809 -0.3175,0.53484 0,0.65496 -0.15492,0.92293 -0.66896,1.15714 -0.48529,0.22111 -0.5761,0.36374 -0.33073,0.51945 0.18603,0.11805 0.78472,0.21646 1.33042,0.21869 0.81445,0.003 0.99219,0.0988 0.99219,0.53322 0,0.29104 -0.23813,0.76729 -0.52917,1.05833 -0.29104,0.29104 -0.67799,0.52931 -0.85989,0.52949 -0.18191,1.8e-4 -0.66214,0.28534 -1.06719,0.6337 -0.67407,0.57972 -0.70071,0.66913 -0.31454,1.05531 0.23206,0.23206 0.48975,0.83986 0.57264,1.35067 0.0829,0.51081 0.2542,0.92875 0.38068,0.92875 0.12648,0 0.22997,-0.11907 0.22997,-0.26459 0,-0.14552 0.23812,-0.26458 0.52916,-0.26458 0.29399,0 0.52917,-0.17639 0.52917,-0.39688 0,-0.21828 0.22539,-0.39687 0.50086,-0.39687 0.27547,0 0.57313,0.18833 0.66146,0.41851 0.0883,0.23019 0.1606,0.70644 0.1606,1.05834 0,0.41483 0.15154,0.63982 0.43096,0.63982 0.36576,0 0.40444,0.21015 0.25566,1.38906 -0.11286,0.8943 -0.3606,1.54553 -0.69554,1.82835 -0.28614,0.2416 -0.52025,0.62028 -0.52025,0.84149 0,0.22121 -0.26789,0.45381 -0.59531,0.51687 -0.41258,0.0795 -0.32058,0.12572 0.29969,0.15069 0.49399,0.0199 1.08674,0.25173 1.32292,0.51742 0.23535,0.26476 0.63627,0.55868 0.89093,0.65316 0.25466,0.0945 0.46302,0.40089 0.46302,0.68093 0,0.28004 -0.17859,0.57769 -0.39687,0.66146 -0.21828,0.0838 -0.39688,0.44666 -0.39688,0.80644 0,0.35978 -0.12505,0.73143 -0.27788,0.82589 -0.15284,0.0945 -0.83745,0.26607 -1.52136,0.38137 -1.19349,0.2012 -1.20444,0.21088 -0.2723,0.24075 0.86208,0.0276 0.99148,0.12364 1.15208,0.85483 0.13647,0.62136 0.0441,1.00872 -0.37585,1.57679 -0.30622,0.41419 -0.55677,0.93648 -0.55677,1.16066 0,0.22417 -0.1786,0.40759 -0.39688,0.40759 -0.21828,0 -0.39687,0.12952 -0.39687,0.28784 0,0.18922 -0.36259,0.22658 -1.05834,0.10903 -1.01858,-0.17209 -1.05833,-0.15185 -1.05833,0.53898 0,0.66281 -0.0633,0.70513 -0.82682,0.55243 -0.45475,-0.0909 -0.931,-0.16537 -1.05833,-0.16537 -0.12734,0 -0.23152,-0.34445 -0.23152,-0.76544 0,-0.45391 -0.17033,-0.83081 -0.41851,-0.92604 -0.23018,-0.0883 -0.46831,-0.1606 -0.52917,-0.1606 -0.0609,0 -0.11065,0.17859 -0.11065,0.39687 0,0.22989 -0.23968,0.39688 -0.56965,0.39688 -0.56089,0 -0.55987,0.008 0.0661,0.52426 0.34969,0.28835 0.75521,0.62274 0.90115,0.74311 0.14595,0.12037 0.6222,0.21187 1.05833,0.20334 0.63489,-0.0124 0.81041,0.10753 0.88039,0.60163 0.0481,0.33942 -0.11921,0.84544 -0.37173,1.12448 -0.44461,0.49128 -0.42853,0.50735 0.5079,0.50735 0.83271,0 0.96705,0.0845 0.96705,0.60854 0,0.33469 -0.14288,0.75141 -0.3175,0.92604 -0.17463,0.17462 -0.76994,0.3175 -1.32292,0.3175 -0.88356,0 -1.00541,0.0766 -1.00541,0.63201 0,0.51282 0.17464,0.66478 0.92604,0.80574 0.77062,0.14457 0.92604,0.28689 0.92604,0.84797 0,0.45172 -0.17464,0.7199 -0.52917,0.81262 -0.29287,0.0766 -0.52916,0.36089 -0.52916,0.63668 0,0.27407 -0.11907,0.49831 -0.26459,0.49831 -0.14552,0 -0.26458,0.19622 -0.26458,0.43604 0,0.38656 -0.27774,0.41559 -2.4474,0.25587 -1.34606,-0.0991 -2.84846,-0.20875 -3.33865,-0.24367 -0.52876,-0.0377 -0.94382,0.0735 -1.02049,0.2733 -0.0711,0.18524 -0.52376,0.3368 -1.00595,0.3368 -0.75939,0 -0.90009,0.10643 -1.0514,0.79534 -0.0961,0.43744 -0.13531,3.17587 -0.0872,6.08539 0.0481,2.90952 0.16935,5.29005 0.26937,5.29007 0.10002,2e-5 0.17555,0.45674 0.16785,1.01495 -0.008,0.5582 0.0657,1.48648 0.16304,2.06284 0.14493,0.85788 0.0796,1.13614 -0.36044,1.53434 -0.31691,0.2868 -1.38139,0.62929 -2.59385,0.83457 -1.131,0.19148 -2.47309,0.40494 -2.98241,0.47435 z"
       id="path6"
       sodipodi:nodetypes="ccssssssssssssssssssssssssssssssssssssssssssssssssscsssssssssssssssssssssssssssssssssssssssssssssssssssscssccssssssssssssssssssssssssssssssssscsssssssssssssssssscssssscsssssssssssssssssssssssssscssssssssssccsssscssssssssssssssssssssssssssssssssssssssssssscssssssssssssssssssssssssssssssssssssssssssssssssssssssssssssssssssscssssssssssssssssssssssssssssssssssssssssssssssssssssssscsssssssssscssssssssssssssssssssssssssssssssscsssssssssssssssssssssssssssssscssssssssssssssssssssssssssssssssssssssssssssssssssssssscssssssssscsssssssssssssssssssssssscsssssscssssscsssssssssscscsssssssssssssscsssssssssssssssssssssssssssssssssssssscssscsssscsssssscssssssssssssssssssssssssssssssssccsssssssssssssssssssscsssssssssssssssssssssssssssssssssssssssssssssssssssssssssssssssscssscc" /></g></svg>
