<?xml version="1.0" encoding="UTF-8" standalone="no"?>
<!-- Created with Inkscape (http://www.inkscape.org/) -->

<svg
   width="102.0479mm"
   height="152.92021mm"
   viewBox="0 0 102.0479 152.92021"
   version="1.1"
   id="svg1"
   xml:space="preserve"
   xmlns="http://www.w3.org/2000/svg"
   xmlns:svg="http://www.w3.org/2000/svg"><defs
     id="defs1" /><g
     id="layer1"
     transform="translate(776.90218,-88.231374)"><path
       id="path44"
       style="fill:#000000;stroke-width:1"
       d="m -722.85168,88.23831 c -1.00317,0.03726 -1.56684,0.236133 -2.69417,0.63384 -2.25463,0.795413 -2.25435,0.795263 -4.22279,1.08788 -1.79498,0.266829 -2.09077,0.292071 -3.3539,0.285437 -1.38519,-0.0073 -1.38503,-0.0074 -4.08252,0.548489 -2.53329,0.522092 -2.84418,0.604221 -5.1036,1.346733 -1.32322,0.434853 -4.0133,1.260789 -5.9781,1.835405 -3.57235,1.044755 -3.57252,1.044793 -5.36979,2.107546 -1.79727,1.06276 -1.7971,1.06263 -4.95738,1.52654 -1.73815,0.25514 -3.96261,0.58214 -4.94304,0.72653 -1.78257,0.26253 -1.78228,0.26257 -2.16386,1.02702 -0.20987,0.42044 -0.38389,0.83649 -0.38653,0.92452 -0.003,0.0936 0.23636,0.47193 0.57612,0.91123 0.31956,0.41319 1.05856,1.48939 1.64197,2.39159 0.91295,1.41182 1.09064,1.73515 1.27502,2.32023 0.21422,0.6798 0.2142,0.67991 -0.11613,1.85919 -0.33034,1.17929 -0.33036,1.17914 -0.30678,5.21903 0.0236,4.0399 0.0236,4.03998 -2.85612,4.48375 -2.87975,0.44377 -2.8797,0.44375 -3.68166,1.13126 -0.44107,0.37811 -0.81236,0.74503 -0.82483,0.81538 -0.0125,0.0704 0.3237,0.79383 0.74718,1.60769 0.42347,0.81384 0.7691,1.49665 0.76781,1.51743 -10e-4,0.0208 -1.53241,0.95648 -3.40251,2.07922 -1.87011,1.12273 -3.45918,2.09075 -3.53125,2.15092 -0.11508,0.0961 -0.16212,0.51681 -0.38722,3.46268 -0.14095,1.8445 -0.27342,3.47615 -0.29454,3.62569 -0.0361,0.25525 -0.002,0.31489 0.55584,0.97454 0.56326,0.66611 0.68122,0.87523 2.26985,4.01957 1.67582,3.31688 1.67578,3.31691 0.25431,4.74855 -0.9048,0.91127 -1.79603,1.90116 -2.45175,2.7232 -0.56659,0.71029 -1.03017,1.35507 -1.03017,1.43313 0,0.0786 0.45342,0.65751 1.01548,1.29671 1.01538,1.15477 1.01544,1.15496 2.05962,1.47861 0.5743,0.17802 1.60693,0.45916 2.2947,0.6251 1.25047,0.30169 1.25053,0.30178 1.96238,0.18924 0.70132,-0.11088 0.7608,-0.10799 4.03495,0.19099 3.24734,0.29652 3.38419,0.3152 5.9844,0.82588 2.66103,0.52262 2.66123,0.52293 6.06414,0.41416 1.90305,-0.0608 3.55773,-0.083 3.75441,-0.05 0.19344,0.0324 1.07052,0.13235 1.94875,0.22213 1.59679,0.16323 1.59677,0.16353 4.70237,2.1037 1.70808,1.06709 4.01361,2.55413 5.12354,3.30492 2.01806,1.36507 2.01807,1.36528 2.1044,1.78398 0.0475,0.23029 0.14017,0.67047 0.20603,0.97804 0.11971,0.55924 0.11971,0.55921 3.80094,3.50466 1.51428,1.21163 2.13508,1.72036 2.67982,2.18171 l 0.0287,0.10949 -0.0217,0.11123 0.092,0.0804 0.063,0.10565 0.0249,0.11823 0.009,0.12138 -0.0682,0.10074 -0.007,0.12138 -0.0122,0.11614 -0.007,0.11718 -0.0186,0.11928 0.0434,0.11299 -0.0812,0.0878 -0.0326,0.11578 0.0189,0.11509 -0.0472,0.10634 -0.0217,0.11158 0.0284,0.11124 0.007,0.11753 0.0112,0.11718 -0.0444,0.10984 -0.0665,0.0979 0.005,0.11438 0.042,0.10704 0.0426,0.10564 0.0196,0.11158 -0.0224,0.11439 -0.0658,0.0969 0.005,0.11648 -0.042,0.10879 0.0284,0.11438 0.0671,0.0976 -0.021,0.11578 0.0189,0.11649 0.0297,0.10948 0.0371,0.10774 -0.006,0.11369 -0.008,0.11368 -10e-4,0.11369 0.0406,0.10703 0.0318,0.10704 0.0175,0.11089 0.0276,0.11299 0.02,0.11368 0.0154,0.11858 -0.0413,0.11229 -0.0651,0.0962 -0.0434,0.10704 -3.6e-4,0.12103 -0.0707,0.0983 -0.0203,0.11159 -0.0413,0.10564 -0.0129,0.11298 -0.0399,0.10704 -0.0567,0.10075 -0.0353,0.11053 0.0284,0.11579 -0.0297,0.11508 -0.0116,0.11683 0.0483,0.10704 -0.0252,0.11579 0.042,0.11088 -0.0276,0.11929 0.0284,0.11928 0.0766,0.0913 0.0608,0.10284 0.0147,0.11228 -0.0221,0.11124 0.0458,0.10354 0.0108,0.11229 0.003,0.11718 0.0542,0.10355 -0.0353,0.10878 -0.0217,0.11229 -0.0116,0.11403 -0.0494,0.10284 0.009,0.11754 -0.0637,0.10039 0.0584,0.10284 0.035,0.11229 -0.0514,0.10983 0.007,0.12103 0.0171,0.11649 0.0668,0.0962 -0.0444,0.11018 0.0203,0.11718 0.0119,0.11019 0.007,0.11124 0.0147,0.10949 0.008,0.11089 -0.0637,0.0976 -0.0116,0.11648 -0.0374,0.10704 -0.0371,0.10669 0.0129,0.11334 0.0224,0.11158 0.0203,0.11369 -0.0224,0.11369 -0.0542,0.11298 -0.10564,0.0679 -0.0371,0.11578 -0.0116,0.12034 0.005,0.12313 0.0672,0.10319 0.0297,0.12103 -0.0465,0.11578 -0.005,0.12383 0.0588,0.10879 0.0483,0.11404 0.0987,0.0738 -0.003,0.11682 -0.0259,0.11439 -0.0528,0.10984 0.0189,0.12033 0.0301,0.11928 0.0892,0.0854 0.0616,0.10074 0.0528,0.10565 0.0182,0.12103 0.0405,0.11578 -0.0546,0.11159 -0.009,0.12417 -0.0514,0.1123 0.006,0.12313 -0.0969,0.0745 -0.0595,0.10704 0.0248,0.11579 -0.0161,0.11753 0.008,0.12208 -0.0602,0.10599 0.0486,0.10634 -0.0203,0.11508 -0.0234,0.10984 0.009,0.11229 -0.015,0.11368 0.0238,0.11299 -0.0434,0.10424 -0.0399,0.10633 0.0297,0.10844 -10e-4,0.11159 -0.0339,0.10879 0.0165,0.11264 0.029,0.11368 -0.0441,0.10809 0.004,0.11369 0.0441,0.10423 -0.0318,0.11054 -0.0192,0.11298 -0.0248,0.11299 -0.057,0.10109 0.0483,0.10739 0.0623,0.1004 0.002,0.11753 -0.003,0.11788 0.0101,0.11998 0.0724,0.0958 0.0161,0.11508 0.042,0.10844 -0.0763,0.0934 -0.0143,0.12033 -6.7e-4,0.11788 -0.042,0.11054 0.007,0.11614 -0.0494,0.10564 -0.0122,0.11438 0.0252,0.11193 0.0129,0.11229 0.0385,0.10634 0.0318,0.10739 0.0347,0.10704 0.0392,0.10844 0.006,0.11508 -0.0595,0.10284 0.006,0.11894 -0.0242,0.11193 -0.0616,0.0973 -6.8e-4,0.11333 -0.0101,0.11229 0.0101,0.11019 -0.0171,0.10983 -0.0378,0.10949 0.0347,0.11124 -0.008,0.11543 -0.0567,0.1011 0.0154,0.11228 0.0196,0.11088 -0.0507,0.10425 0.006,0.11578 -0.0245,0.10984 v 0.11299 l 0.057,0.10354 -0.0164,0.11718 0.021,0.11019 0.0311,0.10774 -0.0644,0.10074 0.008,0.11928 0.0227,0.11159 0.008,0.11368 -0.0245,0.11858 -0.0867,0.0847 0.042,0.11368 -0.0326,0.11719 0.0129,0.11753 -0.0238,0.11578 0.0374,0.11508 0.0847,0.0854 0.0154,0.11928 -0.0573,0.10494 0.0384,0.10879 0.003,0.11508 -0.0405,0.10704 -0.0549,0.10075 -0.0469,0.10564 -0.0133,0.11508 -0.0294,0.11508 0.003,0.11858 0.0703,0.0986 0.0192,0.11928 0.0531,0.10144 0.0231,0.11229 0.0203,0.11648 -0.0437,0.10984 0.0105,0.11508 0.0521,0.10285 -0.007,0.11438 -0.0318,0.10949 0.021,0.11648 0.0671,0.0969 0.0196,0.11579 -0.0252,0.11508 -0.0175,0.11753 -0.0759,0.0916 -0.0255,0.11229 0.003,0.11508 0.0301,0.10739 -0.002,0.11193 -0.0287,0.11089 0.0332,0.10984 -0.0703,0.0972 v 0.12069 l 0.0549,0.10423 v 0.11824 l -0.0724,0.0941 -0.028,0.11508 0.006,0.11648 0.014,0.11509 0.0605,0.10039 -0.005,0.11754 0.0238,0.10983 0.003,0.11298 -0.0273,0.10809 0.005,0.11194 -0.005,0.11159 0.0224,0.10914 -0.0102,0.11822 0.0577,0.10355 -0.0308,0.10914 -0.0297,0.10948 v 0.11649 l 0.0504,0.10494 0.0742,0.0913 0.015,0.11718 0.002,0.11298 -6.7e-4,0.11334 0.0378,0.11299 -0.0371,0.11298 -0.0374,0.11229 0.0339,0.11298 -0.0434,0.10984 0.028,0.11509 -0.0535,0.10213 -0.006,0.11579 -0.0332,0.10774 -0.0458,0.10354 -0.0326,0.11684 0.0231,0.11858 0.0406,0.11158 0.0616,0.1018 -0.0644,0.10144 0.005,0.12033 -0.0224,0.11579 -0.0724,0.0934 -0.0577,0.10284 -0.021,0.11579 0.0528,0.10563 0.007,0.11859 0.0269,0.11089 0.0507,0.10144 0.0129,0.11438 -0.0266,0.11194 -0.0587,0.10704 -0.0962,0.0756 -0.0129,0.12313 -0.0717,0.10108 -0.005,0.12908 0.0651,0.11124 -0.0245,0.12383 -0.0651,0.10774 0.0245,0.11893 0.0332,0.11648 0.0833,0.0882 0.0805,0.0906 0.0472,0.11089 0.005,0.12138 -0.0392,0.11543 0.0182,0.12139 0.0357,0.11018 -0.0175,0.11439 -0.005,0.11788 0.0623,0.10005 -0.0504,0.10249 -0.0364,0.10809 0.009,0.11508 -0.0245,0.11229 0.0108,0.11333 -0.0399,0.10599 0.0284,0.11124 -0.0297,0.11019 -0.003,0.11368 -0.0258,0.11124 0.0144,0.11438 0.0546,0.10075 0.0116,0.11228 0.0368,0.10634 -0.015,0.11089 -0.0147,0.11123 -0.042,0.10704 -0.015,0.11438 0.015,0.11439 0.0486,0.10494 -0.0108,0.11439 0.0455,0.10529 0.006,0.11194 -0.009,0.11088 -0.0689,0.0948 -0.0252,0.11439 0.0468,0.11089 -0.0252,0.11788 0.005,0.11998 0.007,0.12034 -0.0833,0.0927 -0.0238,0.12243 0.0535,0.10774 0.007,0.11998 0.0507,0.10739 0.0773,0.0909 -0.0231,0.11578 -0.0552,0.10424 -0.0347,0.11439 -0.0798,0.0885 0.0213,0.11508 0.0381,0.11054 -0.0245,0.11963 0.049,0.11159 0.0364,0.11438 -0.0318,0.11509 -0.0479,0.10634 -0.0137,0.11508 -0.0196,0.11789 0.007,0.11893 -0.0993,0.0745 -0.042,0.11648 0.0805,0.0899 0.0116,0.11998 0.005,0.12033 0.0745,0.0948 -0.0168,0.11648 -0.0245,0.11509 0.0521,0.10773 0.0123,0.11858 0.0374,0.11089 3.5e-4,0.11718 -0.0213,0.11964 0.0494,0.11053 0.009,0.12243 -0.0483,0.11299 -0.0546,0.10949 -0.0955,0.0766 0.0486,0.10564 0.0178,0.11438 0.0507,0.10354 0.0473,0.10424 -0.007,0.11439 -0.0137,0.11368 0.015,0.11929 -0.0515,0.10773 -0.0605,0.10424 -0.0336,0.11509 0.0507,0.11228 -0.009,0.12313 -0.063,0.0969 -0.0399,0.10809 -0.057,0.10249 -0.0144,0.11613 0.057,0.11124 0.10354,0.0696 0.0494,0.11509 -0.0161,0.12452 -0.0266,0.11649 -0.0249,0.11718 0.0133,0.12033 0.0556,0.10844 0.002,0.12173 -0.0413,0.11509 -0.0595,0.10633 -0.0916,0.0805 0.0528,0.10633 0.0123,0.11789 0.0171,0.11578 0.007,0.11614 0.035,0.10704 0.0434,0.10424 10e-4,0.11439 0.0326,0.10913 -0.0493,0.10494 -6.8e-4,0.11649 0.0486,0.10878 -0.0255,0.11719 -0.021,0.12173 -0.078,0.0955 0.0136,0.11929 0.0305,0.11578 0.009,0.11893 -0.0479,0.10984 -0.0917,0.0804 -0.0304,0.11788 0.0665,0.10215 -0.008,0.12173 0.0161,0.11788 -0.0357,0.11299 0.009,0.11858 0.071,0.0951 0.0217,0.11403 0.0588,0.10004 0.0171,0.11929 0.0784,0.092 6.8e-4,0.12032 0.0616,0.10285 -0.029,0.11928 0.0203,0.12033 0.0486,0.10984 0.0686,0.0993 -0.0389,0.11299 -0.05,0.10843 0.0462,0.11719 -0.0332,0.12103 -0.007,0.12243 -0.0731,0.0976 -0.0801,0.0889 -0.0458,0.10949 -0.0332,0.11298 -0.0773,0.0896 -0.0371,0.11088 0.006,0.11719 0.0326,0.11438 0.0598,0.10284 -0.036,0.11369 -0.005,0.11928 -0.0521,0.10424 -0.0203,0.11508 0.0122,0.11439 0.008,0.11508 0.0514,0.10564 0.07,0.0941 -0.0116,0.11683 0.0168,0.11648 0.0115,0.11929 -0.0217,0.11753 0.0137,0.11859 -0.005,0.11858 0.0941,0.079 0.041,0.11649 0.0668,0.0993 0.0374,0.11404 -0.0389,0.10878 -0.007,0.11579 -0.057,0.10214 -0.008,0.11718 -0.0458,0.10564 -0.0224,0.11229 -0.036,0.10914 -0.0378,0.10738 -0.003,0.12943 0.0577,0.11578 -0.0672,0.10775 -0.0269,0.12453 -0.0469,0.11613 -0.10284,0.0721 -0.021,0.12523 -0.0913,0.0878 0.0242,0.11789 0.0612,0.10424 -0.0108,0.11893 0.014,0.11858 0.0102,0.12069 0.0637,0.10284 0.0276,0.12103 0.0948,0.0797 -0.0175,0.11579 0.0122,0.11648 -0.0906,0.0812 -0.0301,0.11789 0.005,0.11298 0.0196,0.11124 -0.0101,0.11299 -0.007,0.11228 -0.021,0.11858 -0.063,0.10215 0.003,0.12103 0.0531,0.10844 0.0179,0.11368 0.005,0.11508 0.036,0.11089 0.071,0.092 0.0305,0.11788 0.0839,0.0889 0.0252,0.11753 -0.0171,0.11859 -0.0861,0.0861 -0.0423,0.11438 0.0297,0.12033 -0.0406,0.11719 -6.8e-4,0.11648 -0.0612,0.0993 0.021,0.11334 -0.0276,0.11159 0.0528,0.10354 0.0476,0.10634 -0.0497,0.11088 0.0189,0.11998 -0.0623,0.0994 -0.0108,0.11718 0.0137,0.11439 -0.004,0.11438 -0.0455,0.11089 -0.0811,0.0874 -0.0297,0.11858 0.0357,0.11683 6.8e-4,0.12068 0.0353,0.11579 -0.009,0.12243 -0.0619,0.10564 0.0896,0.0812 0.0486,0.11019 0.0623,0.10494 0.003,0.12208 0.0405,0.11159 0.0168,0.11859 0.0955,0.077 0.0455,0.11368 0.0353,0.11789 -0.0347,0.11788 -0.0259,0.11578 -0.043,0.10949 -10e-4,0.11229 -0.003,0.11264 -0.0447,0.10808 0.0258,0.11508 -0.0171,0.11159 -0.0154,0.11264 -0.0332,0.10809 -0.0567,0.099 -0.0368,0.11228 -0.0144,0.11719 -0.0668,0.0962 -0.0671,0.0959 0.028,0.11404 0.0371,0.11158 0.021,0.11963 -0.0455,0.11334 0.006,0.11368 -0.002,0.11439 -0.0217,0.11228 -0.0108,0.11369 -0.009,0.11964 0.021,0.11858 0.0934,0.0794 0.0514,0.11018 0.008,0.11719 0.0102,0.11719 0.0644,0.10004 0.0273,0.11578 -0.0171,0.12033 6.8e-4,0.12278 -0.0819,0.0892 -0.0724,0.0983 0.0231,0.10878 0.0182,0.10984 0.0144,0.11019 0.0227,0.10914 -0.007,0.11893 -0.0661,0.0983 0.056,0.10633 -0.0154,0.11964 -0.0158,0.11648 0.0434,0.10878 0.0255,0.11124 0.008,0.11369 6.8e-4,0.11648 0.0224,0.11439 0.0878,0.0833 0.0266,0.11823 -0.0504,0.10494 -0.0311,0.11124 -0.0363,0.11158 -0.0731,0.092 -0.0658,0.10425 -0.0122,0.12208 0.0598,0.10948 -0.006,0.12383 -0.0238,0.11439 -0.004,0.11648 0.0224,0.11859 0.0805,0.0899 -0.0479,0.10354 -0.0186,0.11229 0.0353,0.11264 -0.0284,0.11368 6.8e-4,0.11893 0.0661,0.099 -0.008,0.11508 0.0276,0.11159 -0.0539,0.10214 -0.006,0.11579 0.005,0.11858 -0.0636,0.10004 -0.0381,0.10634 -0.0126,0.11159 -0.005,0.11508 -0.0581,0.0997 -0.008,0.11824 -0.0514,0.10773 0.005,0.12139 0.0668,0.10074 -0.0276,0.11298 -0.0455,0.10634 -0.0105,0.11718 0.0234,0.11439 0.0745,0.0913 0.0238,0.11578 0.0136,0.11439 0.0336,0.10949 0.0108,0.11578 -0.003,0.11648 0.0602,0.10075 0.0262,0.11438 0.0326,0.11264 0.002,0.11613 0.021,0.11928 0.0826,0.0882 -0.005,0.11509 -0.0133,0.11438 -0.0497,0.10739 v 0.11788 l -0.0777,0.0889 -0.0455,0.10949 -0.0651,0.10354 0.008,0.12173 -0.0347,0.11264 0.0182,0.11614 -0.0234,0.11403 -0.0528,0.10284 0.0539,0.10284 0.008,0.11648 0.007,0.11684 0.0609,0.10039 0.007,0.12103 -0.021,0.11928 -0.0623,0.10424 -0.084,0.0871 0.0917,0.086 0.0224,0.12384 0.0242,0.12068 -0.0326,0.11823 0.0941,0.0287 0.0927,-0.0332 0.0909,0.0252 0.0811,0.0479 0.0812,-0.0486 0.0948,-6.8e-4 0.0927,-0.0108 0.0801,-0.0483 0.0857,0.0434 0.0955,-0.008 0.0731,0.0609 0.0941,0.0175 0.0927,0.003 0.091,-0.0203 0.0958,-0.003 0.0794,-0.0542 0.0689,-0.0668 0.0906,-0.0332 0.0724,-0.0671 0.0983,-0.0126 0.0913,0.0399 0.0983,-0.0203 0.0899,-0.036 0.0969,-0.002 0.0833,0.0483 0.0689,0.0675 0.0962,0.001 0.0927,0.0259 0.0902,0.035 0.0847,0.0483 0.0927,-0.0318 0.0979,0.004 0.0882,0.0192 0.0892,0.005 0.0888,0.0122 0.0853,0.029 0.0927,-0.009 0.0899,-0.0248 0.0927,0.0196 0.0805,0.0486 0.0941,-0.0122 0.0745,-0.0588 0.0888,-0.021 0.0868,-0.0297 0.0878,0.029 0.092,0.005 0.092,-0.004 0.0916,-0.008 0.0934,-0.0112 0.0885,-0.0332 0.0832,0.0479 0.0969,0.003 0.0892,0.0203 0.0801,0.0448 0.0885,0.0196 0.0874,0.0255 0.0871,-0.029 0.086,-0.0332 0.0913,0.0158 0.0923,0.005 0.0927,0.007 0.0833,-0.0402 0.0811,-0.0479 0.0934,0.006 -0.0881,-0.0819 -0.0623,-0.10354 -0.0196,-0.11822 -0.0528,-0.10844 -0.0371,-0.11579 0.009,-0.12173 v -0.12453 l 0.0679,-0.10494 0.0479,-0.11718 -0.0196,-0.12523 0.0682,-0.10284 0.0983,-0.0759 -0.003,-0.12033 -0.0535,-0.10774 0.0129,-0.11718 0.0137,-0.11719 0.0347,-0.10878 6.8e-4,-0.11439 10e-4,-0.11578 0.0448,-0.10634 0.0378,-0.10844 0.003,-0.11474 0.009,-0.11648 0.0637,-0.0983 -0.0552,-0.10075 -0.0455,-0.10564 -0.0462,-0.10563 -0.029,-0.1109 0.0189,-0.11578 -0.029,-0.11298 0.0108,-0.11719 -0.0392,-0.11053 0.0784,-0.0972 0.10284,-0.0717 0.0389,-0.11788 0.0189,-0.12313 -0.0637,-0.10774 -0.0259,-0.12313 0.0137,-0.12313 0.0378,-0.11858 -0.0458,-0.11299 -0.0899,-0.0818 0.0105,-0.11928 -0.0133,-0.11859 0.0332,-0.11543 -0.042,-0.11333 -0.008,-0.11824 -0.0654,-0.099 0.0102,-0.11509 0.009,-0.11438 0.0297,-0.11509 0.0791,-0.0878 0.0353,-0.11054 0.029,-0.11229 -0.009,-0.11578 -0.0297,-0.11229 0.014,-0.11368 -0.0234,-0.11229 -0.008,-0.11263 -0.0144,-0.11229 -0.0276,-0.11229 -0.002,-0.11578 -0.0665,-0.0941 -0.0458,-0.10634 0.0927,-0.0812 0.0623,-0.10634 0.0234,-0.11963 -0.004,-0.12278 0.0777,-0.0955 0.0266,-0.11963 -0.0115,-0.11998 0.003,-0.11964 0.043,-0.11787 0.0105,-0.12524 -0.0381,-0.11753 -0.0384,-0.11858 -0.0259,-0.12383 -0.0437,-0.11789 -0.10494,-0.0703 -0.0924,-0.0867 0.0521,-0.10215 0.0311,-0.11054 0.0447,-0.10458 0.0332,-0.10984 -0.0542,-0.10844 -0.0189,-0.11963 0.0675,-0.10424 0.005,-0.12383 -0.007,-0.11228 -0.021,-0.11125 0.0154,-0.11508 -0.0392,-0.10878 -0.0486,-0.10565 -0.0665,-0.0948 -0.0189,-0.11509 0.006,-0.11648 0.0171,-0.12313 -0.0489,-0.11509 0.0563,-0.11088 -0.0108,-0.12488 0.0658,-0.10284 0.0255,-0.11824 0.0833,-0.0867 0.0644,-0.10214 -0.0326,-0.11438 0.005,-0.11859 -0.0305,-0.11438 0.007,-0.11858 -0.0535,-0.11369 -0.10703,-0.0654 v -0.12452 l -0.0616,-0.10844 0.0332,-0.11159 0.0637,-0.0983 0.0514,-0.10354 0.0339,-0.11089 -0.002,-0.11858 -0.0483,-0.10844 -0.0276,-0.11508 0.0217,-0.11614 -0.0441,-0.11053 0.003,-0.11859 0.0378,-0.11019 0.0171,-0.11508 -0.05,-0.10634 -10e-4,-0.11718 -0.0266,-0.11544 -0.0812,-0.0867 0.0238,-0.10983 -0.008,-0.11229 0.0381,-0.10634 0.005,-0.11229 -0.003,-0.11648 0.0318,-0.11159 -0.0787,-0.0913 -0.009,-0.12068 -0.0738,-0.0934 -0.0458,-0.10879 -0.0192,-0.11718 -0.003,-0.11788 0.0255,-0.12034 -0.0311,-0.11998 0.0839,-0.0892 0.0448,-0.11368 0.056,-0.1011 0.0584,-0.10004 -0.0129,-0.12103 0.0609,-0.10494 -0.0108,-0.11998 -0.0608,-0.10355 0.036,-0.11298 -0.006,-0.11928 0.0157,-0.12033 -0.029,-0.11859 0.0363,-0.11438 0.0494,-0.10879 -0.0847,-0.0896 -0.0161,-0.12173 -0.0276,-0.11858 -0.084,-0.0871 -0.0846,-0.0854 -0.0284,-0.11648 -0.0231,-0.11508 -0.0521,-0.10424 -0.0297,-0.11509 -0.0528,-0.10704 -0.0189,-0.12173 0.0472,-0.11368 0.0326,-0.11439 0.0284,-0.11578 -0.0102,-0.11929 -0.029,-0.11577 0.0595,-0.1123 -0.0182,-0.12592 0.10494,-0.0682 0.0556,-0.11229 0.0423,-0.11718 0.004,-0.12383 0.0136,-0.12663 -0.0536,-0.11578 -0.0528,-0.10984 -0.0665,-0.10214 -0.10808,-0.0661 -0.0514,-0.11648 -0.0332,-0.12068 0.0399,-0.11893 0.0745,-0.0941 0.0608,-0.10354 0.0392,-0.11334 -0.0175,-0.11823 0.0563,-0.10284 0.0322,-0.11264 0.007,-0.11228 0.007,-0.11229 0.0258,-0.11018 0.005,-0.11334 -0.0108,-0.11368 -0.0434,-0.10494 -0.0242,-0.11089 -0.05,-0.10214 v -0.11194 l 0.0182,-0.10949 0.005,-0.11298 0.0455,-0.10354 -0.009,-0.11579 0.0465,-0.10634 0.0122,-0.11648 -0.0535,-0.10494 0.078,-0.0906 0.0581,-0.10354 0.0448,-0.10984 0.05,-0.10739 -0.0175,-0.11858 0.0196,-0.11789 0.008,-0.11753 -0.005,-0.11858 -0.003,-0.11648 -0.0175,-0.11509 0.0147,-0.11823 -0.0378,-0.11334 -0.036,-0.11578 -0.0126,-0.12033 -0.0724,-0.0983 -0.0909,-0.0804 -0.0129,-0.11019 -0.029,-0.10773 0.008,-0.1102 -0.005,-0.11123 0.0262,-0.11019 -0.0255,-0.11124 -0.0116,-0.11018 -0.0203,-0.10914 -0.0276,-0.11019 -0.0171,-0.11228 -0.0535,-0.10634 0.0196,-0.11789 0.0137,-0.11368 0.0231,-0.11158 0.0259,-0.11369 0.0668,-0.0955 -0.0682,-0.099 -0.0724,-0.0951 10e-4,-0.11998 -0.009,-0.11963 0.0367,-0.11403 0.0689,-0.0966 0.0189,-0.11788 -0.0217,-0.11789 0.0224,-0.11893 -0.0458,-0.11193 0.0189,-0.12034 0.0847,-0.0875 0.0284,-0.11158 -0.0129,-0.11509 -0.0102,-0.11578 -0.0588,-0.10005 -0.0339,-0.11123 -0.029,-0.11229 -0.008,-0.11963 -0.07,-0.0983 -0.0749,-0.0934 -0.028,-0.11579 -0.0542,-0.10773 0.003,-0.11964 0.0108,-0.11928 -0.0101,-0.11893 0.0556,-0.11194 -0.0196,-0.12313 0.0493,-0.11648 0.10775,-0.0668 0.0756,-0.10074 0.006,-0.12663 -0.0563,-0.1018 -0.0231,-0.11368 -0.0126,-0.11893 0.056,-0.10564 -0.0242,-0.11124 0.0276,-0.11019 -0.0129,-0.11018 -0.021,-0.10914 -0.0441,-0.11019 0.028,-0.11508 0.0217,-0.11264 0.0531,-0.10074 -0.009,-0.11368 -0.0399,-0.10635 -0.003,-0.11508 0.0395,-0.10739 -6.7e-4,-0.12418 -0.0535,-0.11158 -0.10144,-0.071 -0.0619,-0.10775 0.021,-0.11717 -0.0161,-0.11684 0.0528,-0.10984 -0.0116,-0.12103 -0.0137,-0.11508 0.0186,-0.11439 0.0594,-0.099 0.0406,-0.10809 0.0129,-0.11193 0.0182,-0.11019 10e-4,-0.11229 0.0144,-0.11194 0.003,-0.11823 -0.0535,-0.10634 -0.0878,-0.0819 -0.0273,-0.11718 0.0339,-0.11159 0.005,-0.11648 -0.0339,-0.11089 -0.009,-0.11579 -0.006,-0.11508 -0.004,-0.11579 0.077,-0.0909 0.021,-0.11754 0.0374,-0.10773 -0.003,-0.11369 0.009,-0.11159 0.0182,-0.11053 -0.0119,-0.11649 0.0342,-0.11089 -0.005,-0.11963 -0.0717,-0.0962 0.005,-0.11439 -0.004,-0.11508 -0.0196,-0.11789 -0.0797,-0.0885 -0.0182,-0.12137 0.0437,-0.11439 -0.0581,-0.10494 -0.0217,-0.11823 0.0833,-0.0868 0.0318,-0.11508 0.0304,-0.1123 0.0413,-0.10913 -0.042,-0.10844 -0.009,-0.11544 0.0392,-0.11053 -0.0108,-0.11718 0.0381,-0.11824 0.0979,-0.0759 0.0192,-0.11859 -0.0179,-0.11823 0.005,-0.11299 -0.0332,-0.10773 -0.0434,-0.10774 0.0217,-0.11369 -0.057,-0.0993 -0.0269,-0.11124 -0.0144,-0.11298 0.0137,-0.11369 -0.0102,-0.12033 0.0549,-0.10704 0.0224,-0.11998 -0.0497,-0.11089 0.0434,-0.11088 0.0847,-0.0847 0.0165,-0.11578 0.0297,-0.11298 -0.0129,-0.11404 -0.0332,-0.10949 0.0305,-0.11579 -0.0399,-0.11228 -0.0521,-0.11088 0.0245,-0.12069 -0.0644,-0.0983 -0.0637,-0.0972 0.0158,-0.11508 0.002,-0.11578 -0.0654,-0.0969 -0.0301,-0.11368 0.005,-0.11509 -0.0486,-0.10494 -0.0252,-0.10949 -0.0276,-0.10843 0.0588,-0.10844 0.099,-0.0742 0.0318,-0.11649 0.0329,-0.11648 -0.0234,-0.11998 0.0263,-0.11893 -0.0347,-0.11439 -0.0363,-0.11368 -0.0616,-0.1004 -0.0493,-0.10668 -0.0644,-0.0983 -0.0507,-0.10634 0.0147,-0.11858 -0.0217,-0.11754 0.0637,-0.10704 -0.0129,-0.12382 0.0217,-0.11439 -0.0242,-0.11368 0.004,-0.11439 -0.004,-0.11439 0.0322,-0.11508 -0.005,-0.11998 0.0955,-0.0763 0.0434,-0.11438 0.0818,-0.0889 0.0724,-0.0962 0.0147,-0.11963 0.004,-0.12068 -0.0581,-0.10879 -0.002,-0.12313 0.0363,-0.11473 0.0441,-0.11158 -0.0623,-0.10215 -0.0245,-0.11719 -0.0102,-0.12032 0.0441,-0.11229 -0.0115,-0.11509 -0.0451,-0.10703 -0.0238,-0.11649 -0.0798,-0.0881 6.8e-4,-0.11088 v -0.11019 l 0.007,-0.11369 -0.0441,-0.10494 -0.0175,-0.11648 0.0465,-0.10774 -0.0371,-0.10634 -0.0252,-0.11019 -0.05,-0.11158 -0.0784,-0.0941 -0.0266,-0.12278 0.0347,-0.12033 0.0441,-0.10774 0.0444,-0.10704 0.0441,-0.10739 0.0371,-0.11054 -0.0203,-0.10949 -0.003,-0.11158 6.8e-4,-0.11123 0.007,-0.11089 0.0392,-0.10494 0.0179,-0.11124 -0.0108,-0.11229 0.0276,-0.10948 -0.0962,-0.078 -0.0472,-0.11368 -0.006,-0.11964 -0.0297,-0.11648 0.0311,-0.12068 0.0847,-0.0906 0.007,-0.12103 -0.021,-0.11998 -0.005,-0.11439 0.009,-0.11438 0.0297,-0.11089 0.042,-0.10703 0.0196,-0.1144 -6.8e-4,-0.11578 0.0353,-0.11088 0.0668,-0.0955 -0.0175,-0.12208 -0.0441,-0.11439 -0.0847,-0.0885 -0.0892,-0.0833 v -0.12803 l -0.0657,-0.11018 0.0731,-0.10494 0.0116,-0.12733 -0.0413,-0.10494 -0.021,-0.11089 -0.0133,-0.11368 0.0248,-0.11124 -0.0168,-0.11228 0.003,-0.11369 0.0137,-0.11438 0.057,-0.10039 -0.0102,-0.11474 -0.0591,-0.10039 0.0129,-0.11159 0.0129,-0.11229 -0.021,-0.11053 0.0189,-0.11089 -0.0154,-0.11229 0.0363,-0.10774 -0.0846,-0.0913 -0.0182,-0.12277 0.0472,-0.11369 -0.0161,-0.12173 -0.05,-0.10354 -0.0549,-0.10074 -0.0392,-0.10914 -0.007,-0.11578 0.0374,-0.1109 0.0602,-0.10039 -0.0305,-0.11578 0.0231,-0.11684 0.0147,-0.11648 -0.0116,-0.11718 0.0693,-0.0955 0.0405,-0.11018 -0.0276,-0.10984 -0.0395,-0.10564 -0.0318,-0.10949 0.005,-0.11438 -0.0182,-0.11999 -0.0826,-0.0885 -0.005,-0.11579 0.0116,-0.11578 0.0137,-0.11789 6.8e-4,-0.11823 0.063,-0.10039 0.0749,-0.092 -0.003,-0.12383 -0.0637,-0.10564 0.0426,-0.11228 0.0399,-0.11229 0.0311,-0.11368 -0.0171,-0.11649 0.007,-0.11578 0.0357,-0.11054 -0.056,-0.11089 -0.1011,-0.0724 -0.0357,-0.11788 0.014,-0.12243 -3.5e-4,-0.11438 0.0147,-0.11299 0.0644,-0.0962 0.0318,-0.11018 0.0486,-0.10704 -0.007,-0.11788 -0.0245,-0.11159 -0.0255,-0.11159 0.0203,-0.11193 0.0311,-0.10809 0.0363,-0.10774 0.0158,-0.11229 -0.0867,-0.0868 -0.0189,-0.12103 -0.0123,-0.11788 0.0224,-0.11578 0.0196,-0.11369 0.0102,-0.11509 0.0447,-0.10633 0.0364,-0.10949 -0.0399,-0.11929 -0.0993,-0.0773 -0.0252,-0.11963 0.0259,-0.12069 -0.0129,-0.12243 0.0384,-0.11718 0.10564,-0.0682 0.0469,-0.11788 0.0263,-0.11648 -0.0196,-0.11684 -0.036,-0.11123 -0.0326,-0.11229 -0.0311,-0.11089 0.0129,-0.11508 -0.0137,-0.11579 0.0402,-0.10984 -0.0808,-0.0864 -0.0363,-0.11263 0.005,-0.11684 -0.0318,-0.11263 -0.0329,-0.11089 0.0126,-0.11508 -0.071,-0.0934 -0.0182,-0.11578 -0.0175,-0.11439 0.0371,-0.10949 0.0462,-0.10564 -0.002,-0.11508 0.0339,-0.11648 -0.0395,-0.11439 -0.0115,-0.11998 -0.0763,-0.0934 0.035,-0.10879 0.005,-0.11508 0.0657,-0.0969 0.0133,-0.11648 0.0238,-0.12033 -0.0203,-0.12138 0.0563,-0.10739 0.0826,-0.0896 0.0378,-0.11158 -0.004,-0.11858 0.0651,-0.0986 0.0231,-0.11649 -0.0367,-0.11858 -0.0993,-0.0742 -0.0144,-0.11929 -0.0602,-0.10423 0.0305,-0.11999 0.009,-0.12243 -0.0871,-0.0934 -0.0258,-0.12523 -0.0182,-0.11368 -0.0549,-0.10075 -0.0452,-0.10423 -0.0402,-0.10634 -0.0514,-0.10844 -0.0276,-0.11649 0.0196,-0.11753 0.0434,-0.11194 0.0357,-0.11228 -0.0147,-0.11649 -0.0476,-0.10948 0.0165,-0.11859 0.0458,-0.11438 -0.0213,-0.12103 0.10144,-0.0717 0.0392,-0.11858 0.0196,-0.12033 0.0175,-0.12139 -0.0763,-0.10214 -0.009,-0.12732 0.0542,-0.11369 0.10528,-0.0682 0.009,-0.12453 0.0658,-0.10564 -0.021,-0.11858 -0.0101,-0.12033 -0.0595,-0.10844 -0.10039,-0.0717 -0.0378,-0.11229 -0.0237,-0.11578 0.042,-0.11194 0.005,-0.11963 0.003,-0.11368 0.0217,-0.11124 -0.028,-0.11369 0.0347,-0.11228 -0.0434,-0.10634 -0.0616,-0.0966 -0.0469,-0.10843 0.009,-0.11789 -0.0273,-0.11089 -0.029,-0.11123 0.005,-0.11474 0.0238,-0.11263 0.0203,-0.11369 0.063,-0.0962 0.0405,-0.10809 -0.004,-0.11509 0.0297,-0.11508 -0.0385,-0.11159 0.0126,-0.11648 0.0665,-0.0969 -0.002,-0.11228 -0.0263,-0.10914 -0.0171,-0.11019 -0.0203,-0.10984 -0.004,-0.11158 -0.0273,-0.10844 0.0266,-0.10879 0.003,-0.11158 0.0137,-0.11509 0.0399,-0.10843 -0.0255,-0.11299 -0.0507,-0.10354 0.042,-0.10984 0.0119,-0.11718 0.009,-0.11684 0.0385,-0.11123 -0.005,-0.008 c 0.0108,-0.002 0.0105,-0.002 0.0213,-0.004 1.29005,-0.24208 3.84199,-0.79977 5.67098,-1.23935 3.32541,-0.79924 3.32546,-0.7993 5.9634,-0.7993 2.63794,0 2.63777,8e-5 4.91226,0.98364 2.27446,0.98357 2.27448,0.98356 5.20783,1.27783 1.61334,0.16184 3.65512,0.40375 4.53727,0.53764 0.88215,0.13389 1.65315,0.24712 1.71332,0.25186 0.0602,0.005 0.14414,-0.0153 0.18645,-0.0448 0.0423,-0.0294 0.61277,-0.95588 1.26803,-2.05857 1.19136,-2.00491 1.19152,-2.00497 2.12644,-6.23346 0.5142,-2.32568 0.95136,-4.29579 0.9714,-4.37811 0.02,-0.0823 0.39735,-0.48597 0.83882,-0.89724 0.80265,-0.74776 0.80273,-0.74799 6.69134,-2.97085 5.8886,-2.22287 5.88862,-2.22283 7.73304,-2.61162 1.01444,-0.21383 1.86165,-0.40577 1.88264,-0.42676 0.021,-0.021 0.10538,-0.49253 0.18749,-1.04765 0.12952,-0.87564 0.13994,-1.13129 0.078,-1.93055 -0.0714,-0.92127 -0.0716,-0.92117 -2.93973,-4.921 -1.57749,-2.19992 -3.09136,-4.2796 -3.36403,-4.62122 -0.49576,-0.62112 -0.49565,-0.6209 -2.53991,-1.59719 -1.12432,-0.53696 -2.05604,-0.9957 -2.07046,-1.01932 -0.0144,-0.0236 0.31164,-1.53573 0.72478,-3.36019 0.49146,-2.1703 0.95528,-3.9998 1.34149,-5.29179 0.32465,-1.08608 0.59046,-2.0307 0.59046,-2.09915 0,-0.0685 -0.0575,-0.32375 -0.12768,-0.56738 -0.12698,-0.44089 -0.13197,-0.44679 -1.09347,-1.20576 -0.966,-0.76253 -0.96603,-0.76255 -0.9658,-3.25385 2.2e-4,-2.4913 2.2e-4,-2.49119 -0.47993,-5.84482 -0.42244,-2.95062 -0.47084,-3.39984 -0.40297,-3.73937 0.0771,-0.38591 0.0771,-0.38592 -0.50686,-1.38522 -0.53639,-0.91791 -0.83999,-1.30023 -3.72923,-4.69223 -3.14537,-3.6927 -3.14537,-3.69274 -5.0826,-4.23958 -1.06549,-0.30077 -3.55667,-1.00097 -5.53596,-1.55627 -3.59869,-1.00962 -3.59886,-1.00986 -4.89581,-2.184852 -1.29694,-1.174995 -1.29684,-1.174832 -0.4292,-3.158003 0.47719,-1.090744 0.86751,-2.026036 0.86751,-2.078517 0,-0.05248 -0.0409,-0.127696 -0.091,-0.166855 -0.0501,-0.03917 -1.25601,-0.227162 -2.67948,-0.418012 -1.78056,-0.238726 -2.72288,-0.33498 -3.01983,-0.308174 -0.25759,0.02325 -2.7584,-0.161417 -6.20232,-0.45824 -2.88537,-0.248682 -4.32814,-0.373064 -5.33132,-0.335808 z" /></g></svg>
