<?xml version="1.0" encoding="UTF-8" standalone="no"?>
<!-- Created with Inkscape (http://www.inkscape.org/) -->

<svg
   width="44.837734mm"
   height="143.86243mm"
   viewBox="0 0 44.837734 143.86243"
   version="1.1"
   id="svg1"
   xml:space="preserve"
   inkscape:version="1.3.1 (91b66b0783, 2023-11-16)"
   sodipodi:docname="tree_outlines.svg"
   xmlns:inkscape="http://www.inkscape.org/namespaces/inkscape"
   xmlns:sodipodi="http://sodipodi.sourceforge.net/DTD/sodipodi-0.dtd"
   xmlns="http://www.w3.org/2000/svg"
   xmlns:svg="http://www.w3.org/2000/svg"><sodipodi:namedview
     id="namedview1"
     pagecolor="#ffffff"
     bordercolor="#858585"
     borderopacity="1"
     inkscape:showpageshadow="0"
     inkscape:pageopacity="0"
     inkscape:pagecheckerboard="0"
     inkscape:deskcolor="#505050"
     inkscape:document-units="mm"
     inkscape:zoom="1.1447635"
     inkscape:cx="231.92562"
     inkscape:cy="701.89167"
     inkscape:window-width="1920"
     inkscape:window-height="1112"
     inkscape:window-x="-8"
     inkscape:window-y="-8"
     inkscape:window-maximized="1"
     inkscape:current-layer="layer1" /><defs
     id="defs1" /><g
     inkscape:label="Layer 1"
     inkscape:groupmode="layer"
     id="layer1"
     transform="translate(217.49511,-92.760267)"><path
       style="fill:#000000;stroke-width:1"
       d="m -195.67777,236.62268 c 1.18409,0 1.68955,-0.13395 1.68955,-0.44774 0,-0.24625 -0.094,-0.54173 -0.20889,-0.65661 -0.11488,-0.11489 -0.22821,-0.97129 -0.25185,-1.90312 -0.0237,-0.93184 0.0704,-1.69413 0.20888,-1.694 0.13852,1.4e-4 0.25186,0.22692 0.25186,0.50395 0,0.27704 0.16002,0.5037 0.35562,0.5037 0.19559,0 0.26222,0.15112 0.14808,0.33581 -0.11415,0.18469 -0.0617,0.3358 0.11657,0.3358 0.17826,0 0.41492,-0.71778 0.52591,-1.59506 0.11099,-0.87728 0.13234,-2.46394 0.0474,-3.52591 -0.0849,-1.06197 -0.0316,-1.93086 0.1185,-1.93086 0.15008,0 0.20663,-0.71777 0.12569,-1.59505 -0.081,-0.87728 -0.17992,-1.82173 -0.21993,-2.09876 -0.04,-0.27704 -0.3304,-1.08882 -0.64532,-1.80397 -0.31491,-0.71515 -0.57257,-1.58403 -0.57257,-1.93086 0,-0.34682 -0.12494,-0.63059 -0.27764,-0.63059 -0.1527,0 -0.21084,-0.45518 -0.12919,-1.01152 0.0817,-0.55633 0.3055,-1.10856 0.49743,-1.22718 0.19194,-0.11863 0.25094,-0.0571 0.13111,0.13682 -0.11982,0.19388 0.0296,0.44745 0.33199,0.56349 0.3024,0.11605 0.62683,0.13399 0.72093,0.0399 0.0941,-0.0941 -0.23809,-0.49297 -0.73821,-0.88637 -0.64705,-0.50897 -0.87975,-0.96455 -0.80682,-1.57958 0.0848,-0.71472 0.30594,-0.88623 1.27781,-0.99088 0.67919,-0.0731 1.49423,-0.46526 1.93086,-0.92896 0.41555,-0.44134 0.75555,-0.96013 0.75555,-1.15288 0,-0.19275 -0.0916,-0.35046 -0.20352,-0.35046 -0.11195,0 -0.50069,0.37777 -0.86388,0.8395 -0.42341,0.53828 -0.98296,0.8318 -1.55944,0.81803 -0.89908,-0.0215 -0.89908,-0.0215 0.19228,-0.56462 0.60025,-0.29874 1.09135,-0.69273 1.09135,-0.87554 0,-0.18281 -0.26444,-0.63471 -0.58765,-1.00421 -0.32782,-0.37476 -0.3828,-0.55138 -0.12434,-0.39945 0.25588,0.15043 0.40141,0.13868 0.32503,-0.0263 -0.0761,-0.16423 -0.3422,-0.70451 -0.59141,-1.20063 -0.24922,-0.49613 -0.36342,-1.1358 -0.25379,-1.4215 0.12512,-0.32606 0.41135,-0.43809 0.76882,-0.30092 0.48519,0.18618 0.54343,0.0487 0.39345,-0.92912 -0.0968,-0.63121 -0.10959,-1.33211 -0.0284,-1.55756 0.11625,-0.32269 0.25633,-0.32269 0.6583,0 0.28085,0.22545 0.86858,0.76595 1.30608,1.20111 0.79546,0.79118 0.79546,0.79118 0.61614,0 -0.0986,-0.43516 -0.20636,-1.09342 -0.23943,-1.4628 -0.0449,-0.5015 -0.31527,-0.67898 -1.06752,-0.70074 -0.55407,-0.016 -1.27277,0.19712 -1.59712,0.47366 -0.32434,0.27654 -0.67947,0.41304 -0.78917,0.30333 -0.10971,-0.10971 -0.0999,-0.36063 0.0219,-0.55761 0.12175,-0.19698 0.4391,-0.35814 0.70523,-0.35814 0.26614,0 0.48389,-0.13261 0.48389,-0.29468 0,-0.16208 -0.22667,-0.4828 -0.5037,-0.71273 -0.27704,-0.22991 -0.5037,-0.55956 -0.5037,-0.73253 0,-0.17298 0.18888,-0.20102 0.41975,-0.0623 0.25632,0.15399 0.22976,0.0183 -0.0682,-0.34865 -0.43858,-0.54001 -0.42158,-0.59361 0.1679,-0.5295 0.36074,0.0392 0.92032,0.0539 1.24353,0.0327 0.32321,-0.0213 0.58765,-0.16883 0.58765,-0.3279 0,-0.15908 -0.38544,-0.21556 -0.85654,-0.1255 -0.79536,0.15204 -0.84002,0.0948 -0.62518,-0.80212 0.12726,-0.53122 0.29647,-1.08166 0.37605,-1.22318 0.0796,-0.14154 0.27634,-0.17597 0.43726,-0.0765 0.16092,0.0995 0.61246,-0.16252 1.00342,-0.58218 0.39096,-0.41964 0.8533,-0.78188 1.02742,-0.80497 0.17412,-0.0231 0.46769,-0.0609 0.65238,-0.084 0.18469,-0.0231 0.3358,-0.202 0.3358,-0.39759 0,-0.1956 -0.12605,-0.27772 -0.28011,-0.18251 -0.15406,0.0952 -0.73408,0.2531 -1.28893,0.35085 -0.94197,0.16596 -1.00493,0.11227 -0.95007,-0.81003 0.0351,-0.59046 -0.13426,-1.06183 -0.42114,-1.17192 -0.28904,-0.11091 -0.54636,0.0699 -0.64697,0.45468 -0.0973,0.37198 -0.39991,0.5937 -0.72448,0.53078 -0.30658,-0.0594 -0.6137,-0.11961 -0.68248,-0.13375 -0.0688,-0.0141 0.063,-0.25236 0.29297,-0.52939 0.34339,-0.41377 0.31722,-0.5037 -0.14661,-0.5037 -0.31055,0 -0.47922,-0.13821 -0.37482,-0.30713 0.10439,-0.16891 -2e-5,-0.37668 -0.23204,-0.46172 -0.32997,-0.12094 -0.33352,-0.24841 -0.0163,-0.58531 0.32949,-0.34995 0.51837,-0.34317 1.00741,0.0362 0.56669,0.4396 0.57009,0.42797 0.0581,-0.19892 -0.29911,-0.3662 -0.47509,-0.85565 -0.39107,-1.08766 0.084,-0.23201 0.30102,-0.33022 0.48222,-0.21823 0.18121,0.11199 0.54127,-0.0759 0.80015,-0.41766 0.25887,-0.3417 0.47549,-0.44855 0.48136,-0.23745 0.006,0.2111 0.22247,0.46509 0.48132,0.56443 0.34378,0.13192 0.50477,-0.1772 0.59723,-1.14676 0.0863,-0.90527 0.004,-1.28017 -0.26022,-1.17895 -0.28576,0.10966 -0.29952,-0.19544 -0.0527,-1.16791 0.18377,-0.72399 0.47218,-1.31635 0.6409,-1.31635 0.1748,0 0.16231,-0.26992 -0.029,-0.62745 -0.18469,-0.3451 -0.24038,-0.72288 -0.12375,-0.8395 0.11663,-0.11663 -0.0309,-0.21206 -0.3278,-0.21206 -0.29691,0 -0.62345,0.13528 -0.72564,0.30062 -0.10218,0.16534 0.04,0.38726 0.31599,0.49316 0.27597,0.1059 0.50177,0.32321 0.50177,0.48292 0,0.15971 -0.21827,0.29038 -0.48505,0.29038 -0.26677,0 -0.45566,-0.15033 -0.41975,-0.33406 0.0359,-0.18373 -0.31248,-0.43303 -0.7742,-0.554 -0.54145,-0.14185 -0.80448,-0.42067 -0.74084,-0.78528 0.0649,-0.3717 -0.12749,-0.56534 -0.56161,-0.56534 -0.45919,0 -0.78064,-0.36471 -1.05549,-1.19749 -0.21736,-0.65862 -0.31873,-1.48993 -0.22526,-1.84737 0.0935,-0.35743 0.0597,-0.58174 -0.075,-0.49847 -0.13475,0.0833 -0.26134,-0.65551 -0.28133,-1.64176 -0.0294,-1.45124 0.10697,-1.9278 0.71514,-2.49915 0.75148,-0.70597 0.75148,-0.70597 0.68196,0.29813 -0.0382,0.55226 0.0561,0.92648 0.20957,0.83162 0.1535,-0.0949 0.38008,-0.009 0.50352,0.19067 0.15259,0.24688 0.40191,0.20345 0.77876,-0.13566 0.47783,-0.42998 0.7049,-0.43523 1.64567,-0.038 0.60024,0.2534 1.09135,0.61912 1.09135,0.81273 0,0.19361 0.272,0.35201 0.60444,0.35201 0.33245,0 0.79651,-0.18888 1.03125,-0.41975 0.34241,-0.33676 0.55486,-0.26302 1.07456,0.373 0.38833,0.47525 0.64777,0.60804 0.64777,0.33155 0,-0.25365 0.37493,-0.74276 0.83318,-1.08689 0.45825,-0.34414 0.75156,-0.75778 0.65178,-0.9192 -0.0998,-0.16144 -0.0214,-0.29352 0.17422,-0.29352 0.1956,0 0.35562,0.23746 0.35562,0.52769 0,0.29023 0.21167,0.73935 0.47036,0.99804 0.40327,0.40327 0.52886,0.39985 0.88062,-0.024 0.24633,-0.29681 0.27222,-0.49434 0.0648,-0.49434 -0.19001,0 -0.26311,-0.31499 -0.16242,-0.69999 0.13552,-0.51824 0.25345,-0.58607 0.45419,-0.26126 0.21686,0.35089 0.30306,0.33976 0.43051,-0.0555 0.0877,-0.27186 0.23496,-0.72096 0.32736,-0.998 0.11528,-0.34563 0.1747,-0.29294 0.18936,0.1679 0.0117,0.36939 -0.10687,0.87393 -0.26361,1.12121 -0.16439,0.25936 -0.12668,0.78812 0.0891,1.24961 0.20712,0.44297 0.78447,0.89077 1.29367,1.00338 0.50578,0.11187 1.00229,0.33717 1.10335,0.50069 0.10265,0.16611 0.54891,0.13092 1.01125,-0.0797 0.45513,-0.20737 0.82751,-0.51021 0.82751,-0.67298 0,-0.16276 0.26444,-0.57135 0.58765,-0.90796 0.32321,-0.33662 0.91453,-0.78193 1.31405,-0.98958 0.39952,-0.20765 0.69266,-0.60744 0.65141,-0.88843 -0.0413,-0.281 -0.24297,-0.67889 -0.4483,-0.88421 -0.20532,-0.20533 -0.29927,-0.56629 -0.20877,-0.80215 0.0905,-0.23584 0.0259,-0.51449 -0.14353,-0.61922 -0.16944,-0.10472 -0.49773,0.16395 -0.72951,0.59705 -0.28471,0.53196 -0.62796,0.73343 -1.05802,0.62097 -0.35012,-0.0916 -0.63658,-0.37551 -0.63658,-0.63101 0,-0.25549 -0.16003,-0.46454 -0.35562,-0.46454 -0.19559,0 -0.27202,0.13529 -0.16983,0.30062 0.10219,0.16534 -0.0229,0.3807 -0.27797,0.47858 -0.32459,0.12455 -0.41304,-0.0161 -0.29472,-0.46851 0.093,-0.35557 0.30255,-0.64649 0.4657,-0.64649 0.16315,0 0.29664,-0.17629 0.29664,-0.39176 0,-0.21548 -0.0984,-0.29338 -0.21865,-0.17312 -0.12026,0.12026 -0.43368,-0.0434 -0.69651,-0.36379 -0.26282,-0.32033 -0.38218,-0.39354 -0.26523,-0.16268 0.11694,0.23087 0.0526,0.41975 -0.143,0.41975 -0.19559,0 -0.35562,0.22343 -0.35562,0.49651 0,0.40773 -0.15009,0.42811 -0.8395,0.11399 -0.54891,-0.2501 -0.85939,-0.68349 -0.89695,-1.25205 -0.0316,-0.47825 -0.0804,-1.17178 -0.10855,-1.54116 -0.0281,-0.36938 0.0786,-0.84458 0.23712,-1.05601 0.15853,-0.21142 0.24516,-0.57031 0.1925,-0.79752 -0.0526,-0.22722 0.34463,-0.56621 0.88284,-0.75331 0.67428,-0.2344 1.15687,-0.22882 1.55196,0.0179 0.41375,0.25838 0.69059,0.24792 0.99427,-0.0376 0.32358,-0.30422 0.45624,-0.29928 0.57389,0.0214 0.10867,0.29622 0.33179,0.32139 0.77003,0.0868 0.33937,-0.18162 1.08273,-0.23709 1.65192,-0.12325 0.9047,0.18094 1.03489,0.1142 1.03489,-0.53058 0,-0.40566 -0.23054,-0.96811 -0.51233,-1.2499 -0.28178,-0.28178 -0.71801,-0.4334 -0.9694,-0.33693 -0.31723,0.12173 -0.40534,-0.0224 -0.288,-0.47109 0.10371,-0.3966 -0.008,-0.66142 -0.28986,-0.68515 -0.25241,-0.0213 -0.72336,-0.0118 -1.04657,0.0211 -0.32321,0.0329 -0.58765,-0.10083 -0.58765,-0.29713 0,-0.1963 -0.23558,-0.3569 -0.52352,-0.3569 -0.28794,0 -0.43658,0.14067 -0.33033,0.31259 0.10626,0.17193 0.0428,0.40558 -0.14113,0.51923 -0.18389,0.11365 -0.67747,0.0164 -1.09684,-0.21604 -0.41937,-0.23247 -0.87582,-0.39056 -1.01434,-0.35133 -0.13852,0.0392 -0.25185,0.0192 -0.25185,-0.0445 0,-0.0637 0.3134,-0.39948 0.69644,-0.74613 0.38305,-0.34665 0.66737,-0.4834 0.63184,-0.3039 -0.0355,0.17951 -0.0467,0.51527 -0.0248,0.74613 0.0219,0.23087 0.20938,0.41976 0.41668,0.41976 0.2476,0 0.2676,-0.14402 0.0583,-0.41976 -0.17524,-0.23086 -0.29169,-0.89085 -0.25877,-1.46666 0.0515,-0.90121 -0.0384,-1.02567 -0.64595,-0.89432 -0.50041,0.10818 -0.57849,0.0619 -0.26833,-0.15917 0.24062,-0.17147 0.39173,-0.52457 0.33581,-0.78468 -0.0579,-0.26959 0.13957,-0.45478 0.45942,-0.43072 0.33592,0.0253 0.49291,-0.13548 0.39118,-0.40057 -0.12344,-0.3217 -0.3917,-0.35847 -0.98085,-0.13448 -0.44601,0.16957 -0.81093,0.1973 -0.81093,0.0616 0,-0.13569 0.298,-0.43282 0.66222,-0.66028 0.38826,-0.24247 0.58178,-0.62318 0.46777,-0.92028 -0.11063,-0.2883 -0.0101,-0.50671 0.23325,-0.50671 0.23523,0 0.32258,-0.10512 0.19411,-0.23359 -0.12847,-0.12847 -0.49366,-0.2948 -0.81152,-0.36962 -0.31787,-0.0748 -0.88015,-0.14554 -1.24954,-0.15716 -0.36938,-0.0116 -0.90535,0.0835 -1.19104,0.21147 -0.38686,0.17323 -0.51485,0.0373 -0.50146,-0.5327 0.01,-0.42092 0.12863,-0.93708 0.26389,-1.14701 0.13525,-0.20994 0.0209,-0.56844 -0.25409,-0.79667 -0.28408,-0.23577 -0.50001,-0.26912 -0.50001,-0.0772 0,0.18577 -0.33458,0.42525 -0.74353,0.5322 -0.41852,0.10944 -0.85664,0.0165 -1.00227,-0.21269 -0.17796,-0.28006 -0.26032,-0.22371 -0.26386,0.18053 -0.003,0.32321 0.15129,0.58765 0.34247,0.58765 0.23408,0 0.22859,0.22242 -0.0169,0.68101 -0.20046,0.37455 -0.50799,0.5923 -0.68342,0.48388 -0.17543,-0.10842 -0.33088,6.2e-4 -0.34546,0.24245 -0.0206,0.3407 -0.0648,0.34469 -0.19659,0.0177 -0.0935,-0.23201 -0.29243,-0.34622 -0.442,-0.25378 -0.14956,0.0924 -0.35378,-0.0452 -0.45381,-0.30592 -0.10004,-0.26069 0.0352,-0.5573 0.30061,-0.65913 0.26537,-0.10184 0.4825,-0.41657 0.4825,-0.6994 0,-0.28283 -0.2366,-0.51424 -0.52578,-0.51424 -0.28918,0 -0.8363,0.16619 -1.21583,0.3693 -0.51834,0.27741 -0.62982,0.27185 -0.448,-0.0224 0.13319,-0.21551 -0.0189,-0.58244 -0.33814,-0.81589 -0.54954,-0.40184 -0.5493,-0.48933 0.004,-1.65666 0.32165,-0.67783 0.7439,-1.23243 0.93833,-1.23243 0.19443,0 0.25808,0.0954 0.14145,0.21206 -0.11663,0.11662 -0.061,0.4944 0.12375,0.8395 0.18469,0.3451 0.64163,0.62745 1.01541,0.62745 0.40866,0 0.58861,0.14724 0.45136,0.36931 -0.15534,0.25134 0.006,0.2439 0.50535,-0.0233 0.50602,-0.27081 0.86257,-0.28557 1.14935,-0.0476 0.22867,0.18978 0.7479,0.2582 1.15384,0.15204 0.40595,-0.10615 0.73808,-0.32355 0.73808,-0.48309 0,-0.15954 0.43928,-0.23893 0.97618,-0.17642 0.74513,0.0868 1.07503,-0.071 1.39381,-0.6667 0.2297,-0.42919 0.56933,-0.68661 0.75471,-0.57203 0.20141,0.12447 0.2313,0.0372 0.0743,-0.21691 -0.15185,-0.24569 -0.0751,-0.54126 0.18187,-0.70006 0.24458,-0.15115 0.73937,-0.1171 1.09955,0.0757 0.5693,0.30468 0.63063,0.25773 0.46929,-0.35924 -0.10208,-0.39034 -0.0486,-0.7097 0.11877,-0.7097 0.1674,0 0.30436,-0.23559 0.30436,-0.52353 0,-0.28793 -0.15111,-0.43012 -0.3358,-0.31598 -0.18469,0.11414 -0.3358,0.0651 -0.3358,-0.10891 0,-0.17406 -0.30222,-0.39549 -0.6716,-0.49209 -0.38448,-0.10054 -0.6738,-0.01 -0.67675,0.21269 -0.003,0.24646 -0.0953,0.26564 -0.25185,0.0525 -0.13569,-0.1847 -0.79839,-0.36259 -1.47267,-0.39534 -0.9843,-0.0478 -1.20448,0.0515 -1.11704,0.50371 0.0599,0.30977 0.12047,0.61951 0.1346,0.6883 0.0142,0.0688 0.27663,-0.0823 0.58334,-0.33581 0.5107,-0.42206 0.51786,-0.39696 0.0851,0.298 -0.25993,0.41738 -0.52346,0.60626 -0.58564,0.41975 -0.0622,-0.18651 -0.27743,-0.33912 -0.47836,-0.33912 -0.20093,0 -0.63453,0.24363 -0.96356,0.5414 -0.55856,0.50549 -0.61504,0.47766 -0.85163,-0.41975 -0.13936,-0.52863 -0.21543,-1.15003 -0.16904,-1.3809 0.0464,-0.23086 -0.15887,-0.41975 -0.45614,-0.41975 -0.29728,0 -0.82975,0.1548 -1.18327,0.344 -0.58272,0.31186 -0.6238,0.24911 -0.43965,-0.6716 0.12975,-0.6488 0.0667,-1.01561 -0.17466,-1.01561 -0.20778,0 -0.38009,0.18889 -0.38292,0.41976 -0.004,0.32038 -0.0656,0.32458 -0.26071,0.0177 -0.14498,-0.22806 -0.44105,-0.28739 -0.68419,-0.13712 -0.23574,0.14569 -0.40274,0.40215 -0.37112,0.56992 0.0316,0.16777 0.0396,0.57802 0.0177,0.91167 -0.0382,0.58365 -0.0783,0.58388 -1.05676,0.006 -0.56674,-0.33479 -0.96948,-0.82637 -0.90969,-1.11034 0.0629,-0.29853 0.40919,-0.47741 0.83616,-0.4319 0.461,0.0492 0.67044,-0.0745 0.56991,-0.33649 -0.0874,-0.2278 0.13163,-0.59565 0.48677,-0.81745 0.50522,-0.31551 0.68026,-0.31325 0.80446,0.0104 0.1,0.26053 0.78993,0.39861 1.86384,0.37299 0.94783,-0.0226 1.62131,0.0949 1.51643,0.2646 -0.10376,0.1679 0.0909,0.25738 0.43268,0.19886 0.34174,-0.0585 0.78949,-0.25502 0.99499,-0.43667 0.2704,-0.23901 0.27272,-0.49183 0.008,-0.91507 -0.27104,-0.434 -0.25401,-0.69522 0.066,-1.01295 0.35001,-0.34748 0.39299,-0.32757 0.22817,0.10573 -0.11269,0.29623 0.0373,0.73336 0.33702,0.98209 0.4809,0.39911 0.5164,0.3406 0.32392,-0.53385 -0.14968,-0.68002 -0.11608,-0.83975 0.10924,-0.51932 0.17898,0.25452 0.47589,0.36977 0.65979,0.25611 0.18391,-0.11366 0.52136,0.24476 0.74989,0.79648 0.22853,0.55173 0.51051,1.02262 0.62662,1.04644 0.11611,0.0238 0.61637,0.0685 1.11168,0.0992 0.49531,0.0308 0.87309,-0.10205 0.8395,-0.29515 -0.0336,-0.19309 0.3417,-0.39766 0.83397,-0.4546 0.49227,-0.057 0.98387,-0.335 1.09245,-0.61795 0.10858,-0.28294 0.10431,-0.66509 -0.009,-0.8492 -0.13479,-0.21809 -0.33412,-0.20753 -0.57195,0.0303 -0.20079,0.20078 -0.63706,0.36506 -0.96951,0.36506 -0.33244,0 -0.60675,-0.18889 -0.60958,-0.41976 -0.004,-0.30885 -0.0814,-0.29938 -0.29383,0.0358 -0.18629,0.29401 -0.36511,0.33193 -0.50418,0.10693 -0.11852,-0.19177 0.11389,-0.57938 0.51646,-0.86135 0.40256,-0.28197 0.85842,-0.4345 1.01302,-0.33896 0.15459,0.0955 0.28108,0.0124 0.28108,-0.18475 0,-0.23508 0.26005,-0.21301 0.75555,0.0641 0.41555,0.23243 0.87639,0.61149 1.02409,0.84235 0.1477,0.23086 0.46344,0.41975 0.70165,0.41975 0.23821,0 0.6104,-0.3891 0.82709,-0.86466 0.21667,-0.47557 0.30685,-1.00561 0.20038,-1.17788 -0.10646,-0.17228 0.0254,-0.53217 0.29298,-0.79977 0.27766,-0.27766 0.44683,-0.96135 0.39402,-1.59248 -0.0509,-0.60826 -0.10909,-1.27865 -0.12934,-1.48975 -0.0203,-0.21111 -0.27132,-0.47382 -0.55795,-0.58381 -0.28663,-0.10999 -0.43527,-0.061 -0.33032,0.10877 0.10495,0.16982 0.0481,0.39695 -0.12629,0.50473 -0.17441,0.1078 -0.42585,-0.14621 -0.55877,-0.56445 -0.13291,-0.41823 -0.25712,-1.05013 -0.27603,-1.40421 -0.0189,-0.35409 -0.22325,-0.70668 -0.45411,-0.78354 -0.23086,-0.0769 -0.41975,0.0906 -0.41975,0.37212 0,0.28153 -0.14938,0.60419 -0.33196,0.71703 -0.19035,0.11764 -0.24664,-0.0171 -0.13197,-0.31599 0.11768,-0.30667 0.0125,-0.5375 -0.25569,-0.56091 -0.25063,-0.0219 -0.56902,-0.0219 -0.70754,0 -0.13852,0.0219 -0.25185,-0.13653 -0.25185,-0.352 0,-0.21547 -0.0994,-0.29233 -0.22095,-0.17081 -0.12153,0.12153 -0.40774,0.0659 -0.63602,-0.12352 -0.29435,-0.24429 -0.58934,-0.17019 -1.01419,0.25476 -0.32951,0.32958 -0.94997,0.60626 -1.37878,0.61484 -0.42882,0.009 -0.77967,-0.11006 -0.77967,-0.26366 0,-0.1536 -0.29229,-0.12284 -0.64953,0.0684 -0.35724,0.19119 -0.82316,0.34761 -1.03539,0.34761 -0.21222,0 -0.3166,-0.18889 -0.23195,-0.41975 0.0847,-0.23086 0.32391,-0.38197 0.53169,-0.3358 0.20777,0.0462 0.37777,-0.0773 0.37777,-0.27448 0,-0.20037 -0.2837,-0.26839 -0.64334,-0.15424 -0.35384,0.1123 -0.74053,0.047 -0.85932,-0.14527 -0.11879,-0.19221 -0.49078,-0.34946 -0.82664,-0.34946 -0.33587,0 -0.77975,0.20373 -0.9864,0.45272 -0.28667,0.34542 -0.21682,0.59656 0.29468,1.05945 0.36873,0.3337 0.67042,0.71346 0.67042,0.84391 0,0.13046 -0.37602,0.16531 -0.83559,0.0775 -0.45958,-0.0879 -0.75757,-0.28598 -0.6622,-0.44028 0.0954,-0.15431 -0.12313,-0.43925 -0.48554,-0.63321 -0.36241,-0.19395 -0.96091,-0.35265 -1.32998,-0.35265 -0.36908,0 -0.76342,-0.29101 -0.87631,-0.6467 -0.15146,-0.47721 -0.42845,-0.60622 -1.05692,-0.49225 -0.5188,0.0941 -0.77008,0.0224 -0.64292,-0.18332 0.11481,-0.18577 -0.0421,-0.72057 -0.34863,-1.18844 -0.44936,-0.6858 -0.47664,-0.94796 -0.14075,-1.35268 0.22916,-0.27612 0.53163,-0.50203 0.67216,-0.50203 0.14054,0 0.32797,0.27704 0.41651,0.61564 0.0885,0.3386 0.44618,0.62814 0.79473,0.64343 0.34855,0.0153 0.83198,-0.0339 1.0743,-0.10939 0.34938,-0.10878 0.332,-0.29219 -0.084,-0.88604 -0.28848,-0.41188 -0.52452,-0.86458 -0.52452,-1.006 0,-0.14142 0.26444,-0.23496 0.58765,-0.20787 0.32321,0.0271 0.86102,0.0253 1.19512,-0.004 0.33411,-0.0293 0.51408,-0.20431 0.39994,-0.38901 -0.12201,-0.19741 0.28499,-0.3531 0.98758,-0.37777 0.65732,-0.0231 1.30846,-0.0672 1.44698,-0.098 0.13852,-0.0308 0.74138,-0.31722 1.33968,-0.63643 0.59831,-0.31921 1.16498,-0.57732 1.25926,-0.57358 0.0943,0.004 0.19892,-0.031 0.23254,-0.0771 0.0336,-0.0462 -0.0278,-0.42395 -0.13647,-0.83951 -0.10867,-0.41555 -0.40062,-0.75323 -0.64877,-0.75041 -0.34263,0.004 -0.33,0.0835 0.0525,0.33066 0.27703,0.17904 0.39037,0.34672 0.25185,0.37264 -0.13852,0.0259 -0.36518,0.0683 -0.5037,0.0942 -0.13852,0.0259 -0.47852,0.18714 -0.75555,0.35829 -0.42334,0.26152 -0.43537,0.22677 -0.0754,-0.21778 0.35443,-0.43768 0.33342,-0.56537 -0.12176,-0.74004 -0.45312,-0.17387 -0.4749,-0.30169 -0.12355,-0.72505 0.29593,-0.35657 0.53374,-0.40677 0.77658,-0.16392 0.19253,0.19252 0.54648,0.35003 0.78658,0.35003 0.2401,0 0.43654,-0.23558 0.43654,-0.52352 0,-0.28794 0.15111,-0.43013 0.3358,-0.31598 0.18469,0.11414 0.3358,0.10301 0.3358,-0.0247 0,-0.12776 -0.30962,-0.50082 -0.68805,-0.82903 -0.68612,-0.59507 -0.68541,-0.59729 0.25185,-0.7902 0.51695,-0.1064 1.16657,-0.15356 1.44361,-0.1048 0.27704,0.0488 0.68171,0.19993 0.89928,0.33593 0.24038,0.15028 0.4798,-0.0181 0.61028,-0.42919 0.11809,-0.37206 0.35563,-0.67648 0.52787,-0.67648 0.17225,0 0.31317,0.17453 0.31317,0.38785 0,0.22284 0.27946,0.13494 0.65688,-0.20662 0.57509,-0.52045 0.596,-0.65534 0.1679,-1.08343 -0.26893,-0.26894 -0.48897,-0.70485 -0.48897,-0.96869 0,-0.26385 0.22192,-0.47972 0.49316,-0.47972 0.2892,0 0.41711,-0.19819 0.30928,-0.4792 -0.13428,-0.34991 0.004,-0.42994 0.51424,-0.29664 0.5131,0.13419 0.71222,0.0165 0.75133,-0.44425 0.0293,-0.34475 0.0291,-0.90221 -3.5e-4,-1.23881 -0.0295,-0.33659 -0.27977,-0.8382 -0.55624,-1.11467 -0.36835,-0.36834 -0.41312,-0.67003 -0.16755,-1.12889 0.18433,-0.34441 0.33514,-0.69407 0.33514,-0.77702 0,-0.0829 -0.27857,-0.22366 -0.61905,-0.31269 -0.37233,-0.0974 -0.77495,0.0878 -1.01025,0.46453 -0.21516,0.34453 -0.77432,0.62642 -1.24258,0.62642 -0.62456,0 -0.82509,-0.15656 -0.75271,-0.58765 0.0659,-0.39232 -0.15247,-0.62332 -0.65688,-0.69496 -0.5082,-0.0722 -0.75556,0.0653 -0.75556,0.41976 0,0.28988 -0.15111,0.52705 -0.3358,0.52705 -0.18469,0 -0.3358,-0.2933 -0.3358,-0.65178 0,-0.35848 -0.14467,-0.7412 -0.3215,-0.85048 -0.17683,-0.10929 -0.5546,0.25207 -0.8395,0.803 -0.2849,0.55094 -0.51569,1.12255 -0.51286,1.27024 0.003,0.14769 0.15162,0.0419 0.33066,-0.23518 0.2847,-0.44054 0.32616,-0.43654 0.33066,0.0319 0.003,0.29458 -0.29708,0.80911 -0.66646,1.1434 -0.36938,0.33428 -0.67392,0.84881 -0.67675,1.1434 -0.004,0.46878 -0.0464,0.47276 -0.3358,0.0319 -0.27063,-0.41226 -0.38314,-0.42239 -0.61973,-0.0558 -0.23309,0.36117 -0.32859,0.34491 -0.49316,-0.084 -0.11392,-0.29686 -0.032,-0.53186 0.18535,-0.53186 0.21419,0 0.0961,-0.22186 -0.26239,-0.49302 -0.35851,-0.27116 -0.77409,-0.49783 -0.9235,-0.5037 -0.14942,-0.006 -0.17828,0.14043 -0.0641,0.32512 0.11414,0.18469 0.0313,0.3358 -0.18401,0.3358 -0.21535,0 -0.31617,0.19644 -0.22403,0.43654 0.10826,0.28215 -0.1126,0.43654 -0.62449,0.43654 -0.4356,0 -0.72383,-0.0682 -0.64051,-0.15148 0.0833,-0.0833 -0.11061,-0.37126 -0.43094,-0.63987 -0.43218,-0.36239 -0.35352,-0.3534 0.30491,0.0348 0.85053,0.5015 0.8936,0.49051 1.03802,-0.26495 0.12834,-0.67137 0.0279,-0.77469 -0.6778,-0.69722 -0.54357,0.0597 -0.87883,-0.1017 -0.97495,-0.46925 -0.0806,-0.30809 -0.46184,-0.58393 -0.84727,-0.61296 -0.38542,-0.029 -0.86714,-0.22055 -1.07046,-0.42559 -0.27028,-0.27255 -0.20117,-0.3086 0.25703,-0.13408 0.56929,0.21685 0.58733,0.16483 0.19687,-0.56776 -0.3867,-0.72551 -0.37586,-0.76195 0.10792,-0.36295 0.46503,0.38352 0.61217,0.29963 1.08782,-0.62017 0.40341,-0.78012 0.72231,-1.01863 1.19622,-0.8947 0.39285,0.10273 0.64616,-0.002 0.64616,-0.26736 0,-0.23999 0.20255,-0.51407 0.45011,-0.60906 0.29222,-0.11214 0.39664,-0.53702 0.29769,-1.21123 -0.12988,-0.88495 -0.29533,-1.03851 -1.11887,-1.03851 -0.60277,0 -1.12427,-0.25273 -1.38587,-0.67161 -0.23068,-0.36938 -0.69421,-0.6716 -1.03007,-0.6716 -0.37606,0 -0.51859,0.14893 -0.37104,0.38769 0.15191,0.24578 0.0917,0.29629 -0.16438,0.138 -0.30935,-0.19118 -0.31188,-0.36068 -0.0108,-0.72348 0.28991,-0.34932 0.29495,-0.59222 0.0192,-0.92446 -0.2057,-0.24786 -0.27457,-0.55008 -0.15305,-0.6716 0.12153,-0.12153 0.47736,-0.22096 0.79074,-0.22096 0.39049,0 0.54487,-0.23775 0.49059,-0.75555 -0.0436,-0.41555 -0.0985,-0.86888 -0.12205,-1.0074 -0.0236,-0.13852 -0.26952,-0.25185 -0.54656,-0.25185 -0.30173,0 -0.5037,-0.30969 -0.5037,-0.77235 0,-0.42479 0.18133,-0.95367 0.40296,-1.1753 0.31342,-0.31342 0.31342,-0.40296 0,-0.40296 -0.22163,0 -0.40296,0.14172 -0.40296,0.31493 0,0.17321 -0.29177,0.29295 -0.64837,0.26609 -0.3566,-0.0269 -0.62104,-0.20581 -0.58765,-0.39767 0.0334,-0.19185 0.28738,-0.54946 0.56442,-0.79469 0.27703,-0.24523 0.31709,-0.3516 0.089,-0.23637 -0.30042,0.15176 -0.36185,-0.0548 -0.22291,-0.749465 0.13015,-0.650732 0.0206,-1.10104 -0.34086,-1.401015 -0.29296,-0.243133 -0.53264,-0.94165 -0.53264,-1.552261 0,-0.610611 -0.22667,-1.336867 -0.50371,-1.613903 -0.27704,-0.277037 -0.5037,-0.683231 -0.5037,-0.902654 0,-0.226163 -0.27542,-0.326929 -0.63591,-0.23266 -0.45126,0.118007 -0.61014,0.0075 -0.54719,-0.380586 0.0488,-0.300784 0.0273,-0.654514 -0.0477,-0.786068 -0.075,-0.131553 -0.51462,-0.06686 -0.97688,0.143763 -0.46227,0.210623 -0.76808,0.571653 -0.67958,0.802289 0.0885,0.230636 -0.0568,0.599999 -0.32282,0.820807 -0.26606,0.220809 -0.48374,0.618551 -0.48374,0.883873 0,0.279132 -0.16336,0.381441 -0.38769,0.2428 -0.22451,-0.138759 -0.29711,-0.09305 -0.17247,0.108614 0.11836,0.191519 -0.10172,0.751115 -0.48906,1.243547 -0.67501,0.858125 -0.67963,0.922561 -0.11129,1.550575 0.32615,0.360384 0.45624,0.673139 0.2891,0.69501 -0.16714,0.02187 -0.41723,0.02187 -0.55575,0 -0.13852,-0.02187 -0.27074,0.111344 -0.29383,0.296035 -0.0231,0.184691 -0.0798,0.486909 -0.12592,0.671599 -0.0462,0.18469 -0.10284,0.49583 -0.12592,0.69142 -0.0231,0.1956 -0.17592,0.27285 -0.33961,0.17168 -0.16369,-0.10117 -0.37621,0.11658 -0.47226,0.48389 -0.096,0.3673 -0.0449,0.66782 0.11369,0.66782 0.15858,0 -0.0822,0.39984 -0.53514,0.88854 -0.45291,0.48869 -0.82347,1.01758 -0.82347,1.1753 0,0.15773 0.15111,0.28677 0.3358,0.28677 0.18469,0 0.3358,0.15111 0.3358,0.3358 0,0.18469 -0.22667,0.3358 -0.5037,0.3358 -0.27704,0 -0.52159,0.26445 -0.54347,0.58766 -0.0219,0.3232 -0.006,0.73876 0.0357,0.92345 0.0415,0.18469 0.095,0.73724 0.11887,1.22788 0.0239,0.49065 0.32585,1.06847 0.67104,1.28405 0.48928,0.30556 0.57144,0.30103 0.37271,-0.0205 -0.16311,-0.26392 -0.11575,-0.32646 0.13151,-0.17365 0.21253,0.13135 0.72648,0.30431 1.14212,0.38436 0.41564,0.08 0.79926,0.27618 0.85248,0.43586 0.0533,0.15967 0.50706,0.23349 1.00852,0.16404 0.85938,-0.11902 0.86835,-0.1072 0.15618,0.20589 -0.41555,0.18269 -0.77345,0.52592 -0.79532,0.76273 -0.0219,0.23682 -0.0133,0.56949 0.019,0.73927 0.0323,0.16978 -0.17994,0.11063 -0.47163,-0.13145 -0.4474,-0.37131 -0.49929,-0.35926 -0.33185,0.0771 0.10917,0.28448 0.0137,0.63142 -0.2121,0.77099 -0.24654,0.15237 -0.32428,0.11411 -0.19457,-0.0958 0.1188,-0.19223 -0.0732,-0.42514 -0.42669,-0.51758 -0.44997,-0.11767 -0.58912,-0.0284 -0.464,0.29762 0.0983,0.25614 0.0416,0.4657 -0.12586,0.4657 -0.16752,0 -0.45504,-0.15047 -0.63895,-0.33437 -0.1839,-0.18391 -0.81857,-0.39075 -1.41036,-0.45966 -0.59179,-0.0689 -1.07599,0.006 -1.07599,0.16647 0,0.16047 -0.16003,0.29176 -0.35562,0.29176 -0.19559,0 -0.25533,-0.16227 -0.13277,-0.36059 0.12258,-0.19833 -0.0952,-0.16198 -0.48388,0.0808 -0.38871,0.24275 -0.70674,0.68206 -0.70674,0.97623 0,0.29417 0.11333,0.64819 0.25185,0.78671 0.13852,0.13852 0.25691,0.57926 0.26309,0.97942 0.006,0.40016 -0.13987,0.83226 -0.32454,0.96021 -0.18468,0.12795 -0.55874,0.0524 -0.83125,-0.1679 -0.38831,-0.31391 -0.441,-0.30986 -0.24361,0.0187 0.17598,0.29292 0.0225,0.3941 -0.50932,0.3358 -0.66007,-0.0724 -0.76878,0.0811 -0.81829,1.15551 -0.0362,0.786 0.11217,1.3039 0.40589,1.41661 0.25463,0.0977 0.46297,0.41799 0.46297,0.71172 0,0.29373 0.15112,0.44067 0.33581,0.32652 0.20218,-0.12495 0.3358,0.31926 0.3358,1.11633 0,1.03318 -0.14476,1.36171 -0.65926,1.49625 -0.36259,0.0948 -0.84013,-0.0455 -1.0612,-0.31192 -0.22107,-0.26637 -0.60441,-0.40662 -0.85185,-0.31167 -0.26017,0.0998 -0.47148,-0.0707 -0.50105,-0.40447 -0.0281,-0.31741 -0.0672,-0.77233 -0.0869,-1.01093 -0.0196,-0.23859 -0.26108,-0.57628 -0.5365,-0.75041 -0.44314,-0.28016 -0.4428,-0.32051 0.003,-0.3506 0.27703,-0.0187 0.0503,-0.17292 -0.5037,-0.34272 -0.65477,-0.20064 -1.2466,-0.18421 -1.69072,0.0469 -0.51836,0.2698 -0.69957,0.72944 -0.75069,1.90407 -0.0371,0.85163 0.10004,1.75016 0.30467,1.99673 0.20463,0.24657 0.26721,0.44831 0.13906,0.44831 -0.12815,0 -0.006,0.22666 0.2707,0.5037 0.27703,0.27704 0.66561,0.5037 0.86349,0.5037 0.19788,0 0.35978,0.23198 0.35978,0.51552 0,0.40562 0.13847,0.44141 0.64953,0.1679 0.35724,-0.19119 0.81057,-0.34762 1.0074,-0.34762 0.19684,0 0.35788,0.23041 0.35788,0.51202 0,0.2816 0.41044,0.66806 0.91208,0.85878 0.64983,0.24707 0.78756,0.42372 0.47903,0.61441 -0.23818,0.1472 -0.79396,0.22801 -1.23508,0.17959 -0.50994,-0.056 -0.86709,0.11693 -0.98066,0.47475 -0.1307,0.4118 -0.56206,0.56115 -1.60785,0.55668 -0.78608,-0.003 -1.64147,-0.1428 -1.90087,-0.30985 -0.35087,-0.22596 -0.40274,-0.18297 -0.20259,0.1679 0.21765,0.38153 0.18266,0.39145 -0.18318,0.0519 -0.24872,-0.23087 -0.55548,-0.41975 -0.68169,-0.41975 -0.12622,0 -0.339,0.33999 -0.47287,0.75555 -0.13386,0.41555 -0.22703,0.86888 -0.20706,1.0074 0.0199,0.13852 -0.0997,0.25185 -0.26603,0.25185 -0.16629,0 -0.25397,0.41556 -0.19483,0.92346 0.0591,0.5079 0.1711,1.22567 0.2488,1.59505 0.0781,0.37121 0.46562,0.7196 0.86643,0.77891 0.39883,0.059 0.72516,0.33238 0.72516,0.60747 0,0.27509 0.15111,0.40677 0.3358,0.29263 0.18469,-0.11415 0.34736,-0.01 0.36149,0.23203 0.0141,0.24176 0.0774,0.71153 0.14064,1.04392 0.0632,0.33239 0.29682,0.8235 0.51913,1.09135 0.22229,0.26786 0.52599,0.48701 0.67487,0.48701 0.14889,0 0.5266,-0.25589 0.83935,-0.56865 0.53434,-0.53434 0.59464,-0.53312 0.99915,0.0201 0.27289,0.3732 0.51104,0.45845 0.65046,0.23285 0.12098,-0.19574 0.50247,-0.35589 0.84775,-0.35589 0.3453,0 0.85447,-0.22667 1.13151,-0.5037 0.27703,-0.27704 0.73098,-0.50371 1.00876,-0.50371 0.27778,0 0.60098,0.30223 0.71822,0.67161 0.11723,0.36938 0.44814,0.6716 0.73535,0.6716 0.40857,0 0.43762,0.1019 0.13349,0.46835 -0.21379,0.2576 -0.36551,0.5976 -0.33716,0.75556 0.0283,0.15796 0.0337,0.53547 0.0118,0.83892 -0.0219,0.30345 -0.26694,0.6389 -0.54459,0.74544 -0.41092,0.15769 -0.39547,0.0269 0.083,-0.70346 0.559,-0.85315 0.55906,-0.88614 0.001,-0.67204 -0.35904,0.13778 -0.59088,0.0663 -0.59741,-0.18406 -0.006,-0.22506 -0.2277,-0.1225 -0.49295,0.22792 -0.26525,0.35041 -0.40263,0.76597 -0.30531,0.92345 0.0973,0.15748 -0.0675,0.28633 -0.36637,0.28633 -0.3252,0 -0.44714,0.15565 -0.30373,0.38768 0.143,0.2314 0.0927,0.29688 -0.12488,0.16243 -0.20047,-0.1239 -0.46093,-0.0692 -0.5788,0.12149 -0.11786,0.19072 -0.35497,0.25982 -0.5269,0.15356 -0.17193,-0.10625 -0.3126,-0.0663 -0.3126,0.0888 0,0.1551 -0.44361,0.44944 -0.9858,0.65409 -0.79333,0.29945 -1.02169,0.27856 -1.16964,-0.10699 -0.10111,-0.2635 0.0403,-0.56509 0.3142,-0.6702 0.27391,-0.10512 0.49804,-0.47243 0.49804,-0.81626 0,-0.41771 -0.16713,-0.561 -0.50371,-0.43185 -0.27703,0.10631 -0.5037,0.026 -0.5037,-0.17844 0,-0.20445 -0.21616,-0.37172 -0.48035,-0.37172 -0.26418,0 -0.52863,0.34 -0.58765,0.75555 -0.059,0.41555 -0.25842,0.75786 -0.44311,0.76069 -0.18469,0.003 -0.52469,0.12508 -0.75555,0.27167 -0.25703,0.16321 -0.42371,0.0961 -0.42996,-0.17304 -0.006,-0.27002 -0.14281,-0.21187 -0.35397,0.15074 -0.18907,0.32467 -0.23669,0.76358 -0.10581,0.97534 0.14144,0.22885 0.0901,0.29365 -0.12653,0.15976 -0.20046,-0.12389 -0.46983,-0.0548 -0.5986,0.15356 -0.12877,0.20835 -0.0259,0.51072 0.22865,0.67194 0.25452,0.16122 0.33094,0.29543 0.1698,0.29826 -0.16113,0.003 -0.15186,0.19403 0.0206,0.42489 0.17247,0.23087 0.3043,0.93358 0.29297,1.5616 -0.0167,0.92834 -0.16609,1.16404 -0.7987,1.26058 -0.42797,0.0653 -1.14099,0.3826 -1.58451,0.70507 -0.44352,0.32247 -0.81115,0.7752 -0.81695,1.00607 -0.006,0.23086 0.21611,0.41975 0.49315,0.41975 0.27984,0 0.5037,0.29849 0.5037,0.6716 0,0.36939 0.18889,0.66929 0.41975,0.66647 0.23087,-0.003 0.63749,-0.14291 0.9036,-0.31129 0.30597,-0.19359 0.79977,-0.15386 1.34321,0.10808 0.47264,0.22782 1.35641,0.33012 1.96392,0.22733 0.60752,-0.10279 1.07418,-0.30981 1.03704,-0.46005 -0.0371,-0.15024 0.13623,-0.79246 0.38526,-1.42716 0.28411,-0.72406 0.67966,-1.15399 1.06172,-1.15399 0.33491,0 0.60893,-0.17629 0.60893,-0.39176 0,-0.21548 0.0759,-0.31587 0.16868,-0.22309 0.0928,0.0928 -0.29297,1.09252 -0.85721,2.22167 -0.56425,1.12914 -1.28237,2.12004 -1.59584,2.20199 -0.31346,0.0819 -1.28772,0.33591 -2.165,0.56435 -0.87728,0.22844 -1.59505,0.54682 -1.59505,0.70751 0,0.16068 0.18889,0.30816 0.41975,0.32773 0.23086,0.0196 0.79753,0.0119 1.25925,-0.0169 0.46173,-0.0289 1.11603,-0.0933 1.45401,-0.14316 0.33798,-0.0498 0.73157,-0.28006 0.87466,-0.51158 0.20297,-0.3284 0.37157,-0.3095 0.76708,0.086 0.36949,0.36949 0.60734,0.40652 0.87729,0.13656 0.26995,-0.26995 0.42591,-0.22562 0.57523,0.16353 0.18545,0.48324 0.26119,0.48061 0.79851,-0.0278 0.32649,-0.30893 0.55074,-0.82304 0.49834,-1.14248 -0.0524,-0.31943 0.0753,-0.54609 0.28392,-0.5037 0.20856,0.0424 0.4378,-0.1913 0.50941,-0.51934 0.0795,-0.36436 -0.0434,-0.56034 -0.31586,-0.5037 -0.24534,0.051 -0.41136,-0.087 -0.36894,-0.30657 0.0424,-0.2196 -0.214,-0.49169 -0.56983,-0.60462 -0.60812,-0.19301 -0.61331,-0.24464 -0.0865,-0.85997 0.30828,-0.36005 0.69916,-0.65463 0.86862,-0.65463 0.16945,0 0.50444,0.26444 0.74442,0.58765 0.35781,0.48191 0.55389,0.51596 1.08968,0.18922 0.35935,-0.21913 0.9738,-0.31463 1.36545,-0.21222 0.39164,0.10242 0.96694,-0.0205 1.27845,-0.27317 0.38711,-0.31397 0.48655,-0.32652 0.3142,-0.0396 -0.17203,0.28634 -0.0111,0.41975 0.5064,0.41975 0.59001,0 0.66903,0.0895 0.35562,0.40296 -0.22163,0.22162 -0.40296,0.75943 -0.40296,1.19512 0,0.51447 -0.13626,0.70795 -0.3887,0.55193 -0.2716,-0.16785 -0.32556,0.001 -0.17913,0.56118 0.15409,0.58924 -0.0203,1.04133 -0.65869,1.70767 -0.47825,0.4992 -0.66175,0.87502 -0.40852,0.83672 0.25286,-0.0382 0.67197,-0.20198 0.93137,-0.36384 0.32297,-0.20153 0.39611,-0.1721 0.23203,0.0934 -0.13178,0.21323 -0.0959,0.38769 0.0796,0.38769 0.17557,0 0.42154,-0.40768 0.5466,-0.90594 0.12506,-0.49827 0.33032,-0.76271 0.45615,-0.58765 0.12583,0.17505 0.39529,0.3486 0.59879,0.38565 0.22313,0.0406 0.30555,-0.26987 0.20763,-0.78212 -0.1467,-0.76743 -0.0689,-0.83882 0.80529,-0.73897 0.73917,0.0844 0.99511,0.30876 1.08384,0.95002 0.0639,0.46173 0.009,0.73455 -0.1213,0.60627 -0.1306,-0.12827 -0.60925,0.20863 -1.06367,0.74868 -0.46086,0.54769 -0.7184,1.15639 -0.58238,1.37647 0.1526,0.24691 0.0988,0.3049 -0.14383,0.15496 -0.21323,-0.13178 -0.38769,-0.0707 -0.38769,0.13583 0,0.20649 -0.17071,0.26993 -0.37937,0.14098 -0.23048,-0.14245 -0.31775,-0.0514 -0.22237,0.23203 0.0863,0.25657 -0.0829,0.66659 -0.37619,0.91115 -0.42596,0.35524 -0.43188,0.40002 -0.0295,0.22271 0.27703,-0.12207 0.12592,0.09 -0.33581,0.47133 -0.46172,0.38131 -0.96175,0.69664 -1.11117,0.70075 -0.14942,0.004 -0.17828,-0.14365 -0.0641,-0.32834 0.11415,-0.18469 0.0601,-0.3358 -0.1201,-0.3358 -0.1802,0 -0.41439,0.18889 -0.52042,0.41975 -0.10603,0.23086 -0.0983,0.0419 0.0173,-0.41975 0.11553,-0.46173 0.30609,-0.91506 0.42348,-1.0074 0.11738,-0.0924 0.40759,-0.60889 0.64489,-1.14787 0.38575,-0.87612 0.37613,-0.93403 -0.0908,-0.54653 -0.28724,0.23838 -0.52225,0.57997 -0.52225,0.75909 0,0.17912 -0.31591,0.72729 -0.70202,1.21814 -0.38611,0.49086 -0.87722,0.89934 -1.09136,0.90774 -0.21413,0.008 -0.33896,0.23505 -0.2774,0.50369 0.0616,0.26865 0.004,0.38042 -0.1281,0.24841 -0.13202,-0.13202 -0.53566,-0.0818 -0.89696,0.11154 -0.46479,0.24875 -0.60144,0.57268 -0.46721,1.10752 0.13265,0.52853 0.0405,0.75595 -0.30632,0.75595 -0.27283,0 -0.49605,-0.12593 -0.49605,-0.27984 0,-0.15391 -0.15111,-0.27983 -0.3358,-0.27983 -0.18469,0 -0.33812,0.26444 -0.34095,0.58765 -0.004,0.50221 -0.0524,0.51441 -0.33066,0.0839 -0.27941,-0.43236 -0.32624,-0.42196 -0.33066,0.0734 -0.004,0.40085 -0.17679,0.51125 -0.56714,0.36145 -0.42576,-0.16337 -0.50971,-0.0794 -0.34634,0.34634 0.15524,0.40456 0.036,0.56201 -0.42558,0.56201 -0.35269,0 -0.73918,-0.15845 -0.85887,-0.35211 -0.14621,-0.23658 -0.38999,-0.20904 -0.743,0.0839 -0.28897,0.23982 -0.80989,0.38784 -1.15762,0.32893 -0.53686,-0.0909 -0.59742,0.0357 -0.40144,0.83952 0.12693,0.52065 0.43465,1.06747 0.68381,1.21517 0.24917,0.14769 0.44791,0.44992 0.44164,0.6716 -0.006,0.22169 -0.29119,0.99463 -0.63315,1.71766 -0.44613,0.94328 -0.52002,1.4235 -0.2616,1.70015 0.26848,0.2874 0.51514,0.23058 0.96895,-0.22325 0.33484,-0.33483 0.9362,-0.60878 1.33636,-0.60878 0.40017,0 0.62472,0.10285 0.499,0.22856 -0.12571,0.12572 0.1796,0.65461 0.67846,1.17531 0.49887,0.5207 0.78471,0.94674 0.63519,0.94674 -0.14951,0 -0.11508,0.18888 0.0765,0.41975 0.1916,0.23086 0.36122,0.53308 0.37692,0.6716 0.0157,0.13852 0.0285,0.41188 0.0285,0.60747 0,0.19559 0.17446,0.2478 0.38769,0.11602 0.23476,-0.14509 0.29675,-0.0925 0.15715,0.13341 -0.1268,0.20516 -0.4514,0.28827 -0.72133,0.18469 -0.30839,-0.11834 -0.60848,0.10551 -0.80746,0.60232 -0.17418,0.43486 -0.32626,0.59284 -0.33796,0.35108 -0.0126,-0.26041 -0.19238,-0.33679 -0.44104,-0.18739 -0.33482,0.20115 -0.33541,0.14795 -0.003,-0.26293 0.22926,-0.28331 0.30482,-0.62714 0.1679,-0.76405 -0.13692,-0.13691 -0.0978,-0.21845 0.0869,-0.18119 0.18469,0.0373 0.48691,0.0476 0.67161,0.0229 0.18469,-0.0247 0.10913,-0.18909 -0.16791,-0.36531 -0.40754,-0.25925 -0.42658,-0.44489 -0.0998,-0.97241 0.32691,-0.52764 0.31034,-0.6879 -0.0869,-0.84033 -0.26995,-0.10358 -0.85174,-0.0512 -1.29287,0.1166 -0.44113,0.16772 -0.89315,0.21385 -1.00449,0.10252 -0.11133,-0.11134 -0.20243,0.0285 -0.20243,0.31067 0,0.3625 -0.23985,0.46725 -0.81716,0.35689 -0.7137,-0.13643 -0.8626,0.0125 -1.17594,1.17612 -0.19731,0.73279 -0.37669,1.91959 -0.39862,2.63734 -0.0219,0.71775 0.0161,1.5116 0.0846,1.7641 0.0684,0.25251 -0.14,0.50357 -0.46321,0.55794 -0.32321,0.0544 -0.58765,-0.0389 -0.58765,-0.20724 0,-0.16835 -0.21648,-0.30609 -0.48107,-0.30609 -0.2646,0 -0.59577,0.34 -0.73596,0.75555 -0.14019,0.41555 -0.21898,1.00492 -0.1751,1.30971 0.0439,0.30479 -0.20473,1.02202 -0.55248,1.59385 -0.34775,0.57183 -0.73248,0.9395 -0.85494,0.81703 -0.12247,-0.12246 -0.22266,0.0468 -0.22266,0.37617 0,0.41082 0.1845,0.54579 0.58765,0.42987 0.32321,-0.0929 0.82926,-0.26907 1.12457,-0.39142 0.44019,-0.18238 0.52375,-0.006 0.46384,0.98118 -0.0402,0.662 -0.16847,1.29903 -0.28506,1.41563 -0.1166,0.11659 -0.212,0.32737 -0.212,0.46838 0,0.14102 0.44196,0.12964 0.98213,-0.0253 0.54017,-0.15492 1.08092,-0.18288 1.20167,-0.0621 0.12074,0.12074 0.80566,0.23317 1.52204,0.24984 0.71637,0.0167 1.24449,-0.0636 1.1736,-0.17828 -0.0709,-0.11471 0.16222,-0.20857 0.51804,-0.20857 0.35582,0 0.65154,0.23207 0.65716,0.5157 0.008,0.41124 0.0812,0.39369 0.36072,-0.0867 0.23027,-0.39572 0.57236,-0.53196 0.99719,-0.39712 0.35568,0.11289 0.64669,0.0601 0.64669,-0.11726 0,-0.17738 0.23451,-0.41249 0.52114,-0.52248 0.34968,-0.13419 0.44396,-0.0631 0.28654,0.21592 -0.16645,0.29508 -0.0983,0.28852 0.23441,-0.0225 0.25795,-0.24115 0.46902,-0.92114 0.46902,-1.51111 0,-0.97671 0.0901,-1.06914 1.0074,-1.03334 0.55407,0.0216 1.22147,0.0972 1.48312,0.16791 0.26165,0.0707 0.72878,0.35524 1.03809,0.63228 0.3093,0.27703 0.50186,0.61703 0.42791,0.75555 -0.074,0.13852 0.0208,0.25185 0.21063,0.25185 0.1898,0 0.2581,0.22666 0.15179,0.5037 -0.10631,0.27704 -0.0152,0.50371 0.20243,0.50371 0.21765,0 0.61159,-0.21588 0.87543,-0.47972 0.26384,-0.26384 0.47972,-0.69199 0.47972,-0.95144 0,-0.25945 0.22505,-0.47172 0.50012,-0.47172 0.33921,0 0.45487,0.24956 0.35947,0.77565 -0.0774,0.42661 -0.038,0.7613 0.0875,0.74377 0.1255,-0.0175 0.41707,-0.014 0.64793,0.008 0.23087,0.0219 0.41976,0.3509 0.41976,0.73118 0,0.42005 0.14592,0.60124 0.37177,0.46165 0.25326,-0.15653 0.29532,0.0111 0.13193,0.52594 -0.18543,0.58422 -0.13644,0.69343 0.21587,0.48129 0.37743,-0.22726 0.37655,-0.17679 -0.005,0.29375 -0.34908,0.43035 -0.35947,0.56816 -0.0428,0.56816 0.33351,0 0.33351,0.10184 0,0.50371 -0.31849,0.38375 -0.32529,0.61545 -0.0285,0.97298 0.30254,0.36453 0.22095,0.79259 -0.3655,1.91772 -0.41523,0.79664 -1.03084,1.72431 -1.36801,2.06148 -0.33716,0.33717 -0.75863,0.52305 -0.93658,0.41307 -0.17796,-0.10998 -0.32356,0.095 -0.32356,0.45552 0,0.36052 0.23625,0.74615 0.52499,0.85695 0.28874,0.1108 0.43128,0.35307 0.31676,0.53837 -0.11452,0.1853 -0.27015,0.65851 -0.34585,1.05158 -0.0757,0.39306 -0.40192,1.11141 -0.72494,1.59631 -0.50371,0.75618 -0.60489,0.79549 -0.71089,0.27617 -0.0982,-0.48132 -0.22113,-0.52453 -0.59923,-0.21073 -0.3411,0.28308 -0.47565,0.28813 -0.47565,0.0178 0,-0.20731 -0.18298,-0.33914 -0.40662,-0.29297 -0.22365,0.0462 -0.58556,0.23506 -0.80426,0.41975 -0.21869,0.18469 -0.32527,0.45519 -0.23684,0.60111 0.0884,0.14592 -0.19187,0.1822 -0.6229,0.0806 -0.43102,-0.10159 -0.98275,-0.0547 -1.22604,0.10427 -0.33475,0.21869 -0.36254,0.56665 -0.11423,1.43049 0.18046,0.62784 0.34174,0.95738 0.3584,0.73231 0.0169,-0.22792 0.26121,-0.3206 0.55152,-0.20919 0.43767,0.16795 0.39856,0.3143 -0.24397,0.91291 -0.42086,0.3921 -0.84431,0.69002 -0.94099,0.66206 -0.0967,-0.028 -0.44022,0.0907 -0.76343,0.26367 -0.32321,0.17297 -0.58765,0.67804 -0.58765,1.12237 0,0.44433 -0.13766,0.89294 -0.3059,0.99693 -0.16824,0.10397 -0.26793,0.44766 -0.22154,0.76374 0.0621,0.42342 0.40783,0.57342 1.31329,0.56984 0.67593,-0.002 1.22895,0.11964 1.22895,0.27179 0,0.15215 -0.3631,0.41469 -0.80688,0.58342 -0.44379,0.16872 -0.90603,0.4672 -1.02723,0.66329 -0.12118,0.19608 -0.0692,0.35651 0.11547,0.35651 0.18469,0 0.4292,-0.15111 0.54334,-0.3358 0.11414,-0.18469 0.49192,-0.3358 0.8395,-0.3358 0.34758,0 0.73282,0.16319 0.85609,0.36263 0.12327,0.19945 -0.10168,0.59084 -0.49989,0.86976 -0.55694,0.39009 -0.63716,0.61178 -0.34765,0.96061 0.20699,0.24942 0.59197,0.37074 0.85551,0.26962 0.26353,-0.10113 0.47915,-0.0166 0.47915,0.18786 0,0.20445 -0.26445,0.37266 -0.58766,0.3738 -0.3232,0.001 -1.04098,0.24458 -1.59505,0.54098 -0.55407,0.2964 -1.53629,0.61178 -2.18271,0.70085 -0.64642,0.0891 -1.29816,0.27825 -1.44831,0.42041 -0.15015,0.14216 -0.2835,0.77029 -0.29634,1.39585 -0.0128,0.62554 -0.0801,1.23818 -0.14939,1.36141 -0.0693,0.12323 -0.6745,0.0726 -1.34482,-0.11246 -1.07578,-0.29704 -1.30201,-0.24684 -1.92822,0.42793 -0.44831,0.48308 -0.49032,0.59969 -0.1141,0.31682 0.51555,-0.38765 0.56699,-0.37377 0.38382,0.10356 -0.12544,0.32687 -0.0435,0.5512 0.20133,0.5512 0.3073,0 0.31723,0.11522 0.0389,0.45065 -0.20571,0.24786 -0.28193,0.54273 -0.16938,0.65528 0.11255,0.11255 0.66549,0.11246 1.22875,-1.9e-4 0.87608,-0.17522 0.99171,-0.12036 0.7999,0.37948 -0.19366,0.50469 -0.0629,0.48461 0.95957,-0.14731 0.65108,-0.40239 1.38821,-0.65317 1.63805,-0.5573 0.24984,0.0959 0.64595,-0.002 0.88024,-0.2192 0.33354,-0.30811 0.36817,-0.2842 0.15956,0.11019 -0.2028,0.3834 -0.1689,0.41393 0.1419,0.12784 0.22459,-0.20672 0.44916,-0.66005 0.49906,-1.0074 0.0659,-0.45879 0.40399,-0.65201 1.23598,-0.70635 0.92077,-0.0602 1.01361,-0.0154 0.47367,0.22825 -0.37595,0.16964 -0.46872,0.31345 -0.21074,0.32666 0.37143,0.019 0.37974,0.12135 0.0428,0.5273 -0.34925,0.42083 -0.30077,0.5037 0.29468,0.5037 0.392,0 0.71272,-0.16003 0.71272,-0.35561 0,-0.1956 0.14802,-0.26414 0.32893,-0.15234 0.20815,0.12865 0.18343,0.43625 -0.0673,0.83776 -0.21793,0.34896 -0.70595,0.71973 -1.08448,0.82392 -0.54448,0.14989 -0.59117,0.25202 -0.22352,0.48893 0.2556,0.16471 0.89069,0.17731 1.41132,0.028 0.52062,-0.14931 1.66003,-0.27148 2.53203,-0.27148 1.10116,0 1.43935,0.096 1.10719,0.3142 -0.40331,0.26497 -0.38525,0.38544 0.11524,0.76885 0.37915,0.29046 0.51124,0.66899 0.36575,1.04814 -0.20628,0.53755 -0.26467,0.54298 -0.61954,0.0576 -0.2155,-0.2947 -0.83342,-0.61149 -1.37316,-0.70398 -0.84677,-0.1451 -1.11313,0.0171 -1.94237,1.1823 -0.73848,1.03772 -0.91462,1.58251 -0.76061,2.35256 0.12242,0.61214 0.0732,0.9235 -0.12648,0.80008 -0.18443,-0.11399 -0.24007,0.0242 -0.12765,0.31718 0.10958,0.28557 0.32371,0.44229 0.47584,0.34827 0.15213,-0.094 0.32519,0.17128 0.38456,0.58958 0.0714,0.503 0.37643,0.79852 0.90079,0.87272 0.50472,0.0714 0.71107,-0.0201 0.56783,-0.25185 -0.12374,-0.20023 -0.0272,-0.38194 0.21458,-0.40381 0.24177,-0.0219 0.53124,-0.0291 0.64327,-0.0161 0.11204,0.013 0.39411,-0.38462 0.62683,-0.88369 0.23273,-0.49907 0.55509,-1.16735 0.71636,-1.48506 0.21816,-0.42978 0.11055,-0.67541 -0.42035,-0.95954 -0.57045,-0.3053 -0.62028,-0.44098 -0.24845,-0.67646 0.25582,-0.16201 0.88959,-0.29688 1.40839,-0.29971 0.63551,-0.004 0.86405,0.12304 0.70046,0.38773 -0.16326,0.26416 -0.0597,0.32262 0.31599,0.17844 0.30734,-0.11794 0.55879,-0.0591 0.55879,0.13065 0,0.1898 0.15175,0.25129 0.33723,0.13666 0.20645,-0.12759 0.30411,0.24433 0.25184,0.95905 -0.0469,0.6421 -0.16093,1.16241 -0.25327,1.15623 -0.0924,-0.006 -0.39041,0.007 -0.66237,0.0285 -0.32753,0.0263 -0.21415,0.23353 0.3358,0.61367 0.45665,0.31566 1.02677,0.7658 1.26692,1.00032 0.33134,0.32357 0.40616,1.62276 0.31022,5.38656 -0.0696,2.72809 -0.19474,5.18683 -0.2782,5.46386 -0.0835,0.27704 -0.26868,0.69086 -0.4116,0.91961 -0.18354,0.29377 -0.0897,0.35061 0.31959,0.19355 0.46988,-0.18031 0.52851,-0.10022 0.31006,0.4236 -0.14816,0.35527 -0.34264,0.98343 -0.43217,1.3959 -0.0895,0.41248 -0.0748,0.97914 0.0326,1.25926 0.13885,0.36182 0.68469,0.5093 1.88498,0.5093 z"
       id="path5"
       sodipodi:nodetypes="cssssssssssssssssssssssssssssssssssssssssssscssssssssssssssssssssssssssssssssssssscsscssssssssssssssssssssssssssssssssssssssssssssssssssssssssssssssssssscsscsscsssssssscssssssssssssssssssssssssssssssssscssscssssssssccsscsscssssssssssssssscssssssssssssssscsssscscssssscssssssssscsscsccscssssssssssssssssssssssssssssssssscsssssssssssssssssssssssssssscssssssssssssssssssssssssssscssssssssssssssscscscssssssssssssssssssssssssssssssscsssscsssssscssssssssscsssssssssscccsssssssssccsssscsssssssssssssssssssssssscssssssscsssssssssssssssssscsssssssssssssssssssssssssssscccsssssssssssssssscssssssscssssssscssssssssssssscsssssssssccssssssscssssscsssssscssssssssssssscssscssssssccssssscccsssssssssssssssssssssssssssssssscssssssssssssssssssssssssssssssssssssssssssssssssscsssssssssssssssssssssssssssscssssssssssscsssssssssssssssscsssssssssssssssssssssssssssssssssscsssssssssssssssscc" /></g></svg>
